<?xml version="1.0" standalone="no"?>
<!DOCTYPE svg PUBLIC "-//W3C//DTD SVG 1.1//EN" "http://www.w3.org/Graphics/SVG/1.1/DTD/svg11.dtd" >
<svg>
<metadata>
Created by FontForge 20090914 at Wed Dec 17 11:20:04 2014
 By www-data
2000 Ole Soendergaard, published by Fontshop International for the FontFont library.
</metadata>
<defs>
<font id="SignaColumn-Light" horiz-adv-x="606" >
  <font-face 
    font-family="SignaColumn-Light"
    font-weight="400"
    font-stretch="normal"
    units-per-em="1000"
    panose-1="2 0 5 3 5 0 0 2 0 4"
    ascent="800"
    descent="-200"
    x-height="525"
    cap-height="700"
    bbox="-266 -226.999 1131 914"
    underline-thickness="20"
    underline-position="-123"
    unicode-range="U+0005-U+2122"
  />
<missing-glyph horiz-adv-x="1000" 
 />
    <glyph glyph-name=".notdef" horiz-adv-x="1000" 
 />
    <glyph glyph-name="breve" horiz-adv-x="255" 
d="M277 781h-53.002c-1.33301 -20 -5.5 -36.5 -12.5 -49.5s-15.167 -23 -24.5 -30s-19.5 -11.833 -30.5 -14.5s-20.833 -4 -29.5 -4c-10 0 -20.5 1.5 -31.5 4.5s-21 8.16699 -30 15.5s-16.667 17.333 -23 30s-10.166 28.667 -11.499 48h-53
c2.66699 -52 16.167 -91.167 40.5 -117.5s60.5 -39.5 108.5 -39.5s84.333 13.333 109 40s38.334 65.667 41.001 117z" />
    <glyph glyph-name="dotaccent" horiz-adv-x="164" 
d="M134 651v108h-104v-108h104z" />
    <glyph glyph-name="ring" horiz-adv-x="255" 
d="M223 706c0 30 -10.3311 53.167 -30.998 69.5s-49.334 24.5 -86.001 24.5c-34 0 -61.833 -7.66699 -83.5 -23s-32.5 -39 -32.5 -71c0 -30 10.833 -53 32.5 -69s49.5 -24 83.5 -24c35.333 0 63.666 8 84.999 24s32 39 32 69zM167.002 706
c0 -9.33301 -1.83203 -17.333 -5.49902 -24s-8.5 -12 -14.5 -16s-12.667 -7 -20 -9s-14.333 -3 -21 -3c-16.667 0 -30.834 4.33301 -42.501 13s-17.5 21.667 -17.5 39c0 18 6 31.333 18 40s26 13 42 13c15.333 0 29.333 -4 42 -12s19 -21.667 19 -41z" />
    <glyph glyph-name="hungarumlaut" unicode="&#xa;" horiz-adv-x="444" 
d="M397 780h-100l-76 -158h49zM216 780h-101l-75 -158h48z" />
    <glyph glyph-name="ogonek" horiz-adv-x="296" 
d="M234 -206l-18 42.0029c-8 -4 -15.667 -7.16699 -23 -9.5s-15.666 -3.5 -24.999 -3.5c-11.333 0 -22.666 4.66699 -33.999 14s-17 21 -17 35c0 18 2.33301 34 7 48s11 26.667 19 38c7.33301 9.33301 15 18.166 23 26.499s16.333 16.166 25 23.499l-30 24
c-9.33301 -8 -19.833 -17.667 -31.5 -29s-22.834 -24.166 -33.501 -38.499s-19.5 -29.833 -26.5 -46.5s-10.5 -34.334 -10.5 -53.001c0 -11.333 2.5 -22.333 7.5 -33s12.167 -20.334 21.5 -29.001s20.5 -15.667 33.5 -21s27.5 -8 43.5 -8c11.333 0 23.166 2 35.499 6
s23.5 8.66699 33.5 14z" />
    <glyph glyph-name="caron" horiz-adv-x="256" 
d="M286 780h-60l-97 -124l-99 124h-60l107 -158h106z" />
    <glyph glyph-name="dotlessi" unicode="&#xd;" horiz-adv-x="256" 
d="M158 0v525h-75v-525h75z" />
    <glyph glyph-name="fraction" horiz-adv-x="20" 
d="M278 710l-47 34l-497 -749l47 -34z" />
    <glyph glyph-name="fi" horiz-adv-x="544" 
d="M466 631v119h-193c-19.333 0 -37.833 -1 -55.5 -3s-32.834 -8.66699 -45.501 -20c-9.33301 -8.66699 -16.833 -17 -22.5 -25s-10.167 -17.167 -13.5 -27.5s-5.66602 -22.333 -6.99902 -36s-2 -30.5 -2 -50.5v-65h-103v-56h103v-467h78v467h103v56h-103v54
c0 28 1.16699 50 3.5 66s7 28 14 36s17 13 30 15s29.833 3 50.5 3h84v-66h79zM466 -2v524h-79v-524h79z" />
    <glyph glyph-name="fl" horiz-adv-x="544" 
d="M466 0v750h-193c-19.333 0 -37.833 -1 -55.5 -3s-32.834 -8.66699 -45.501 -20c-9.33301 -8.66699 -16.833 -17 -22.5 -25s-10.167 -17.167 -13.5 -27.5s-5.66602 -22.333 -6.99902 -36s-2 -30.5 -2 -50.5v-67h-103v-54h103v-467h78v467h103v54h-103v55
c0 28 1.16699 50 3.5 66s7 28.167 14 36.5s17 13.5 30 15.5s29.833 3 50.5 3h85v-697h78z" />
    <glyph glyph-name="Lslash" horiz-adv-x="539" 
d="M533 0v65h-320v320l181 57l-16 53l-165 -52v257h-82v-283l-107 -34l16 -53l91 29v-359h402z" />
    <glyph glyph-name="lslash" horiz-adv-x="369" 
d="M345 436l-13 46l-106 -34v302h-83v-326l-119 -38l13 -45l106 33v-374h83v399z" />
    <glyph glyph-name="Zcaron" horiz-adv-x="521" 
d="M497 0v65h-405l390 538v97h-445v-65h373l-386 -536v-99h473zM417 908h-60l-97 -124l-99 124h-60l107 -158h106z" />
    <glyph glyph-name="zcaron" horiz-adv-x="492" 
d="M452 0l0.000976562 61.001c-58 -1.33301 -113.167 -2.33301 -165.5 -3s-107.5 -1.33398 -165.5 -2.00098l117.5 131.5l84 95l57 65l36.5 42l22 26l14 16.5v93h-394v-61c17.333 0.666992 40.166 1.16699 68.499 1.5l86.5 1l85 1c27.333 0.333008 49 0.5 65 0.5h26
l-113 -128.5l-101.5 -115l-81.5 -92l-53 -59.5v-73h412zM420.001 780.001h-60l-97 -124l-99 124h-60l107 -157h107z" />
    <glyph glyph-name="space" unicode=" " horiz-adv-x="311" 
 />
    <glyph glyph-name="space" unicode="&#xa0;" horiz-adv-x="311" 
 />
    <glyph glyph-name="exclam" unicode="!" horiz-adv-x="302" 
d="M252 700h-101l18 -508h64zM252 0v102h-102v-102h102z" />
    <glyph glyph-name="quotedbl" unicode="&#x22;" horiz-adv-x="432" 
d="M345 711h-91l14 -237h48zM165 711h-91l14 -237h47z" />
    <glyph glyph-name="numbersign" unicode="#" horiz-adv-x="570" 
d="M521 488h-100l33 211h-59l-31 -211h-115l33 211h-59l-31 -211h-99l-8 -52h99l-25 -172h-101l-8 -52h101l-32 -212h58l31 212h115l-32 -212h58l31 212h99l8 52h-99l26 172h99zM357 436l-27 -172h-114l26 172h115z" />
    <glyph glyph-name="dollar" unicode="$" horiz-adv-x="609" 
d="M503 217c0 36 -12.665 68.9971 -37.998 98.9971s-68.333 53.667 -129 71l-69.5 19.5c-21 5.66699 -39.333 13 -55 22s-27.834 20.667 -36.501 35s-13 33.833 -13 58.5c0 18 4.66699 33.5 14 46.5s21.666 23.833 36.999 32.5s33 15 53 19s40.667 6 62 6
c22 0 45.5 -1.66699 70.5 -5s46.5 -6.66602 64.5 -9.99902v58c-16 3.33301 -29.667 6 -41 8l-32.5 5.5c-10.333 1.66699 -21 2.83398 -32 3.50098s-23.833 1 -38.5 1v93h-58v-94c-64.667 -10 -111.5 -29.833 -140.5 -59.5s-43.5 -69.834 -43.5 -120.501
c0 -48 14.167 -86 42.5 -114s67.833 -48.667 118.5 -62c35.333 -9.33301 64.5 -18.166 87.5 -26.499s41.167 -17.666 54.5 -27.999s22.666 -22 27.999 -35s8 -28.833 8 -47.5c0 -22.667 -5.5 -41.5 -16.5 -56.5s-25.167 -27 -42.5 -36s-36.333 -15.333 -57 -19
s-40.334 -5.5 -59.001 -5.5c-13.333 0 -27.333 0.833008 -42 2.5s-29.167 3.66699 -43.5 6s-28.166 4.83301 -41.499 7.5l-36 7v-65c16 -3.33301 38.333 -7.5 67 -12.5s67.334 -7.83301 116.001 -8.5v-94h58v96c40 6 72 16.667 96 32s42.5 32.833 55.5 52.5s21.667 40 26 61
s6.5 39.833 6.5 56.5z" />
    <glyph glyph-name="percent" unicode="%" horiz-adv-x="836" 
d="M352 517c0 36.667 -3.83301 67.5 -11.5 92.5s-18 45.167 -31 60.5s-28.333 26.333 -46 33s-36.834 10 -57.501 10c-20 0 -39 -3.33301 -57 -10s-33.5 -17.667 -46.5 -33s-23.333 -35.5 -31 -60.5s-11.5 -55.833 -11.5 -92.5s3.5 -67.5 10.5 -92.5s17 -45.167 30 -60.5
s28.5 -26.333 46.5 -33s37.667 -10 59 -10c20.667 0 39.834 3.33301 57.501 10s33 17.667 46 33s23.333 35.5 31 60.5s11.5 55.833 11.5 92.5zM776 185c0 36 -3.83301 66.5 -11.5 91.5s-18 45.333 -31 61s-28.5 26.834 -46.5 33.501s-37 10 -57 10s-39 -3.33301 -57 -10
s-33.5 -17.834 -46.5 -33.501s-23.333 -36 -31 -61s-11.5 -55.5 -11.5 -91.5c0 -36.667 3.5 -67.5 10.5 -92.5s17 -45.167 30 -60.5s28.5 -26.333 46.5 -33s37.667 -10 59 -10c20 0 39 3.33301 57 10s33.5 17.667 46.5 33s23.333 35.5 31 60.5s11.5 55.833 11.5 92.5z
M692 710l-47 31l-503 -748l47 -30zM288 517c0 -47.333 -7.16699 -82.666 -21.5 -105.999s-34.5 -35 -60.5 -35s-46 11.667 -60 35s-21 58.666 -21 105.999c0 44 7 78.5 21 103.5s34 37.5 60 37.5s46.167 -12.5 60.5 -37.5s21.5 -59.5 21.5 -103.5zM712 185
c0 -47.333 -7.16699 -82.666 -21.5 -105.999s-34.5 -35 -60.5 -35s-46 11.667 -60 35s-21 58.666 -21 105.999c0 44 7 78.5 21 103.5s34 37.5 60 37.5s46.167 -12.5 60.5 -37.5s21.5 -59.5 21.5 -103.5z" />
    <glyph glyph-name="ampersand" unicode="&#x26;" horiz-adv-x="794" 
d="M755 353l0.00195312 61.998h-192v-178c0 -32 -4.16699 -58.833 -12.5 -80.5s-19 -39.334 -32 -53.001s-27.333 -24 -43 -31s-30.834 -12 -45.501 -15s-28 -4.5 -40 -4.5h-25c-22 0 -44.333 1.83301 -67 5.5s-43.5 11 -62.5 22s-34.5 26.833 -46.5 47.5s-18 48 -18 82
c0 30 7.5 54.333 22.5 73s33.5 33.334 55.5 44.001s45.833 18 71.5 22s49.5 6 71.5 6v64c-20.667 0 -42 2.16699 -64 6.5s-42.167 11.333 -60.5 21s-33.333 22.334 -45 38.001s-17.5 35.167 -17.5 58.5c0 25.333 5.33301 45.666 16 60.999s24.334 27.166 41.001 35.499
s34.667 13.833 54 16.5s37.666 4 54.999 4c10.667 0 22 -0.333008 34 -1s23.667 -1.5 35 -2.5l32.5 -3c10.333 -1 19.166 -2.16699 26.499 -3.5v61c-20.667 4.66699 -41.834 7.83398 -63.501 9.50098s-46.834 2.5 -75.501 2.5c-35.333 0 -67.666 -3.5 -96.999 -10.5
s-54.666 -17.833 -75.999 -32.5s-38 -32.834 -50 -54.501s-18 -47.5 -18 -77.5c0 -26 5.33301 -48.167 16 -66.5s23.5 -33.666 38.5 -45.999s30.833 -21.666 47.5 -27.999s31 -10.5 43 -12.5v-11c-14 -2 -31.333 -6.16699 -52 -12.5s-40.834 -16.166 -60.501 -29.499
s-36.5 -30.833 -50.5 -52.5s-21 -48.834 -21 -81.501c0 -43.333 7.5 -79.166 22.5 -107.499s35.5 -50.833 61.5 -67.5s56.333 -28.5 91 -35.5s71.334 -10.5 110.001 -10.5c42.667 0 81.334 5 116.001 15s64.167 25.333 88.5 46s43 47.167 56 79.5s19.5 70.5 19.5 114.5
l0.5 30.5c0.333008 20.333 0.166016 47.5 -0.500977 81.5z" />
    <glyph glyph-name="quotesingle" unicode="'" horiz-adv-x="278" 
d="M160 711h-91l14 -245h47z" />
    <glyph glyph-name="parenleft" unicode="(" horiz-adv-x="390" 
d="M228 780l-42 -0.00195312c-6 -16 -14.333 -39.833 -25 -71.5s-21.334 -68.167 -32.001 -109.5s-19.834 -86.333 -27.501 -135s-11.5 -98 -11.5 -148c0 -53.333 3.83301 -105.333 11.5 -156s16.834 -97 27.501 -139s21.334 -78.833 32.001 -110.5s19 -55.167 25 -70.5h42
c-4.66699 21.333 -10 48.833 -16 82.5s-11.833 71.334 -17.5 113.001s-10.334 86.334 -14.001 134.001s-5.5 96.5 -5.5 146.5c0 46.667 1.83301 93 5.5 139s8.33398 89.5 14.001 130.5s11.5 78.333 17.5 112s11.333 61.167 16 82.5z" />
    <glyph glyph-name="parenright" unicode=")" horiz-adv-x="390" 
d="M300 316c0 50 -3.83301 99.335 -11.5 148.002s-16.834 93.667 -27.501 135s-21.334 77.833 -32.001 109.5s-19 55.5 -25 71.5h-42c4.66699 -21.333 10 -48.833 16 -82.5s11.667 -71 17 -112s10 -84.5 14 -130.5s6 -92.333 6 -139c0 -50 -2 -98.833 -6 -146.5
s-8.66699 -92.334 -14 -134.001s-11 -79.334 -17 -113.001s-11.333 -61.167 -16 -82.5h42c6 15.333 14.333 38.833 25 70.5s21.334 68.5 32.001 110.5s19.834 88.333 27.501 139s11.5 102.667 11.5 156z" />
    <glyph glyph-name="asterisk" unicode="*" horiz-adv-x="599" 
d="M529 564l-21 63l-183 -68l8 195h-67l8 -194l-183 67l-21 -63l188 -52l-121 -153l54 -40l108 163l109 -163l54 39l-122 153z" />
    <glyph glyph-name="plus" unicode="+" 
d="M582 309v71h-243v243h-72v-243h-243v-71h243v-244h72v244h243z" />
    <glyph glyph-name="comma" unicode="," horiz-adv-x="303" 
d="M198 95h-99v-220h46z" />
    <glyph glyph-name="hyphen" unicode="-" horiz-adv-x="407" 
d="M314 268v64h-244v-64h244z" />
    <glyph glyph-name="period" unicode="." horiz-adv-x="303" 
d="M201 0v106h-106v-106h106z" />
    <glyph glyph-name="slash" unicode="/" horiz-adv-x="378" 
d="M358 771l-56 18l-283 -861l56 -18z" />
    <glyph glyph-name="zero" unicode="0" 
d="M556 350c0 68.667 -6.33203 126.334 -18.999 173.001s-30.334 84.167 -53.001 112.5s-49.5 48.5 -80.5 60.5s-64.5 18 -100.5 18s-69.5 -6 -100.5 -18s-57.833 -32.167 -80.5 -60.5s-40.334 -65.833 -53.001 -112.5s-19 -104.334 -19 -173.001
s5.83301 -126.334 17.5 -173.001s28.5 -84.167 50.5 -112.5s48.667 -48.5 80 -60.5s66.333 -18 105 -18c36 0 69.5 6 100.5 18s57.833 32.167 80.5 60.5s40.334 65.833 53.001 112.5s19 104.334 19 173.001zM471.001 350c0 -97.333 -13.167 -172.5 -39.5 -225.5
s-69.166 -79.5 -128.499 -79.5s-102 26.5 -128 79.5s-39 128.167 -39 225.5c0 44.667 3.16699 85.834 9.5 123.501s16.166 69.834 29.499 96.501s30.5 47.5 51.5 62.5s46.5 22.5 76.5 22.5s55.5 -7.5 76.5 -22.5s38.333 -35.833 52 -62.5s23.667 -58.834 30 -96.501
s9.5 -78.834 9.5 -123.501z" />
    <glyph glyph-name="one" unicode="1" 
d="M510 0v68h-150v644l-229 -23v-63h146v-558h-146v-68h379z" />
    <glyph glyph-name="two" unicode="2" 
d="M503 512c0 38 -6.83398 69.6738 -20.501 95.0068s-32 45.666 -55 60.999s-49.5 26.166 -79.5 32.499s-61.333 9.5 -94 9.5c-30.667 0 -58.667 -1.5 -84 -4.5s-48.666 -7.16699 -69.999 -12.5v-66c25.333 6 49.666 10.5 72.999 13.5s48 4.5 74 4.5
c20.667 0 41.167 -2.33301 61.5 -7s38.333 -12.334 54 -23.001s28.334 -24.834 38.001 -42.501s14.5 -39.834 14.5 -66.501c0 -25.333 -5.83301 -50.666 -17.5 -75.999s-27.167 -50.333 -46.5 -75s-41.166 -48.834 -65.499 -72.501s-49 -46.334 -74 -68.001l-73 -62.5
c-23.667 -20 -44.167 -38.333 -61.5 -55v-98h426v66h-351v8l113.5 92c40.333 31.333 78.166 65 113.499 101c36 36 65.667 74.167 89 114.5s35 84.166 35 131.499z" />
    <glyph glyph-name="three" unicode="3" 
d="M503 193c0 28.667 -4.66797 52.8242 -14.001 72.4912s-21.833 35.834 -37.5 48.501s-33.5 22.834 -53.5 30.501s-40.333 13.834 -61 18.501v9c19.333 6 38 13 56 21s33.833 18.5 47.5 31.5s24.5 28.833 32.5 47.5s12 41.667 12 69c0 30.667 -6.33301 56.834 -19 78.501
s-29.5 39.167 -50.5 52.5s-45.167 23 -72.5 29s-55.333 9 -84 9c-38 0 -71.5 -2 -100.5 -6s-55.167 -9 -78.5 -15v-67l76 15.5c25.333 5 51.333 7.5 78 7.5c21.333 0 42 -1.33301 62 -4s37.667 -8.16699 53 -16.5s27.666 -20 36.999 -35s14 -34.833 14 -59.5
c0 -25.333 -5.16699 -46.166 -15.5 -62.499s-24.166 -29.5 -41.499 -39.5s-38 -17.167 -62 -21.5s-49.333 -7.16602 -76 -8.49902v-66c24 -1.33301 48.333 -3.5 73 -6.5s47.167 -9.16699 67.5 -18.5s37 -22.666 50 -39.999s19.5 -40.333 19.5 -69
c0 -33.333 -6.83301 -59.333 -20.5 -78s-30.667 -32.667 -51 -42s-42.333 -15.166 -66 -17.499s-45.167 -3.5 -64.5 -3.5c-28.667 0 -55.667 2.5 -81 7.5s-47.666 10.167 -66.999 15.5v-71c12.667 -3.33301 27 -6.16602 43 -8.49902s32 -4.33301 48 -6s31.333 -3 46 -4
s27 -1.5 37 -1.5c30 0 60.667 3.5 92 10.5s59.833 18.5 85.5 34.5s46.5 37 62.5 63s24 58 24 96z" />
    <glyph glyph-name="four" unicode="4" 
d="M525 711h-100l-385 -459v-106h381v-146h79v459h-14l-65 -76v-172h-312z" />
    <glyph glyph-name="five" unicode="5" 
d="M517 225c0 34 -5.49902 64.333 -16.499 91s-26 49 -45 67s-41 31.667 -66 41s-51.167 14 -78.5 14h-25c-7.33301 0 -15.166 -0.5 -23.499 -1.5s-18 -2.5 -29 -4.5s-24.5 -5 -40.5 -9l11 210h284l3 67h-361l-4.5 -88.5l-5 -100
c-1.66699 -33.667 -3.33398 -65.334 -5.00098 -95.001s-2.83398 -53.834 -3.50098 -72.501c21.333 4 45.166 9.16699 71.499 15.5s50.5 9.5 72.5 9.5c23.333 0 45.5 -2.16699 66.5 -6.5s39.5 -12.166 55.5 -23.499s28.667 -26.5 38 -45.5s14 -43.167 14 -72.5
c0 -54.667 -16.833 -96.5 -50.5 -125.5s-77.834 -43.5 -132.501 -43.5c-25.333 0 -50.666 2.33301 -75.999 7s-50.666 9.66699 -75.999 15l-2.5 -35l-2.5 -34c25.333 -6.66699 52.666 -11.667 81.999 -15s57.666 -5 84.999 -5c35.333 0 68.833 5.33301 100.5 16
s59.334 26.167 83.001 46.5s42.334 45.333 56.001 75s20.5 63.834 20.5 102.501z" />
    <glyph glyph-name="six" unicode="6" 
d="M557 227c0 40.667 -6.00293 76.8311 -18.0029 108.498s-28.833 58.167 -50.5 79.5s-47.5 37.666 -77.5 48.999s-62.667 17 -98 17c-10 0 -20.833 -1.16699 -32.5 -3.5s-23.667 -5.66602 -36 -9.99902s-24.166 -9.5 -35.499 -15.5s-21.333 -12.667 -30 -20l-6 6
c12.667 30 29.5 57.333 50.5 82s43.5 46.834 67.5 66.501s47.833 37 71.5 52s44.834 27.833 63.501 38.5c-3.33301 8 -8.33301 17.833 -15 29.5s-12 21.5 -16 29.5c-50 -24.667 -95.5 -53 -136.5 -85s-76.167 -68 -105.5 -108s-52.166 -83.833 -68.499 -131.5
s-24.5 -99.167 -24.5 -154.5c0 -36 4.16699 -70.833 12.5 -104.5s22.333 -63.167 42 -88.5s45.5 -45.666 77.5 -60.999s71.667 -23 119 -23c36 0 69 5.5 99 16.5s56 27 78 48s39 46.833 51 77.5s18 65.667 18 105zM475.997 226.997
c0 -25.333 -3.16504 -49.334 -9.49805 -72.001s-16.333 -42.5 -30 -59.5s-30.834 -30.5 -51.501 -40.5s-45.334 -15 -74.001 -15c-27.333 0 -51.333 5.33301 -72 16s-38 24.834 -52 42.501s-24.667 38 -32 61s-11 46.833 -11 71.5c0 24 3.16699 46.833 9.5 68.5
s16.333 41 30 58s30.667 30.5 51 40.5s44.5 15 72.5 15c28.667 0 53.5 -4.83301 74.5 -14.5s38.5 -23 52.5 -40s24.5 -36.833 31.5 -59.5s10.5 -46.667 10.5 -72z" />
    <glyph glyph-name="seven" unicode="7" 
d="M533 627v73h-464v-69l383 1l-295 -632h86z" />
    <glyph glyph-name="eight" unicode="8" 
d="M551 180c0 29.333 -4.66504 54.335 -13.998 75.002s-22.166 38.5 -38.499 53.5s-35.333 27.667 -57 38s-44.834 20.166 -69.501 29.499v9c16.667 4.66699 33.834 11.667 51.501 21s33.5 20.833 47.5 34.5s25.5 29.667 34.5 48s13.5 39.5 13.5 63.5
c0 26.667 -5.5 50.5 -16.5 71.5s-26.333 38.833 -46 53.5s-43.167 26 -70.5 34s-57 12 -89 12c-32.667 0 -62.834 -4.5 -90.501 -13.5s-51.667 -21.667 -72 -38s-36.166 -36.5 -47.499 -60.5s-17 -51 -17 -81c0 -24.667 5.16699 -46.834 15.5 -66.501s23 -36.834 38 -51.501
s30.833 -26.667 47.5 -36s31.667 -16 45 -20v-10c-21.333 -7.33301 -41.833 -15.666 -61.5 -24.999s-36.834 -21.166 -51.501 -35.499s-26.334 -32 -35.001 -53s-13 -46.833 -13 -77.5c0 -34 8 -62.333 24 -85s36.167 -40.834 60.5 -54.501s50.666 -23.5 78.999 -29.5
s55.166 -9 80.499 -9c27.333 0 55.833 3.66699 85.5 11s56.834 19 81.501 35s45 36.833 61 62.5s24 57.167 24 94.5zM462.002 174.002c0 -30 -5.83301 -53.998 -17.5 -71.998s-26 -32 -43 -42s-34.833 -16.5 -53.5 -19.5s-35 -4.5 -49 -4.5c-11.333 0 -26 1.33301 -44 4
s-35.5 8.5 -52.5 17.5s-31.667 22.167 -44 39.5s-18.5 40.666 -18.5 69.999c0 24.667 4.16699 45.167 12.5 61.5s19.333 30.166 33 41.499s29.5 20.833 47.5 28.5l57 23.5c19.333 -6 39.166 -12.5 59.499 -19.5s38.833 -15.833 55.5 -26.5s30.334 -24.167 41.001 -40.5
s16 -36.833 16 -61.5zM436.002 543.004c0 -25.333 -5.66895 -46.3311 -17.002 -62.998s-24.5 -30.167 -39.5 -40.5s-30 -18 -45 -23s-26.5 -7.83301 -34.5 -8.5c-8 2 -20.333 5.66699 -37 11s-33.334 13.166 -50.001 23.499s-31.167 23.666 -43.5 39.999
s-18.5 36.5 -18.5 60.5c0 22 4.33301 40.833 13 56.5s19.834 28.5 33.501 38.5s28.834 17.333 45.501 22s32.667 7 48 7c18.667 0 36.834 -2.33301 54.501 -7s33.167 -12 46.5 -22s24 -22.833 32 -38.5s12 -34.5 12 -56.5z" />
    <glyph glyph-name="nine" unicode="9" 
d="M546 443c0 36 -4.16504 70.834 -12.498 104.501s-22.333 63.167 -42 88.5s-45.667 45.666 -78 60.999s-72.166 23 -119.499 23c-36 0 -69 -5.5 -99 -16.5s-56 -27 -78 -48s-39 -46.833 -51 -77.5s-18 -65.667 -18 -105c0 -40 5.83301 -75.5 17.5 -106.5
s28.167 -57.167 49.5 -78.5s46.666 -37.5 75.999 -48.5s62 -16.5 98 -16.5c23.333 0 48.166 3.33301 74.499 10s48.166 17.667 65.499 33l4 -4c-12.667 -30 -29.5 -57.333 -50.5 -82s-43.5 -47 -67.5 -67s-48 -37.5 -72 -52.5s-45.333 -27.833 -64 -38.5l16 -28.5
c6.66699 -11.667 12 -21.5 16 -29.5c49.333 24 94.5 52.167 135.5 84.5s76.333 68.5 106 108.5s52.667 83.833 69 131.5s24.5 99.167 24.5 154.5zM462.002 469.001c0 -24 -3.16797 -46.8311 -9.50098 -68.498s-16.333 -41 -30 -58s-30.834 -30.5 -51.501 -40.5
s-45 -15 -73 -15s-52.667 5 -74 15s-39 23.5 -53 40.5s-24.5 36.667 -31.5 59s-10.5 46.166 -10.5 71.499s3.16699 49.333 9.5 72s16.333 42.5 30 59.5s30.834 30.5 51.501 40.5s45.334 15 74.001 15c27.333 0 51.5 -5.33301 72.5 -16s38.5 -24.834 52.5 -42.501
s24.667 -38 32 -61s11 -46.833 11 -71.5z" />
    <glyph glyph-name="colon" unicode=":" horiz-adv-x="303" 
d="M226 419v106h-106v-106h106zM226 0v106h-106v-106h106z" />
    <glyph glyph-name="semicolon" unicode=";" horiz-adv-x="303" 
d="M220 94h-100v-219h47zM221 424v101h-101v-101h101z" />
    <glyph glyph-name="less" unicode="&#x3c;" 
d="M413 525h-100l-246 -263l246 -262h98l-241 262z" />
    <glyph glyph-name="equal" unicode="=" 
d="M528 386v77h-450v-77h450zM528 162v77h-450v-77h450z" />
    <glyph glyph-name="greater" unicode="&#x3e;" 
d="M539 262l-246 263h-100l243 -263l-241 -262h98z" />
    <glyph glyph-name="question" unicode="?" horiz-adv-x="550" 
d="M476 545c0 34 -7.16895 61.835 -21.502 83.502s-32.5 38.667 -54.5 51s-46.167 20.666 -72.5 24.999s-51.166 6.5 -74.499 6.5c-19.333 0 -42.833 -1.66699 -70.5 -5s-53.5 -8.33301 -77.5 -15v-75c27.333 5.33301 54.166 10.166 80.499 14.499s47.833 6.5 64.5 6.5
c14.667 -0.666992 29.5 -2.83398 44.5 -6.50098s28.5 -9.33398 40.5 -17.001s21.833 -17.834 29.5 -30.501s11.5 -28.334 11.5 -47.001c0 -21.333 -5.83301 -40.5 -17.5 -57.5s-24.834 -33.833 -39.501 -50.5l-37 -40.5c-11.333 -12.333 -21.333 -25.166 -30 -38.499
s-15.5 -28.166 -20.5 -44.499s-7.5 -35.833 -7.5 -58.5v-55h72v31c0 13.333 0.833008 25.833 2.5 37.5s5.33398 23.334 11.001 35.001s13.834 23.834 24.501 36.501s25.334 27 44.001 43c12.667 10.667 25 22.167 37 34.5s22.5 25.5 31.5 39.5s16.167 29 21.5 45
s8 33.333 8 52zM314.998 0.00195312v102h-102v-102h102z" />
    <glyph glyph-name="at" unicode="@" horiz-adv-x="855" 
d="M785 388c0 48.667 -8.3291 93.0039 -24.9961 133.004s-40.5 74.167 -71.5 102.5s-68.333 50.166 -112 65.499s-92.5 23 -146.5 23c-50 0 -96.833 -9.66699 -140.5 -29s-81.834 -45.5 -114.501 -78.5s-58.334 -71.5 -77.001 -115.5s-28 -91 -28 -141
s9.5 -96.833 28.5 -140.5s44.833 -81.834 77.5 -114.501s71 -58.334 115 -77.001s91 -28 141 -28c28 0 54.167 2 78.5 6s46.166 9.66699 65.499 17v63c-45.333 -18.667 -93.333 -28 -144 -28c-42.667 0 -82.334 8.16699 -119.001 24.5s-68.5 38.333 -95.5 66
s-48.167 59.667 -63.5 96s-23 74.833 -23 115.5c0 41.333 8 80.5 24 117.5s37.5 69.5 64.5 97.5s58.667 50.167 95 66.5s74.833 24.5 115.5 24.5c41.333 0 80 -6 116 -18s67.167 -29.333 93.5 -52s47.166 -50.334 62.499 -83.001s23 -69.667 23 -111
c0 -18.667 -1.83301 -37.5 -5.5 -56.5s-9.33398 -36.333 -17.001 -52s-17.5 -28.5 -29.5 -38.5s-26.667 -15 -44 -15c-10 0 -18.833 2.33301 -26.5 7s-13.834 10.834 -18.501 18.501s-8.16699 16.334 -10.5 26.001s-3.5 19.5 -3.5 29.5v202
c-20.667 3.33301 -41.167 6.16602 -61.5 8.49902s-45.5 3.5 -75.5 3.5c-31.333 0 -58.666 -4.66699 -81.999 -14s-42.666 -22 -57.999 -38s-27 -34.333 -35 -55s-12 -42 -12 -64c0 -56.667 13.5 -100.5 40.5 -131.5s68.167 -46.5 123.5 -46.5c28 0 51.5 5 70.5 15
s35.833 24.667 50.5 44c13.333 -21.333 27.833 -36.5 43.5 -45.5s33.5 -13.5 53.5 -13.5c18.667 0 37.334 4.16699 56.001 12.5s35.5 21.166 50.5 38.499s27.167 39.5 36.5 66.5s14 59.167 14 96.5zM505.004 279.004c-6 -13.333 -16.833 -25.001 -32.5 -35.001
s-32.5 -15 -50.5 -15c-19.333 0 -35.833 3.5 -49.5 10.5s-24.667 16.333 -33 28s-14.333 24.834 -18 39.501s-5.5 30 -5.5 46c0 27.333 5.66699 49.833 17 67.5s26 31 44 40s38.167 14 60.5 15s44.833 -1.5 67.5 -7.5v-189z" />
    <glyph glyph-name="A" unicode="A" horiz-adv-x="632" 
d="M632 0l-258 700h-115l-259 -700h83l64 184h330l64 -184h91zM456 245h-288l137 393h13z" />
    <glyph glyph-name="B" unicode="B" horiz-adv-x="603" 
d="M559 184c0 31.333 -4.66797 57.1641 -14.001 77.4971s-21.5 36.833 -36.5 49.5s-32.333 22.334 -52 29.001s-39.5 12 -59.5 16v11c19.333 5.33301 37.666 11.833 54.999 19.5s32.333 17.834 45 30.501s22.667 28.334 30 47.001s11 42 11 70
c0 24 -3.66699 46.167 -11 66.5s-19.666 37.833 -36.999 52.5s-40.666 26.167 -69.999 34.5s-66 12.5 -110 12.5h-226v-700h231c44.667 0 82.667 4.5 114 13.5s56.5 21.5 75.5 37.5s32.833 35.333 41.5 58s13 47.667 13 75zM473.999 192.998
c0 -28.667 -5.00098 -51.668 -15.001 -69.001s-23.5 -30.666 -40.5 -39.999s-36.5 -15.5 -58.5 -18.5s-45 -4.5 -69 -4.5h-127v267h121c22.667 0 45.334 -1.83301 68.001 -5.5s43 -10.5 61 -20.5s32.5 -23.667 43.5 -41s16.5 -40 16.5 -68zM454.998 524.997
c0 -28.667 -5.66797 -51.833 -17.001 -69.5s-25.666 -31.5 -42.999 -41.5s-36.5 -16.667 -57.5 -20s-41.167 -5 -60.5 -5h-113v250h116c15.333 0 33 -0.666992 53 -2s39 -5.5 57 -12.5s33.333 -18.167 46 -33.5s19 -37.333 19 -66z" />
    <glyph glyph-name="C" unicode="C" horiz-adv-x="567" 
d="M552 3l0.000976562 63.002c-19.333 -4 -39 -7.16699 -59 -9.5s-44.333 -3.5 -73 -3.5c-46.667 0 -87.334 7 -122.001 21s-63.667 34 -87 60s-40.833 57.333 -52.5 94s-17.5 77.667 -17.5 123c0 44 5.83301 84.167 17.5 120.5s29.167 67.5 52.5 93.5
s52.5 46.167 87.5 60.5s76.167 21.5 123.5 21.5c16 0 29.833 -0.333008 41.5 -1s22.334 -1.66699 32.001 -3l28 -4c9 -1.33301 18.5 -3 28.5 -5v65c-23.333 5.33301 -47 8.66602 -71 9.99902s-48.667 2 -74 2c-53.333 0 -101.666 -8.33301 -144.999 -25
s-80.333 -40.5 -111 -71.5s-54.334 -68.667 -71.001 -113s-25 -94.5 -25 -150.5c0 -56.667 8.33301 -107.334 25 -152.001s40.167 -82.5 70.5 -113.5s66.833 -54.833 109.5 -71.5s90 -25 142 -25c28 0 53.667 0.833008 77 2.5s47.666 5.5 72.999 11.5z" />
    <glyph glyph-name="D" unicode="D" horiz-adv-x="695" 
d="M640 350c0 68 -8.16699 124.5 -24.5 169.5s-38.833 80.833 -67.5 107.5s-62.5 45.5 -101.5 56.5s-81.167 16.5 -126.5 16.5h-236v-700h234c46 0 88.5 6 127.5 18s73 31.667 102 59s51.667 63.333 68 108s24.5 99.667 24.5 165zM554 350
c0 -63.333 -7.33398 -114 -22.001 -152s-34.334 -67 -59.001 -87s-53.167 -33 -85.5 -39s-65.833 -9 -100.5 -9h-120v574h118c34.667 0 68.334 -3 101.001 -9s61.334 -19 86.001 -39s44.5 -49 59.5 -87s22.5 -88.667 22.5 -152z" />
    <glyph glyph-name="E" unicode="E" horiz-adv-x="534" 
d="M504 0v64h-339v263h254v63h-254v247h334v63h-415v-700h420z" />
    <glyph glyph-name="F" unicode="F" horiz-adv-x="517" 
d="M505 636v64h-421v-700h82v308h264v65h-264v263h339z" />
    <glyph glyph-name="G" unicode="G" horiz-adv-x="661" 
d="M601 6l0.00195312 327h-83v-272c-23.333 -5.33301 -44.333 -8.16602 -63 -8.49902s-33.334 -0.5 -44.001 -0.5c-40 0 -76.5 6.83301 -109.5 20.5s-61.5 33.5 -85.5 59.5s-42.5 57.333 -55.5 94s-19.5 78 -19.5 124c0 49.333 7.33301 92.666 22 129.999s35 68.333 61 93
s56.833 43.167 92.5 55.5s74.5 18.5 116.5 18.5c32 0 60.333 -1.16699 85 -3.5s49 -5.5 73 -9.5v64c-27.333 4.66699 -53.833 8 -79.5 10s-55.5 3 -89.5 3c-56 0 -106.5 -8.16699 -151.5 -24.5s-83.5 -40 -115.5 -71s-56.667 -68.833 -74 -113.5s-26 -95.334 -26 -152.001
c0 -67.333 9.33301 -124 28 -170s44 -83.167 76 -111.5s69.167 -48.666 111.5 -60.999s87.166 -18.5 134.499 -18.5c20 0 38.5 0.333008 55.5 1s33.167 1.66699 48.5 3s30.5 3 45.5 5s30.5 4.66699 46.5 8z" />
    <glyph glyph-name="H" unicode="H" horiz-adv-x="694" 
d="M610 0v700h-83v-308h-360v308h-83v-700h83v331h360v-331h83z" />
    <glyph glyph-name="I" unicode="I" horiz-adv-x="251" 
d="M167 0v700h-83v-700h83z" />
    <glyph glyph-name="J" unicode="J" horiz-adv-x="246" 
d="M162 47v652.998h-84v-655c0 -24 -2.83301 -44.5 -8.5 -61.5s-17.834 -34.833 -36.501 -53.5l-87 -82l44 -52l109 100c24.667 22.667 41.334 45.834 50.001 69.501s13 50.834 13 81.501z" />
    <glyph glyph-name="K" unicode="K" horiz-adv-x="612" 
d="M608 0l-349 360l323 340h-98l-318 -347v347h-82v-700h82v341l324 -341h118z" />
    <glyph glyph-name="L" unicode="L" horiz-adv-x="494" 
d="M488 0v65h-321v635h-83v-700h404z" />
    <glyph glyph-name="M" unicode="M" horiz-adv-x="815" 
d="M782 0l-82 700h-138l-156 -617l-156 617h-136l-82 -700h71l69 638h13l164 -638h102l167 638h13l68 -638h83z" />
    <glyph glyph-name="N" unicode="N" horiz-adv-x="709" 
d="M625 700h-71l3 -616h-6l-348 616h-118l-1 -700h71l-4 624h6l350 -624h117z" />
    <glyph glyph-name="O" unicode="O" horiz-adv-x="744" 
d="M690 350c0 56.667 -7.16699 107.667 -21.5 153s-35.166 83.5 -62.499 114.5s-60.666 54.833 -99.999 71.5s-84 25 -134 25s-94.667 -8.33301 -134 -25s-72.5 -40.5 -99.5 -71.5s-47.667 -69.167 -62 -114.5s-21.5 -96.333 -21.5 -153
c0 -57.333 7.16699 -108.5 21.5 -153.5s35 -83 62 -114s60.167 -54.833 99.5 -71.5s84 -25 134 -25s94.667 8.33301 134 25s72.666 40.5 99.999 71.5s48.166 69 62.499 114s21.5 96.167 21.5 153.5zM603 350c0 -55.333 -6.33301 -102.166 -19 -140.499
s-29.5 -69.5 -50.5 -93.5s-45.5 -41.333 -73.5 -52s-57.333 -16 -88 -16s-60 5.33301 -88 16s-52.5 28 -73.5 52s-37.833 55.167 -50.5 93.5s-19 85.166 -19 140.499c0 54.667 6.33301 101.167 19 139.5s29.5 69.5 50.5 93.5s45.5 41.5 73.5 52.5s57.333 16.5 88 16.5
s60 -5.5 88 -16.5s52.5 -28.5 73.5 -52.5s37.833 -55.167 50.5 -93.5s19 -84.833 19 -139.5z" />
    <glyph glyph-name="P" unicode="P" horiz-adv-x="558" 
d="M543 490c0 27.333 -3.5 53.665 -10.5 78.998s-19.667 47.666 -38 66.999s-43.833 34.833 -76.5 46.5s-74.667 17.5 -126 17.5h-208v-700h82v267h127c48.667 0 89.167 6.33301 121.5 19s58 29.334 77 50.001s32.333 44.334 40 71.001s11.5 54.334 11.5 83.001z
M458 488.999c0 -33.333 -4.83301 -60.5 -14.5 -81.5s-22.667 -37.333 -39 -49s-35 -19.5 -56 -23.5s-42.5 -6 -64.5 -6h-119v309h121c22 0 43.333 -1.66699 64 -5s39 -10.166 55 -20.499s28.833 -25.333 38.5 -45s14.5 -45.834 14.5 -78.501z" />
    <glyph glyph-name="Q" unicode="Q" horiz-adv-x="744" 
d="M690 350c0 56.667 -7.16699 107.667 -21.5 153s-35.166 83.5 -62.499 114.5s-60.666 54.833 -99.999 71.5s-84 25 -134 25s-94.667 -8.33301 -134 -25s-72.5 -40.5 -99.5 -71.5s-47.667 -69.167 -62 -114.5s-21.5 -96.333 -21.5 -153
c0 -57.333 7.16699 -108.5 21.5 -153.5s35 -83 62 -114s60.167 -54.833 99.5 -71.5s84 -25 134 -25c17.333 0 34.166 1.16699 50.499 3.5s32.166 5.5 47.499 9.5l136 -130l40 39l-102 123c47.333 28.667 83.5 70 108.5 124s37.5 119 37.5 195zM603 350
c0 -55.333 -6.33301 -102.166 -19 -140.499s-29.5 -69.5 -50.5 -93.5s-45.5 -41.333 -73.5 -52s-57.333 -16 -88 -16s-60 5.33301 -88 16s-52.5 28 -73.5 52s-37.833 55.167 -50.5 93.5s-19 85.166 -19 140.499c0 54.667 6.33301 101.167 19 139.5s29.5 69.5 50.5 93.5
s45.5 41.5 73.5 52.5s57.333 16.5 88 16.5s60 -5.5 88 -16.5s52.5 -28.5 73.5 -52.5s37.833 -55.167 50.5 -93.5s19 -84.833 19 -139.5z" />
    <glyph glyph-name="R" unicode="R" horiz-adv-x="616" 
d="M586 0l-195.998 289.999l4 8c25.333 7.33301 47.166 17.833 65.499 31.5s33.5 29.334 45.5 47.001s21 36.667 27 57s9 40.833 9 61.5c0 68.667 -19.833 120 -59.5 154s-97.834 51 -174.501 51h-223v-700h81v285h137l184 -285h100zM457.002 494.999
c0 -30 -5.00195 -54.667 -15.002 -74s-23.5 -34.5 -40.5 -45.5s-36.667 -18.5 -59 -22.5s-45.833 -6 -70.5 -6h-107v292h121c22.667 0 44.334 -1.83301 65.001 -5.5s38.834 -10.667 54.501 -21s28.167 -25 37.5 -44s14 -43.5 14 -73.5z" />
    <glyph glyph-name="S" unicode="S" horiz-adv-x="552" 
d="M512 204c0 41.333 -9.33691 73.6689 -28.0039 97.002s-42 41.666 -70 54.999s-58.167 23.833 -90.5 31.5s-62.5 16.667 -90.5 27s-51.333 24 -70 41s-28 41.167 -28 72.5c0 24.667 6.16699 44.834 18.5 60.501s27.833 27.667 46.5 36s38.5 14 59.5 17
s40.167 4.5 57.5 4.5c24 0 48 -1.66699 72 -5s48 -7.66602 72 -12.999v64c-16 4 -37.167 8.33301 -63.5 13s-56.833 7 -91.5 7c-36.667 0 -70.167 -3.83301 -100.5 -11.5s-56.5 -19.334 -78.5 -35.001s-39.167 -35.334 -51.5 -59.001s-18.5 -51.834 -18.5 -84.501
c0 -33.333 5.33301 -61.166 16 -83.499s24.834 -40.666 42.501 -54.999s37.667 -25.833 60 -34.5s45 -16.334 68 -23.001l68 -19.5c22.333 -6.33301 42.333 -14.333 60 -24s31.834 -21.834 42.501 -36.501s16 -34 16 -58c0 -26 -6.16699 -47.667 -18.5 -65
s-28.166 -31 -47.499 -41s-40.666 -17.167 -63.999 -21.5s-46 -6.5 -68 -6.5c-32 0 -63.833 2.66699 -95.5 8s-58.167 10.666 -79.5 15.999v-70c15.333 -4 37.666 -8.33301 66.999 -13s66 -7 110 -7c60 0 108.167 7.33301 144.5 22s64.333 32.834 84 54.501
s32.834 45 39.501 70s10 48.167 10 69.5z" />
    <glyph glyph-name="T" unicode="T" horiz-adv-x="534" 
d="M528 634v66h-521v-66h219v-634h83v634h219z" />
    <glyph glyph-name="U" unicode="U" horiz-adv-x="669" 
d="M590 700l-75.002 0.000976562v-470c0 -35.333 -4.83301 -64.5 -14.5 -87.5s-22.667 -41.167 -39 -54.5s-35.166 -22.666 -56.499 -27.999s-43.666 -8 -66.999 -8c-24 0 -46.5 2.83301 -67.5 8.5s-39.5 15.167 -55.5 28.5s-28.667 31.5 -38 54.5s-14 51.833 -14 86.5v470
h-83v-478c0 -30.667 3.83301 -60 11.5 -88s21 -52.833 40 -74.5s44.833 -38.834 77.5 -51.501s74 -19 124 -19c46 0 85.333 5.5 118 16.5s59.167 26.833 79.5 47.5s35.333 45.167 45 73.5s14.5 60.166 14.5 95.499v478z" />
    <glyph glyph-name="V" unicode="V" horiz-adv-x="572" 
d="M572 700h-81l-195 -622h-12l-195 622h-87l229 -700h110z" />
    <glyph glyph-name="W" unicode="W" horiz-adv-x="892" 
d="M656 80l-142 620h-112l-143 -620l-149 620h-83l180 -700h105l52 232l37.5 166.5l25.5 111.5l15.5 67.5c3.66699 16.333 6.16699 27.833 7.5 34.5s2.33301 10.667 3 12l145 -624h105l180 700h-76z" />
    <glyph glyph-name="X" unicode="X" horiz-adv-x="598" 
d="M597 0l-231 351l220 349h-89l-186 -303h-15l-186 303h-96l219 -349l-231 -351h93l193 308h15l192 -308h102z" />
    <glyph glyph-name="Y" unicode="Y" horiz-adv-x="570" 
d="M571 700h-86l-190 -348h-8l-190 348h-97l245 -425l-2 -275h85l-2 275z" />
    <glyph glyph-name="Z" unicode="Z" horiz-adv-x="521" 
d="M497 0v65h-405l390 538v97h-445v-65h373l-386 -536v-99h473z" />
    <glyph glyph-name="bracketleft" unicode="[" horiz-adv-x="389" 
d="M265 -160v45h-96v850h96v45h-165v-940h165z" />
    <glyph glyph-name="backslash" unicode="\" horiz-adv-x="376" 
d="M358 -72l-283 861l-56 -18l283 -861z" />
    <glyph glyph-name="bracketright" unicode="]" horiz-adv-x="389" 
d="M289 -160v940h-165v-45h96v-850h-96v-45h165z" />
    <glyph glyph-name="asciicircum" unicode="^" horiz-adv-x="431" 
d="M399 350l-132 350h-96l-139 -350h47l127 298h23l124 -298h46z" />
    <glyph glyph-name="underscore" unicode="_" horiz-adv-x="390" 
d="M379 -86v38h-368v-38h368z" />
    <glyph glyph-name="grave" unicode="`" horiz-adv-x="270" 
d="M223 604l-77 146h-103l130 -146h50z" />
    <glyph glyph-name="a" unicode="a" horiz-adv-x="549" 
d="M474 0l-0.00195312 367.001c0 37.333 -5.16699 67.166 -15.5 89.499s-25.166 39.333 -44.499 51s-43.166 19.334 -71.499 23.001s-60.833 5.5 -97.5 5.5c-60 0 -117.667 -5.66699 -173 -17v-58l76 11.5c29.333 4.33301 58 6.5 86 6.5c40.667 0 72 -2.33301 94 -7
s38.167 -13.167 48.5 -25.5s16.333 -29.166 18 -50.499s2.5 -49 2.5 -83c-20 0 -37.833 0.5 -53.5 1.5s-30.167 1.5 -43.5 1.5c-28.667 0 -58.5 -1 -89.5 -3s-59.5 -8 -85.5 -18s-47.333 -25.833 -64 -47.5s-25 -51.834 -25 -90.501c0 -34.667 5.16699 -62.834 15.5 -84.501
s25 -38.667 44 -51s42 -20.833 69 -25.5s57.5 -7 91.5 -7c36 0 71.333 0.666992 106 2s72 4.33301 112 9zM397.998 48.001c-15.333 -1.33301 -28.167 -2.50195 -38.5 -3.50195s-19.5 -1.66699 -27.5 -2s-15.333 -0.666016 -22 -0.999023s-13.667 -0.5 -21 -0.5
c-19.333 0 -39.166 1 -59.499 3s-38.833 6.83301 -55.5 14.5s-30.334 18.834 -41.001 33.501s-16 35 -16 61c0 23.333 4.5 42.166 13.5 56.499s21.667 25.333 38 33s35.5 12.834 57.5 15.501s46 4 72 4c8 0 20.5 -0.5 37.5 -1.5s37.833 -1.5 62.5 -1.5v-211z" />
    <glyph glyph-name="b" unicode="b" horiz-adv-x="583" 
d="M533 259c0 88 -22.332 155.668 -66.999 203.001s-105.667 71 -183 71c-8 0 -22.667 -0.333008 -44 -1s-49.333 -3.66699 -84 -9v227h-77v-745c30 -5.33301 61.667 -9.33301 95 -12s60.666 -4 81.999 -4c40 0 77 6 111 18s63.333 29.5 88 52.5s44 51.167 58 84.5
s21 71.666 21 114.999zM450.001 259.001c0 -64.667 -16.332 -116.5 -48.999 -155.5s-81.334 -58.833 -146.001 -59.5c-10.667 0 -23.834 0.333008 -39.501 1s-36.167 3 -61.5 7v417c20.667 3.33301 39.834 5.66602 57.501 6.99902s32.5 2 44.5 2
c66.667 0 115.667 -19.167 147 -57.5s47 -92.166 47 -161.499z" />
    <glyph glyph-name="c" unicode="c" horiz-adv-x="476" 
d="M451 1l0.00292969 56.999c-33.333 -6 -65 -9 -95 -9c-68 -1.33301 -122.167 16.834 -162.5 54.501s-60.5 93.5 -60.5 167.5c0 37.333 5.83301 69 17.5 95s27.5 47.333 47.5 64s43.5 28.667 70.5 36s55.833 11 86.5 11c33.333 -1.33301 63.666 -4.66602 90.999 -9.99902
v58c-20 4 -39.167 6.83301 -57.5 8.5s-40.833 2.5 -67.5 2.5c-38 0 -73.5 -5.83301 -106.5 -17.5s-61.667 -28.667 -86 -51s-43.5 -49.833 -57.5 -82.5s-21 -70 -21 -112c0 -47.333 6.66699 -88.833 20 -124.5s32.166 -65.334 56.499 -89.001s53.5 -41.334 87.5 -53.001
s71.667 -17.5 113 -17.5c21.333 0 42.166 0.833008 62.499 2.5s40.833 4.83398 61.5 9.50098z" />
    <glyph glyph-name="d" unicode="d" horiz-adv-x="586" 
d="M508 6l-0.00390625 81v120v142v149v139v113h-77v-226c-32 5.33301 -58.167 8.33301 -78.5 9s-36.166 1 -47.499 1c-41.333 0 -77.833 -6.66699 -109.5 -20s-58.167 -32 -79.5 -56s-37.666 -53.167 -48.999 -87.5s-17 -72.5 -17 -114.5c0 -44 7 -82.5 21 -115.5
s33.333 -60.833 58 -83.5s54 -39.667 88 -51s71 -17 111 -17c14.667 0 30.334 0.5 47.001 1.5s33 2.33301 49 4s31.333 3.5 46 5.5s27.334 4 38.001 6zM430.996 51c-25.333 -3.33301 -45.5 -5.33203 -60.5 -5.99902s-27.833 -1 -38.5 -1c-32 0 -60.167 5.33301 -84.5 16
s-45 25.5 -62 44.5s-29.833 41.667 -38.5 68s-13 55.166 -13 86.499c0 73.333 16.5 128 49.5 164s80.833 54 143.5 54c12.667 0 27 -0.666992 43 -2s36.333 -4 61 -8v-416z" />
    <glyph glyph-name="e" unicode="e" horiz-adv-x="567" 
d="M530 240l-0.00292969 15.999c0 42.667 -4.66699 81.334 -14 116.001s-23.666 64.167 -42.999 88.5s-44.5 43 -75.5 56s-67.833 19.5 -110.5 19.5c-32 0 -62.5 -5 -91.5 -15s-54.167 -25.5 -75.5 -46.5s-38.333 -48.167 -51 -81.5s-19 -73.333 -19 -120
c0 -90.667 23.5 -160.834 70.5 -210.501s115.5 -74.5 205.5 -74.5c28.667 0 56.334 1 83.001 3s53.334 6.66699 80.001 14v52c-19.333 -4 -40 -7.33301 -62 -10s-45 -4 -69 -4c-20 0 -42.333 1.33301 -67 4s-48 10.334 -70 23.001s-41 32.167 -57 58.5
s-25.667 63.5 -29 111.5h395zM439.997 291.999l-303.003 -0.00195312c0 58 12.333 104.667 37 140s62.334 53 113.001 53c30 0 54.833 -5.16699 74.5 -15.5s35.334 -24.166 47.001 -41.499s19.834 -37.666 24.501 -60.999s7 -48.333 7 -75z" />
    <glyph glyph-name="f" unicode="f" horiz-adv-x="385" 
d="M357 467l0.000976562 53.999h-153v56c0 28 1.16699 50 3.5 66s7.16602 28 14.499 36s17.333 13 30 15s29.667 3 51 3h54v53h-84c-19.333 0 -37.833 -1 -55.5 -3s-32.834 -8.66699 -45.501 -20c-9.33301 -8 -16.833 -16.167 -22.5 -24.5s-10.167 -17.666 -13.5 -27.999
s-5.66602 -22.333 -6.99902 -36s-2 -30.167 -2 -49.5v-68h-103v-54h103v-467h77v467h153z" />
    <glyph glyph-name="g" unicode="g" horiz-adv-x="554" 
d="M549 481l-0.00585938 60.998l-211 -12c-11.333 -0.666992 -23.333 0.166016 -36 2.49902s-25 3.5 -37 3.5c-28 0 -55.167 -3.5 -81.5 -10.5s-49.666 -17.667 -69.999 -32s-36.666 -32.833 -48.999 -55.5s-18.5 -49.667 -18.5 -81c0 -38.667 9.33301 -69.5 28 -92.5
s44.334 -42.5 77.001 -58.5c-22.667 -15.333 -42.5 -32.5 -59.5 -51.5s-25.5 -43.167 -25.5 -72.5c0 -23.333 6.16699 -41.333 18.5 -54s27.5 -22 45.5 -28s37.333 -9.5 58 -10.5s39.667 -1.5 57 -1.5c8.66699 0 19.834 0.333008 33.501 1s28.334 0.833984 44.001 0.500977
s31.334 -1.33301 47.001 -3s29.834 -4.83398 42.501 -9.50098s23 -11.167 31 -19.5s12 -19.166 12 -32.499c0 -19.333 -7.66699 -35 -23 -47s-33.666 -21.333 -54.999 -28s-43.166 -11.167 -65.499 -13.5s-40.166 -3.5 -53.499 -3.5c-29.333 0 -58.333 1.83301 -87 5.5
s-57.334 8.16699 -86.001 13.5v-56c31.333 -6.66699 62.833 -11 94.5 -13s63.5 -3 95.5 -3c26 0 54.333 2 85 6s59.167 11.833 85.5 23.5s48.333 28 66 49s26.5 48.5 26.5 82.5c0 28.667 -7 50.834 -21 66.501s-31.667 27.167 -53 34.5s-44.333 11.666 -69 12.999
s-47.334 2 -68.001 2c-10 0 -25.167 -0.5 -45.5 -1.5s-40.833 -0.5 -61.5 1.5s-38.667 6.16699 -54 12.5s-23 17.166 -23 32.499c0 18.667 7.16699 34.834 21.5 48.501s28.5 25.167 42.5 34.5c9.33301 -2 18.833 -3.66699 28.5 -5s19.5 -2 29.5 -2
c29.333 0 57 3.33301 83 10s48.667 17.334 68 32.001s34.666 33.334 45.999 56.001s17 50 17 82c0 27.333 -5.83301 53 -17.5 77s-29.834 42.667 -54.501 56l71 -6c24 -2 47.667 -3.33301 71 -4zM397.994 361.998c0 -86.667 -44 -130 -132 -130c-41.333 0 -73 11.333 -95 34
s-33 54.667 -33 96c0 39.333 11.667 69.833 35 91.5s54.333 32.5 93 32.5c38 0 69.5 -10.667 94.5 -32s37.5 -52 37.5 -92z" />
    <glyph glyph-name="h" unicode="h" horiz-adv-x="591" 
d="M516 373c0 32 -4.33398 58.3369 -13.001 79.0039s-20 37.167 -34 49.5s-29.833 21 -47.5 26s-35.5 7.5 -53.5 7.5c-17.333 0 -33.166 -0.833008 -47.499 -2.5s-29.333 -4.83398 -45 -9.50098s-33.167 -11 -52.5 -19l-69 -30v276h-76v-750h77v417
c9.33301 4.66699 21.166 10.167 35.499 16.5s29.833 12.166 46.5 17.499s33.334 10 50.001 14s32 6 46 6c24 0 43 -3.33301 57 -10s24.833 -15.834 32.5 -27.501s12.5 -24.834 14.5 -39.501s3 -30 3 -46v-348h76v373z" />
    <glyph glyph-name="i" unicode="i" horiz-adv-x="246" 
d="M162 0v525h-78v-525h78zM168 661v90h-90v-91z" />
    <glyph glyph-name="j" unicode="j" horiz-adv-x="226" 
d="M149 38v486.999h-77v-506c0 -21.333 -2 -38.333 -6 -51s-12 -25 -24 -37l-92 -99l42 -42l99 98c24.667 24 40.5 47.833 47.5 71.5s10.5 49.834 10.5 78.501zM148 672.999v77h-77v-77h77z" />
    <glyph glyph-name="k" unicode="k" horiz-adv-x="512" 
d="M530 0l-285 299l261 226h-99l-253 -233v458h-76v-750h76v286l267 -286h109z" />
    <glyph glyph-name="l" unicode="l" horiz-adv-x="232" 
d="M155 0v750h-77v-750h77z" />
    <glyph glyph-name="m" unicode="m" horiz-adv-x="860" 
d="M785 384c0 28.667 -3.5 52.665 -10.5 71.998s-16.833 35 -29.5 47s-27.667 20.5 -45 25.5s-36.333 7.5 -57 7.5c-28 0 -56.833 -5.66699 -86.5 -17s-63.5 -27.666 -101.5 -48.999c-12 23.333 -28.5 40 -49.5 50s-44.833 15 -71.5 15
c-12.667 0 -25.334 -0.833008 -38.001 -2.5s-26.334 -5 -41.001 -10s-31 -11.667 -49 -20s-38.333 -19.166 -61 -32.499v55h-67v-525h76v418c10 4.66699 20.833 10 32.5 16s23.834 11.5 36.501 16.5s25.334 9.33301 38.001 13s25 5.5 37 5.5c24 0 42.333 -3.16699 55 -9.5
s22 -15 28 -26s9.33301 -23.833 10 -38.5s1 -30 1 -46v-349h77v419l30 16c11.333 6 23.333 11.5 36 16.5s25.667 9.16699 39 12.5s26.666 5 39.999 5c24 0 42.333 -3.33301 55 -10s21.834 -15.5 27.501 -26.5s9 -23.667 10 -38s1.5 -29.5 1.5 -45.5v-349h77v384z" />
    <glyph glyph-name="n" unicode="n" horiz-adv-x="591" 
d="M517 0l-0.00292969 380.999c0 28 -4.33301 51.833 -13 71.5s-20 35.667 -34 48s-29.667 21.333 -47 27s-34.666 8.5 -51.999 8.5c-18 0 -34.333 -1 -49 -3s-30.167 -5.5 -46.5 -10.5s-34.5 -11.833 -54.5 -20.5l-74 -33v56h-69v-525h76v417l38.5 16.5
c15 6.33301 30.833 12.333 47.5 18s33.334 10.334 50.001 14.001s32 5.5 46 5.5c26 0 45.833 -4.33301 59.5 -13s23.834 -19.5 30.501 -32.5s10.5 -27.333 11.5 -43s1.5 -30.5 1.5 -44.5v-338h78z" />
    <glyph glyph-name="o" unicode="o" horiz-adv-x="607" 
d="M557 266c0 42 -5.66699 79.8291 -17 113.496s-27.833 62.334 -49.5 86.001s-48.167 41.667 -79.5 54s-67 18.5 -107 18.5c-80.667 0 -143.167 -24.167 -187.5 -72.5s-66.5 -114.833 -66.5 -199.5c0 -41.333 5.66699 -79.166 17 -113.499s27.833 -63.666 49.5 -87.999
s48.167 -43.333 79.5 -57s67.333 -20.5 108 -20.5c36.667 0 70.5 6.83301 101.5 20.5s57.667 32.834 80 57.501s39.833 54 52.5 88s19 71.667 19 113zM473 265.996c0 -33.333 -3.5 -63.665 -10.5 -90.998s-17.5 -50.833 -31.5 -70.5s-31.667 -35 -53 -46
s-46 -16.5 -74 -16.5c-28.667 0 -53.667 5.5 -75 16.5s-39 26.333 -53 46s-24.5 43.167 -31.5 70.5s-10.5 57.666 -10.5 90.999c0 66 14.333 118.667 43 158s71 59 127 59c28 0 52.5 -5.16699 73.5 -15.5s38.667 -25 53 -44s25 -41.833 32 -68.5s10.5 -56.334 10.5 -89.001z
" />
    <glyph glyph-name="p" unicode="p" horiz-adv-x="584" 
d="M534 269c0 20.667 -1.66895 41.6689 -5.00195 63.002s-9.16602 41.833 -17.499 61.5s-19.333 38.167 -33 55.5s-30.5 32.333 -50.5 45c-26.667 16.667 -55.5 27.5 -86.5 32.5s-65.5 7.5 -103.5 7.5c-11.333 0 -23.833 -0.333008 -37.5 -1l-42 -2
c-14.333 -0.666992 -28.333 -1.5 -42 -2.5s-26.5 -1.83301 -38.5 -2.5v-746h77v221c30 -4.66699 53.5 -7.33398 70.5 -8.00098s31.5 -1 43.5 -1c28 0 55.333 3.16699 82 9.5s53.334 18.166 80.001 35.499c35.333 22 61.333 53.667 78 95s25 87 25 137zM449.998 269.002
c0 -40 -4.99902 -73.999 -14.999 -101.999s-23.5 -50.833 -40.5 -68.5s-36.833 -30.334 -59.5 -38.001s-47 -11.5 -73 -11.5h-20c-6 0 -13.167 0.333008 -21.5 1s-17.666 1.66699 -27.999 3l-37.5 5v415c25.333 2.66699 44.166 4.16699 56.499 4.5s24.166 0.5 35.499 0.5
c62.667 0 112.167 -16.667 148.5 -50s54.5 -86.333 54.5 -159z" />
    <glyph glyph-name="q" unicode="q" horiz-adv-x="585" 
d="M507 -220l-0.00292969 746.002c-12 0.666992 -24.833 1.5 -38.5 2.5s-27.667 1.83301 -42 2.5l-42.5 2c-14 0.666992 -26.667 1 -38 1c-38 0 -72.5 -2.83301 -103.5 -8.5s-59.833 -16.834 -86.5 -33.501c-20 -12.667 -36.833 -27.667 -50.5 -45
s-24.667 -35.833 -33 -55.5s-14.166 -40.167 -17.499 -61.5s-5 -42.333 -5 -63c0 -56.667 11.167 -107.5 33.5 -152.5s55.833 -77.167 100.5 -96.5c16 -7.33301 35.667 -13.5 59 -18.5s48 -7.5 74 -7.5h19c6.66699 0 14.334 0.166992 23.001 0.5
s18.834 1.16602 30.501 2.49902s25.167 3.33301 40.5 6v-221h77zM430.997 58.002c-30.667 -4.66699 -53.499 -7.33105 -68.499 -7.99805s-28.167 -1 -39.5 -1c-26 0 -50.5 3.83301 -73.5 11.5s-43.167 20 -60.5 37s-31 39.5 -41 67.5s-15 62 -15 102
c0 72.667 18.5 126 55.5 160s86.833 51 149.5 51h16c5.33301 0 11.5 -0.333008 18.5 -1s15.167 -1.33398 24.5 -2.00098s20.666 -1.33398 33.999 -2.00098v-415z" />
    <glyph glyph-name="r" unicode="r" horiz-adv-x="372" 
d="M357 457l-0.000976562 72c-19.333 0 -37.166 -0.5 -53.499 -1.5s-32.833 -3.5 -49.5 -7.5s-33.667 -10.167 -51 -18.5s-36 -19.833 -56 -34.5v58h-69v-525h77v412c25.333 20 55 32.5 89 37.5s71.667 7.5 113 7.5z" />
    <glyph glyph-name="s" unicode="s" horiz-adv-x="481" 
d="M439 152c0 28 -5.83691 50.8369 -17.5039 68.5039s-26.5 32 -44.5 43s-38 19.5 -60 25.5s-43.333 11.333 -64 16c-11.333 2 -24.5 4.66699 -39.5 8s-29.5 8.33301 -43.5 15s-25.833 15.167 -35.5 25.5s-14.5 23.833 -14.5 40.5c0 18 4.83301 32.5 14.5 43.5
s21.834 19.5 36.501 25.5s30.334 10 47.001 12s32 3 46 3c26 0 51.5 -1.66699 76.5 -5s46.167 -6.66602 63.5 -9.99902v59c-15.333 2.66699 -36 5.66699 -62 9s-57.667 5 -95 5c-26 0 -51.333 -2.5 -76 -7.5s-46.5 -13.167 -65.5 -24.5s-34.333 -26.5 -46 -45.5
s-17.5 -42.833 -17.5 -71.5c0 -24 4.33301 -44.167 13 -60.5s20 -29.833 34 -40.5s29.833 -19.334 47.5 -26.001s35.5 -12.334 53.5 -17.001c14.667 -4 31.834 -7.83301 51.501 -11.5s38 -9 55 -16s31.5 -16.5 43.5 -28.5s18 -28.333 18 -49
c0 -18.667 -5 -33.834 -15 -45.501s-22.667 -20.834 -38 -27.501s-32.5 -11.334 -51.5 -14.001s-37.5 -4 -55.5 -4c-26.667 0 -53 2.16699 -79 6.5s-50.667 9.16602 -74 14.499v-61c24 -5.33301 50.167 -9.66602 78.5 -12.999s57.5 -5 87.5 -5
c76.667 0 133.834 14.833 171.501 44.5s56.5 69.167 56.5 118.5z" />
    <glyph glyph-name="t" unicode="t" horiz-adv-x="393" 
d="M362 467l-0.00195312 54.001h-151v189c-6 -2 -13 -4.5 -21 -7.5l-23 -8.5l-20 -7c-6 -2 -10.333 -3.33301 -13 -4v-162h-110v-54h110v-344c0 -29.333 2.83301 -52.333 8.5 -69s14.334 -29 26.001 -37s26.834 -12.833 45.501 -14.5s41 -2.5 67 -2.5h77v57h-68
c-13.333 0 -25 0.666992 -35 2s-18.333 4.5 -25 9.5s-11.5 12.667 -14.5 23s-4.5 24.166 -4.5 41.499v334h151z" />
    <glyph glyph-name="u" unicode="u" horiz-adv-x="578" 
d="M501 0l0.00292969 525.004h-77v-412c-12 -5.33301 -24.333 -11.333 -37 -18s-26.5 -12.834 -41.5 -18.501s-30.833 -10.334 -47.5 -14.001s-35 -5.5 -55 -5.5c-22.667 0 -40.167 4.16699 -52.5 12.5s-21.333 19.166 -27 32.499s-9 28.166 -10 44.499s-1.5 32.5 -1.5 48.5
v330h-77v-375c0 -31.333 4.16699 -57.166 12.5 -77.499s19.166 -36.5 32.499 -48.5s28.666 -20.333 45.999 -25s34.666 -7 51.999 -7c16.667 0 32.667 0.666992 48 2s31.333 4.5 48 9.5s34.5 12.167 53.5 21.5s40.5 21.666 64.5 36.999v-62h69z" />
    <glyph glyph-name="v" unicode="v" horiz-adv-x="480" 
d="M479 525h-73l-155 -465h-9l-157 465h-83l187 -525h102z" />
    <glyph glyph-name="w" unicode="w" horiz-adv-x="785" 
d="M765 525l-70 -0.000976562l-14.5 -66l-21 -95l-24 -106.5l-22.5 -98.5l-16.5 -72.5l-6.5 -28.5h-16l-7.5 28.5l-19.5 73l-26.5 99l-28 106.5l-25 95c-7.66699 28.667 -13.167 50.334 -16.5 65.001h-118l-17 -65.5l-24.5 -95.5l-27.5 -106l-25.5 -98.5l-19 -73l-7.5 -28.5
h-15l-6.5 28.5l-17 73l-23.5 98.5l-25 106l-21.5 95.5l-14.5 65.5h-77l128 -525h120l121 455h12l124 -455h120z" />
    <glyph glyph-name="x" unicode="x" horiz-adv-x="460" 
d="M468 0l-183 263l172 262h-78l-139 -218h-3l-136 218h-97l172 -262l-183 -263h83l146 220h4l146 -220h96z" />
    <glyph glyph-name="y" unicode="y" horiz-adv-x="511" 
d="M504 525h-85l-153 -464h-12l-158 464h-88l189 -525h47l-88 -220h80z" />
    <glyph glyph-name="z" unicode="z" horiz-adv-x="492" 
d="M452 0l0.000976562 61.001c-58 -1.33301 -113.167 -2.33301 -165.5 -3s-107.5 -1.33398 -165.5 -2.00098l117.5 131.5l84 95l57 65l36.5 42l22 26l14 16.5v93h-394v-61c17.333 0.666992 40.166 1.16699 68.499 1.5l86.5 1l85 1c27.333 0.333008 49 0.5 65 0.5h26
l-113 -128.5l-101.5 -115l-81.5 -92l-53 -59.5v-73h412z" />
    <glyph glyph-name="braceleft" unicode="{" horiz-adv-x="389" 
d="M285 -161l-0.000976562 47.001h-41c-16.667 0 -30 3.16699 -40 9.5s-15 17.166 -15 32.499v272c0 12 -0.166992 23.833 -0.5 35.5s-2.16602 22 -5.49902 31s-9.16602 16.333 -17.499 22s-20.5 8.5 -36.5 8.5v31c16 0 28.167 3.5 36.5 10.5s14.166 15.667 17.499 26
s5.16602 21.166 5.49902 32.499s0.5 21.333 0.5 30v262c0 15.333 5.5 26.333 16.5 33s23.833 10 38.5 10h41v48h-85c-23.333 0 -42.5 -8 -57.5 -24s-22.5 -38.333 -22.5 -67v-262c0 -29.333 -4 -51.833 -12 -67.5s-20.667 -23.5 -38 -23.5h-25v-48h25
c10 0 18.333 -2.5 25 -7.5s11.834 -11.667 15.501 -20s6.16699 -18.166 7.5 -29.499s2 -23 2 -35v-268c0 -33.333 8 -56.5 24 -69.5s34.667 -19.5 56 -19.5h85z" />
    <glyph glyph-name="bar" unicode="|" horiz-adv-x="255" 
d="M156 -127v877h-57v-877h57z" />
    <glyph glyph-name="braceright" unicode="}" horiz-adv-x="389" 
d="M344 288l-0.000976562 47.999h-25c-17.333 0 -30 7.83301 -38 23.5s-12 38.167 -12 67.5v262c0 28.667 -7.5 51 -22.5 67s-34.167 24 -57.5 24h-85v-48h41c14.667 0 27.5 -3.33301 38.5 -10s16.5 -17.667 16.5 -33v-262c0 -8.66699 0.166992 -18.667 0.5 -30
s2.16602 -22.166 5.49902 -32.499s9.16602 -19 17.499 -26s20.5 -10.5 36.5 -10.5v-31c-16 0 -28.167 -2.83301 -36.5 -8.5s-14.166 -13 -17.499 -22s-5.16602 -19.333 -5.49902 -31s-0.5 -23.5 -0.5 -35.5v-272c0 -15.333 -5 -26.166 -15 -32.499s-23.333 -9.5 -40 -9.5
h-41v-47h85c10.667 0 20.834 1.5 30.501 4.5s18.167 8 25.5 15s13.166 16.167 17.499 27.5s6.5 25.333 6.5 42v268c0 12 0.666992 23.667 2 35s3.83301 21.166 7.5 29.499s8.83398 15 15.501 20s15 7.5 25 7.5h25z" />
    <glyph glyph-name="asciitilde" unicode="~" 
d="M575 322l-36.001 79c-22 -24 -40.167 -41.5 -54.5 -52.5s-27.5 -16.5 -39.5 -16.5c-20.667 0 -42.167 4.5 -64.5 13.5s-42.166 18.167 -59.499 27.5c-19.333 10 -42.5 19.333 -69.5 28s-55.5 13 -85.5 13s-56.167 -7.33301 -78.5 -22s-41.166 -32.334 -56.499 -53.001
l15 -32c5.33301 -11.333 12 -26.666 20 -45.999c6.66699 6 13.667 13 21 21s15.166 15.5 23.499 22.5s17.166 13 26.499 18s19 7.5 29 7.5c22.667 0 45.334 -4.33301 68.001 -13s43.667 -18 63 -28s41.833 -19.333 67.5 -28s52.5 -13 80.5 -13c24 0 47.5 7.33301 70.5 22
s42.833 32 59.5 52z" />
    <glyph glyph-name="exclamdown" unicode="&#xa1;" horiz-adv-x="325" 
d="M128 0l-18 508h-64l-19 -508h101zM129 598v102h-102v-102h102z" />
    <glyph glyph-name="cent" unicode="&#xa2;" horiz-adv-x="476" 
d="M451 1l0.00195312 57c-33.333 -6 -65 -9 -95 -9c-68 -1.33301 -122.167 16.834 -162.5 54.501s-60.5 93.5 -60.5 167.5c0 37.333 5.83301 69 17.5 95s27.5 47.333 47.5 64s43.5 28.667 70.5 36s55.833 11 86.5 11c33.333 -1.33301 63.666 -4.66602 90.999 -9.99902v58
c-18.667 3.33301 -36.5 5.83301 -53.5 7.5s-37.167 2.83398 -60.5 3.50098v92h-56v-95c-32.667 -4 -62.834 -12.667 -90.501 -26s-51.5 -31 -71.5 -53s-35.667 -48.167 -47 -78.5s-17 -64.5 -17 -102.5c0 -42.667 5.33301 -80.334 16 -113.001s26 -60.834 46 -84.501
s43.833 -42.334 71.5 -56.001s58.5 -22.834 92.5 -27.501v-94h56v91c20 0 39.833 0.833008 59.5 2.5s39.5 4.83398 59.5 9.50098z" />
    <glyph glyph-name="sterling" unicode="&#xa3;" horiz-adv-x="591" 
d="M541 700c-13.333 3.33301 -31.501 6.66895 -54.501 10.002s-50.167 5 -81.5 5c-54 0 -96.167 -6.5 -126.5 -19.5s-52.666 -29.667 -66.999 -50s-23 -42.833 -26 -67.5s-4.5 -48.334 -4.5 -71.001v-109h-101v-57h101v-227c0 -18 -3.66699 -31.833 -11 -41.5
s-20.666 -14.5 -39.999 -14.5h-50v-58h458v58h-278v283h155v57h-155v107c0 25.333 2 47.5 6 66.5s12 34.667 24 47s28.833 21.666 50.5 27.999s50.167 9.5 85.5 9.5c24 0 45.667 -1.33301 65 -4s35.666 -5.66699 48.999 -9z" />
    <glyph glyph-name="currency" unicode="&#xa4;" horiz-adv-x="627" 
d="M612 3v63.002c-19.333 -4 -39 -7.16699 -59 -9.5s-44.333 -3.5 -73 -3.5c-76 0 -136.333 18.167 -181 54.5s-74.334 86.166 -89.001 149.499h255l24 60h-287c-0.666992 5.33301 -1 10.666 -1 15.999v18v22c0 7.33301 0.666992 14.666 2 21.999h315l24 60h-329
c16 59.333 46.167 106.166 90.5 140.499s103.833 51.5 178.5 51.5c16 0 29.833 -0.333008 41.5 -1s22.334 -1.66699 32.001 -3l28 -4c9 -1.33301 18.5 -3 28.5 -5v65c-23.333 5.33301 -47 8.66602 -71 9.99902s-48.667 2 -74 2c-90 0 -164.667 -22.5 -224 -67.5
s-98.333 -107.833 -117 -188.5h-92l-24 -60h107c-0.666992 -7.33301 -1.16699 -14.666 -1.5 -21.999s-0.5 -14.666 -0.5 -21.999v-18c0 -5.33301 0.333008 -10.666 1 -15.999h-82l-24 -60h114c8 -42 21.833 -79.667 41.5 -113s44 -61.5 73 -84.5s62.333 -40.5 100 -52.5
s78.834 -18 123.501 -18c28 0 53.667 0.833008 77 2.5s47.666 5.5 72.999 11.5z" />
    <glyph glyph-name="yen" unicode="&#xa5;" horiz-adv-x="588" 
d="M548 700h-83l-160 -317h-8l-159 317h-98l190 -343h-144v-53h168v-76h-168v-53h167v-175h80v175h166v53h-167v76h167v53h-143z" />
    <glyph glyph-name="brokenbar" unicode="&#xa6;" horiz-adv-x="255" 
d="M157 374v376h-59v-376h59zM157 -127v376h-59v-376h59z" />
    <glyph glyph-name="section" unicode="&#xa7;" horiz-adv-x="573" 
d="M504 319c0 37.333 -8.16699 66.833 -24.5 88.5s-36.666 39 -60.999 52s-50.833 23.167 -79.5 30.5s-55.167 15.5 -79.5 24.5s-44.666 20.333 -60.999 34s-24.5 32.834 -24.5 57.501c0 18 4.33301 32.667 13 44s20.334 20.333 35.001 27s31.5 11.167 50.5 13.5
s38.5 3.5 58.5 3.5c6 0 14.833 -0.5 26.5 -1.5s23.667 -2.33301 36 -4s24.166 -3.66699 35.499 -6s20 -4.5 26 -6.5v59c-14 3.33301 -32.667 6.83301 -56 10.5s-49.666 5.5 -78.999 5.5c-32.667 0 -62.334 -3.33301 -89.001 -10s-49.667 -16.5 -69 -29.5
s-34.333 -29.167 -45 -48.5s-16 -41.666 -16 -66.999c0 -35.333 8.66699 -63.333 26 -84s44.333 -38.667 81 -54v-11c-46.667 -11.333 -81.334 -30.333 -104.001 -57s-34 -60.334 -34 -101.001c0 -36 8.16699 -65 24.5 -87s36.666 -39.833 60.999 -53.5
s50.833 -24.667 79.5 -33s55.167 -17.333 79.5 -27s44.666 -21.167 60.999 -34.5s24.5 -31.666 24.5 -54.999c0 -18 -4.33301 -33.167 -13 -45.5s-20.167 -22 -34.5 -29s-30.833 -12 -49.5 -15s-37.667 -4.5 -57 -4.5c-26 0 -52.167 2.66699 -78.5 8
s-48.166 10.666 -65.499 15.999v-60c14 -3.33301 33.667 -7.5 59 -12.5s56.666 -7.5 93.999 -7.5c46 0 83.5 5.16699 112.5 15.5s51.833 23.333 68.5 39s28.167 32.834 34.5 51.501s9.5 36 9.5 52c0 35.333 -9.83301 63.666 -29.5 84.999s-50.5 39.666 -92.5 54.999v10
c30.667 8.66699 55.5 19.667 74.5 33s33.833 27.5 44.5 42.5s17.834 30.167 21.501 45.5s5.5 29 5.5 41zM431 312c0 -21.333 -4.83398 -39.3301 -14.501 -53.9971s-22.167 -26.834 -37.5 -36.501s-32.333 -17.5 -51 -23.5s-36.667 -10.333 -54 -13
c-14.667 4 -29.667 8.83301 -45 14.5s-29.333 12.5 -42 20.5s-23.167 17.833 -31.5 29.5s-12.5 25.5 -12.5 41.5c0 24 4.83301 44 14.5 60s22.167 29 37.5 39s32.333 17.667 51 23s37 9 55 11c18 -5.33301 35 -11 51 -17s29.833 -13.333 41.5 -22
s20.834 -18.834 27.501 -30.501s10 -25.834 10 -42.501z" />
    <glyph glyph-name="dieresis" unicode="&#xa8;" horiz-adv-x="283" 
d="M281 661v90h-91v-91zM80 660v91h-90v-91h90z" />
    <glyph glyph-name="copyright" unicode="&#xa9;" horiz-adv-x="862" 
d="M792 350c0 50 -9.5 96.833 -28.5 140.5s-44.833 81.834 -77.5 114.501s-70.834 58.5 -114.501 77.5s-90.5 28.5 -140.5 28.5s-96.833 -9.5 -140.5 -28.5s-81.834 -44.833 -114.501 -77.5s-58.5 -70.834 -77.5 -114.501s-28.5 -90.5 -28.5 -140.5s9.5 -96.833 28.5 -140.5
s44.833 -81.834 77.5 -114.501s70.834 -58.5 114.501 -77.5s90.5 -28.5 140.5 -28.5s96.833 9.5 140.5 28.5s81.834 44.833 114.501 77.5s58.5 70.834 77.5 114.501s28.5 90.5 28.5 140.5zM735 349c0 -42 -8 -81.5 -24 -118.5s-37.667 -69.167 -65 -96.5
s-59.5 -49 -96.5 -65s-76.5 -24 -118.5 -24s-81.5 8 -118.5 24s-69.167 37.667 -96.5 65s-49 59.5 -65 96.5s-24 76.5 -24 118.5s8 81.5 24 118.5s37.667 69.167 65 96.5s59.5 49 96.5 65s76.5 24 118.5 24s81.5 -8 118.5 -24s69.167 -37.667 96.5 -65s49 -59.5 65 -96.5
s24 -76.5 24 -118.5zM547 225c-8.66699 -2 -16.1689 -3.83398 -22.502 -5.50098s-12.666 -3 -18.999 -4s-13 -1.83301 -20 -2.5s-14.833 -1 -23.5 -1c-19.333 0 -37.5 3.5 -54.5 10.5s-31.667 16.833 -44 29.5s-22 27.667 -29 45s-10.5 36.333 -10.5 57
c0 41.333 12.333 75.5 37 102.5s58 40.5 100 40.5c18.667 0 34 -0.666992 46 -2s25.667 -3.33301 41 -6v49c-16 4 -31.667 6.83301 -47 8.5s-31.666 2.5 -48.999 2.5c-60.667 0 -108.5 -17.833 -143.5 -53.5s-52.5 -83.5 -52.5 -143.5c0 -29.333 4.5 -56.166 13.5 -80.499
s22 -45 39 -62s37.667 -30.167 62 -39.5s51.5 -14 81.5 -14c33.333 0 65 5 95 15v54z" />
    <glyph glyph-name="ordfeminine" unicode="&#xaa;" horiz-adv-x="460" 
d="M360 407l-0.000976562 206.001c0 22 -3.16699 39.5 -9.5 52.5s-15.5 23 -27.5 30s-26.5 11.5 -43.5 13.5s-35.833 3 -56.5 3c-17.333 0 -34.666 -1 -51.999 -3s-35 -4.66699 -53 -8v-44c16 2.66699 32.5 5.16699 49.5 7.5s33.5 3.5 49.5 3.5
c20.667 0 36.667 -1.16699 48 -3.5s19.833 -6.33301 25.5 -12s9.16699 -13.5 10.5 -23.5s2 -23 2 -39c-10 0 -18.833 0.166992 -26.5 0.5s-15.167 0.5 -22.5 0.5c-15.333 0 -32.166 -0.5 -50.499 -1.5s-35.333 -4.33301 -51 -10s-28.834 -14.834 -39.501 -27.501
s-16 -30.667 -16 -54c0 -20 3.16699 -36.5 9.5 -49.5s15.333 -23 27 -30s25.667 -11.833 42 -14.5s34.166 -4 53.499 -4c20.667 0 41.334 0.5 62.001 1.5s43.667 2.83301 69 5.5zM380.999 296.001v51h-301v-51h301zM302.999 444.001
c-14.667 -1.33301 -25.668 -2.16699 -33.001 -2.5s-14.666 -0.5 -21.999 -0.5c-11.333 0 -22.5 0.5 -33.5 1.5s-20.833 3.5 -29.5 7.5s-15.5 9.66699 -20.5 17s-7.5 17 -7.5 29c0 22 8.5 36.5 25.5 43.5s40.5 10.5 70.5 10.5c4 0 10.333 -0.333008 19 -1s19 -1 31 -1v-104z
" />
    <glyph glyph-name="guillemotleft" unicode="&#xab;" horiz-adv-x="571" 
d="M465 525h-77l-114 -232l114 -233h77l-104 233zM275 525h-77l-114 -232l114 -233h77l-104 233z" />
    <glyph glyph-name="logicalnot" unicode="&#xac;" horiz-adv-x="595" 
d="M535 114v313h-495v-53h417v-260h78z" />
    <glyph glyph-name="registered" unicode="&#xae;" horiz-adv-x="862" 
d="M792 350c0 50 -9.5 96.833 -28.5 140.5s-44.833 81.834 -77.5 114.501s-70.834 58.5 -114.501 77.5s-90.5 28.5 -140.5 28.5s-96.833 -9.5 -140.5 -28.5s-81.834 -44.833 -114.501 -77.5s-58.5 -70.834 -77.5 -114.501s-28.5 -90.5 -28.5 -140.5s9.5 -96.833 28.5 -140.5
s44.833 -81.834 77.5 -114.501s70.834 -58.5 114.501 -77.5s90.5 -28.5 140.5 -28.5s96.833 9.5 140.5 28.5s81.834 44.833 114.501 77.5s58.5 70.834 77.5 114.501s28.5 90.5 28.5 140.5zM735 349c0 -42 -8 -81.5 -24 -118.5s-37.667 -69.167 -65 -96.5
s-59.5 -49 -96.5 -65s-76.5 -24 -118.5 -24s-81.5 8 -118.5 24s-69.167 37.667 -96.5 65s-49 59.5 -65 96.5s-24 76.5 -24 118.5s8 81.5 24 118.5s37.667 69.167 65 96.5s59.5 49 96.5 65s76.5 24 118.5 24s81.5 -8 118.5 -24s69.167 -37.667 96.5 -65s49 -59.5 65 -96.5
s24 -76.5 24 -118.5zM597 165l-112 155.002c32 10.667 54.5 25.667 67.5 45s19.5 40.666 19.5 63.999c0 41.333 -12.5 70.666 -37.5 87.999s-58.833 26 -101.5 26h-131v-378h61v147h60l97 -147h77zM507 428.002c0 -26.667 -7.5 -45.333 -22.5 -56s-35.5 -16 -61.5 -16h-60
v143h60c26 0 46.5 -5 61.5 -15s22.5 -28.667 22.5 -56z" />
    <glyph glyph-name="macron" unicode="&#xaf;" horiz-adv-x="388" 
d="M331 675v60h-274v-60h274z" />
    <glyph glyph-name="degree" unicode="&#xb0;" horiz-adv-x="459" 
d="M384 580c0 23.333 -4.5 45.333 -13.5 66s-21.167 38.667 -36.5 54s-33.333 27.5 -54 36.5s-42.667 13.5 -66 13.5s-45.333 -4.5 -66 -13.5s-38.667 -21.167 -54 -36.5s-27.5 -33.333 -36.5 -54s-13.5 -42.667 -13.5 -66s4.5 -45.333 13.5 -66s21.167 -38.667 36.5 -54
s33.333 -27.5 54 -36.5s42.667 -13.5 66 -13.5s45.333 4.5 66 13.5s38.667 21.167 54 36.5s27.5 33.333 36.5 54s13.5 42.667 13.5 66zM331 580c0 -16 -3.16699 -31.167 -9.5 -45.5s-14.666 -26.666 -24.999 -36.999s-22.666 -18.666 -36.999 -24.999s-29.5 -9.5 -45.5 -9.5
s-31.167 3.16699 -45.5 9.5s-26.666 14.666 -36.999 24.999s-18.666 22.666 -24.999 36.999s-9.5 29.5 -9.5 45.5s3.16699 31.167 9.5 45.5s14.666 26.666 24.999 36.999s22.666 18.666 36.999 24.999s29.5 9.5 45.5 9.5s31.167 -3.16699 45.5 -9.5
s26.666 -14.666 36.999 -24.999s18.666 -22.666 24.999 -36.999s9.5 -29.5 9.5 -45.5z" />
    <glyph glyph-name="plusminus" unicode="&#xb1;" 
d="M583 355v71h-244v241h-72v-241h-244v-71h244v-242h72v242h244zM583 0v63h-560v-63h560z" />
    <glyph glyph-name="twosuperior" unicode="&#xb2;" horiz-adv-x="415" 
d="M347 349l-0.000976562 57.001l-206 -3v12l62 35.5c23.333 13 45.333 27.5 66 43.5s38.167 33.667 52.5 53s21.5 40.333 21.5 63c0 21.333 -4.83301 39 -14.5 53s-22 25 -37 33s-31.667 13.667 -50 17s-36.5 5 -54.5 5c-17.333 0 -34.166 -1 -50.499 -3
s-32.833 -4.66699 -49.5 -8v-58c16.667 3.33301 33 6.16602 49 8.49902s32.333 3.5 49 3.5c9.33301 0 19 -0.833008 29 -2.5s19 -4.5 27 -8.5s14.667 -9.66699 20 -17s8 -16.333 8 -27c0 -17.333 -6 -33.333 -18 -48s-27.667 -29 -47 -43s-41 -28.167 -65 -42.5l-71 -44.5
v-79h279z" />
    <glyph glyph-name="threesuperior" unicode="&#xb3;" horiz-adv-x="407" 
d="M337 454c0 12.667 -2.83301 23.8369 -8.5 33.5039s-12.834 17.667 -21.501 24s-18.5 11.5 -29.5 15.5s-21.5 6.66699 -31.5 8v12c20.667 5.33301 39.167 14.166 55.5 26.499s24.5 29.5 24.5 51.5c0 17.333 -4.16699 32 -12.5 44s-19.333 21.667 -33 29s-29 12.5 -46 15.5
s-33.833 4.5 -50.5 4.5c-21.333 0 -40.833 -1 -58.5 -3s-36.5 -5.33301 -56.5 -10v-53c16.667 3.33301 33.334 6.5 50.001 9.5s33.667 4.5 51 4.5c25.333 0 45.5 -2.83301 60.5 -8.5s22.5 -18.167 22.5 -37.5s-9 -33.333 -27 -42s-46.667 -13.334 -86 -14.001v-52
c37.333 0 67 -3.66699 89 -11s33 -22.333 33 -45c0 -13.333 -3.16699 -24 -9.5 -32s-14.5 -14 -24.5 -18s-21.167 -6.5 -33.5 -7.5s-24.5 -1.5 -36.5 -1.5c-15.333 0 -30.5 1.16699 -45.5 3.5s-32.5 6.16602 -52.5 11.499v-56c22 -4.66699 43.333 -7.83398 64 -9.50098
s37 -2.5 49 -2.5c18 0 36.667 1.83301 56 5.5s37 9.66699 53 18s29.167 19.5 39.5 33.5s15.5 31.667 15.5 53z" />
    <glyph glyph-name="acute" unicode="&#xb4;" horiz-adv-x="264" 
d="M217 750h-103l-77 -146h51z" />
    <glyph glyph-name="mu" unicode="&#xb5;" horiz-adv-x="595" 
d="M517 -1l-0.000976562 526h-77v-233c0 -43.333 -5.16699 -79.5 -15.5 -108.5s-24.333 -52.333 -42 -70s-38.667 -30.334 -63 -38.001s-50.5 -11.5 -78.5 -11.5c-10.667 0 -22.5 1 -35.5 3s-29.5 3.66699 -49.5 5v453h-78v-745h78v227
c24 -1.33301 41.833 -2.66602 53.5 -3.99902s23.5 -2 35.5 -2h41c16.667 0 34.334 2.5 53.001 7.5s37.5 13.5 56.5 25.5s36.833 30.333 53.5 55l4 -90h64z" />
    <glyph glyph-name="paragraph" unicode="&#xb6;" horiz-adv-x="537" 
d="M434 -125l0.00195312 825h-271c-12 0 -25.333 -1.66699 -40 -5s-28.334 -9.5 -41.001 -18.5s-23.334 -21.5 -32.001 -37.5s-13 -36.333 -13 -61c0 -27.333 4.83301 -49.166 14.5 -65.499s21.5 -28.833 35.5 -37.5s28.833 -14.334 44.5 -17.001s29.167 -4 40.5 -4v-579h59
v777h146v-777h57z" />
    <glyph glyph-name="periodcentered" unicode="&#xb7;" 
d="M358 288v110h-110v-110h110z" />
    <glyph glyph-name="periodcentered" unicode="&#x2219;" 
d="M358 288v110h-110v-110h110z" />
    <glyph glyph-name="cedilla" unicode="&#xb8;" horiz-adv-x="296" 
d="M278 -132c0 22 -6.83496 40.5 -20.502 55.5s-32.5 22.5 -56.5 22.5c-14 0 -25.167 -0.666992 -33.5 -2s-16.166 -3.66602 -23.499 -6.99902l-2 3l55 65h-66l-40 -82l14 -27c8 3.33301 17.333 5.83301 28 7.5s19 2.5 25 2.5c2 0 5.83301 -0.166992 11.5 -0.5
s11.5 -1.83301 17.5 -4.5s11.333 -6.5 16 -11.5s7 -12.167 7 -21.5c0 -10 -2.5 -18.167 -7.5 -24.5s-11.5 -11.333 -19.5 -15s-16.833 -6.16699 -26.5 -7.5s-18.834 -2 -27.501 -2c-11.333 0 -22.166 1.16699 -32.499 3.5s-21.833 5.83301 -34.5 10.5l-14 -41
c14 -6 29.333 -10.667 46 -14s37.334 -5 62.001 -5c15.333 0 30.333 1.33301 45 4s27.667 7.5 39 14.5s20.5 16.667 27.5 29s10.5 28.166 10.5 47.499z" />
    <glyph glyph-name="onesuperior" unicode="&#xb9;" horiz-adv-x="402" 
d="M334 348v57h-94v314l-155 -14v-51h90v-249h-90v-57h249z" />
    <glyph glyph-name="ordmasculine" unicode="&#xba;" horiz-adv-x="461" 
d="M381 557c0 48 -13.166 85.668 -39.499 113.001s-63.166 41 -110.499 41c-48 0 -85.167 -13.667 -111.5 -41s-39.5 -65 -39.5 -113c0 -46.667 13.167 -84.667 39.5 -114s63.5 -44 111.5 -44c22 0 42.167 3.83301 60.5 11.5s34.166 18.5 47.499 32.5
s23.666 30.667 30.999 50s11 40.666 11 63.999zM320.001 557.001c0 -35.333 -7.33301 -63.5 -22 -84.5s-37 -31.5 -67 -31.5s-52.5 10.5 -67.5 31.5s-22.5 49.167 -22.5 84.5s7.5 62.833 22.5 82.5s37.5 29.5 67.5 29.5c29.333 0 51.5 -9.83301 66.5 -29.5
s22.5 -47.167 22.5 -82.5zM381.001 296.001v51h-301v-51h301z" />
    <glyph glyph-name="guillemotright" unicode="&#xbb;" horiz-adv-x="571" 
d="M465 293l-114 232h-77l104 -232l-104 -233h77zM275 293l-114 232h-77l104 -232l-104 -233h77z" />
    <glyph glyph-name="onequarter" unicode="&#xbc;" horiz-adv-x="940" 
d="M744 710l-47 31l-503 -748l47 -30zM822 385h-84l-225 -249v-70h236v-68h65v253h-21l-44 -50v-83h-167zM338 348v57h-94v314l-155 -14v-51h90v-249h-90v-57h249z" />
    <glyph glyph-name="onehalf" unicode="&#xbd;" horiz-adv-x="940" 
d="M744 710l-47 31l-503 -748l47 -30zM851 1v55.999l-206 -3v12l62 35.5c23.333 13 45.333 27.5 66 43.5s38.167 33.667 52.5 53s21.5 40.333 21.5 63c0 22 -4.83301 40 -14.5 54s-22 25 -37 33s-31.667 13.5 -50 16.5s-36.5 4.5 -54.5 4.5c-32 0 -65.333 -3.66699 -100 -11
v-58c16.667 3.33301 33 6.33301 49 9s32.667 4 50 4c8.66699 0 18 -0.833008 28 -2.5s19 -4.5 27 -8.5s14.667 -9.66699 20 -17s8 -16.666 8 -27.999c0 -16.667 -6 -32.5 -18 -47.5s-27.667 -29.5 -47 -43.5s-40.833 -28.167 -64.5 -42.5l-71.5 -44.5v-78h279zM338 347.999
v57h-94v314l-155 -14v-51h90v-249h-90v-57h249z" />
    <glyph glyph-name="threequarters" unicode="&#xbe;" horiz-adv-x="940" 
d="M744 710l-47 31l-503 -748l47 -30zM822 385h-84l-225 -249v-70h236v-68h65v253h-21l-44 -50v-83h-167zM349 454c0 12.667 -2.83008 23.8369 -8.49707 33.5039s-12.834 17.667 -21.501 24s-18.5 11.5 -29.5 15.5s-21.5 6.66699 -31.5 8v12
c20 5.33301 38.333 14.166 55 26.499s25 29.5 25 51.5c0 17.333 -4.16699 32 -12.5 44s-19.333 21.667 -33 29s-29 12.5 -46 15.5s-33.833 4.5 -50.5 4.5c-21.333 0 -40.833 -1 -58.5 -3s-36.5 -5.33301 -56.5 -10l-1 -53l51 9.5c16.667 3 33.667 4.5 51 4.5
c24.667 0 44.667 -2.83301 60 -8.5s23 -18.167 23 -37.5s-9 -33.333 -27 -42s-46.667 -13.334 -86 -14.001v-52c37.333 0 67 -3.66699 89 -11s33 -22.333 33 -45c0 -13.333 -3.16699 -24 -9.5 -32s-14.5 -14 -24.5 -18s-21.167 -6.5 -33.5 -7.5s-24.5 -1.5 -36.5 -1.5
c-15.333 0 -30.5 1.16699 -45.5 3.5s-32.5 6.16602 -52.5 11.499v-56c22 -4.66699 43.333 -7.83398 64 -9.50098s36.667 -2.5 48 -2.5c18 0 36.667 1.83301 56 5.5s37.166 9.66699 53.499 18s29.666 19.5 39.999 33.5s15.5 31.667 15.5 53z" />
    <glyph glyph-name="questiondown" unicode="&#xbf;" horiz-adv-x="538" 
d="M447 -166v74.998c-28 -5.33301 -55 -10.166 -81 -14.499s-47.333 -6.5 -64 -6.5c-15.333 0.666992 -30.5 2.83398 -45.5 6.50098s-28.5 9.33398 -40.5 17.001s-21.833 17.834 -29.5 30.501s-11.5 28.334 -11.5 47.001c0 21.333 6 40.5 18 57.5s25 33.833 39 50.5
l37.5 40.5c11.667 12.333 21.834 25.166 30.501 38.499s15.5 28.166 20.5 44.499s7.5 35.833 7.5 58.5v55h-72v-31c0 -13.333 -0.833008 -25.833 -2.5 -37.5s-5.33398 -23.334 -11.001 -35.001s-14 -23.834 -25 -36.501s-25.5 -27 -43.5 -43
c-12.667 -11.333 -25 -23 -37 -35s-22.5 -25 -31.5 -39s-16.167 -29 -21.5 -45s-8 -33.333 -8 -52c0 -34 7.16699 -61.833 21.5 -83.5s32.5 -38.667 54.5 -51s46 -20.666 72 -24.999s51 -6.5 75 -6.5c18.667 0 42 1.66699 70 5s54 8.33301 78 15zM338 422.998v102h-102v-102
h102z" />
    <glyph glyph-name="Agrave" unicode="&#xc0;" horiz-adv-x="632" 
d="M632 0l-258 700h-115l-259 -700h83l64 184h330l64 -184h91zM456 245h-288l137 393h13zM360 749l-81 131h-108l136 -131h53z" />
    <glyph glyph-name="Aacute" unicode="&#xc1;" horiz-adv-x="632" 
d="M632 0l-258 700h-115l-259 -700h83l64 184h330l64 -184h91zM456 245h-288l137 393h13zM452 894h-104l-76 -146h50z" />
    <glyph glyph-name="Acircumflex" unicode="&#xc2;" horiz-adv-x="632" 
d="M632 0l-258 700h-115l-259 -700h83l64 184h330l64 -184h91zM456 245h-288l137 393h13zM465 750l-102 157h-106l-108 -157h60l99 124l97 -124h60z" />
    <glyph glyph-name="Atilde" unicode="&#xc3;" horiz-adv-x="632" 
d="M632 0l-258 700h-115l-259 -700h83l64 184h330l64 -184h91zM456 245h-288l137 393h13zM464 913l-35.0029 -0.000976562c-2 -15.333 -6.5 -27.666 -13.5 -36.999s-17.167 -14 -30.5 -14c-9.33301 0 -19.333 2.33301 -30 7s-22.167 10 -34.5 16s-25.166 11.333 -38.499 16
s-27.333 7 -42 7c-25.333 0 -45.166 -9.66699 -59.499 -29s-22.5 -46.333 -24.5 -81h36c2 14.667 6.33301 27 13 37s17.334 15 32.001 15c8.66699 0 18.167 -2.5 28.5 -7.5l33.5 -16c12 -5.66699 25.167 -11 39.5 -16s29.5 -7.5 45.5 -7.5c23.333 0 42 9.83301 56 29.5
s22 46.5 24 80.5z" />
    <glyph glyph-name="Adieresis" unicode="&#xc4;" horiz-adv-x="632" 
d="M632 0l-258 700h-115l-259 -700h83l64 184h330l64 -184h91zM456 245h-288l137 393h13zM458 781v90h-91v-91zM257 780v91h-90v-91h90z" />
    <glyph glyph-name="Aring" unicode="&#xc5;" horiz-adv-x="632" 
d="M632 0l-256.999 698c18 7.33301 32.167 18 42.5 32s15.5 31.333 15.5 52c0 30 -10.333 53.167 -31 69.5s-49.334 24.5 -86.001 24.5c-34 0 -61.833 -7.66699 -83.5 -23s-32.5 -39 -32.5 -71c0 -20.667 5.16699 -38 15.5 -52s24.833 -24.667 43.5 -32l-259 -698h83l64 184
h330l64 -184h91zM456.001 245h-288l137 393h13zM377.001 781c0 -9.33301 -1.83301 -17.334 -5.5 -24.001s-8.5 -12 -14.5 -16s-12.667 -7 -20 -9s-14.333 -3 -21 -3c-16 0 -30 4.5 -42 13.5s-18 22.167 -18 39.5s6 30.5 18 39.5s26 13.5 42 13.5
c15.333 0 29.333 -4.16699 42 -12.5s19 -22.166 19 -41.499z" />
    <glyph glyph-name="AE" unicode="&#xc6;" horiz-adv-x="762" 
d="M732 0v64h-279v263h217v62h-217v248h272v63h-454l-271 -700h85l65 179h223v-179h359zM373 240h-200l147 397h53v-397z" />
    <glyph glyph-name="Ccedilla" unicode="&#xc7;" horiz-adv-x="567" 
d="M552 3v63.001c-19.333 -4 -39 -7.16699 -59 -9.5s-44.333 -3.5 -73 -3.5c-46.667 0 -87.334 7 -122.001 21s-63.667 34 -87 60s-40.833 57.333 -52.5 94s-17.5 77.667 -17.5 123c0 44 5.83301 84.167 17.5 120.5s29.167 67.5 52.5 93.5s52.5 46.167 87.5 60.5
s76.167 21.5 123.5 21.5c16 0 29.833 -0.333008 41.5 -1s22.334 -1.66699 32.001 -3l28 -4c9 -1.33301 18.5 -3 28.5 -5v65c-23.333 5.33301 -47 8.66602 -71 9.99902s-48.667 2 -74 2c-53.333 0 -101.666 -8.33301 -144.999 -25s-80.333 -40.5 -111 -71.5
s-54.334 -68.667 -71.001 -113s-25 -94.5 -25 -150.5c0 -50 6.5 -95.5 19.5 -136.5s31.667 -76.833 56 -107.5s53.833 -55.5 88.5 -74.5s73.334 -31.833 116.001 -38.5l-34 -69l14 -27c8.66699 3.33301 18.167 5.83301 28.5 7.5s18.5 2.5 24.5 2.5
c2 0 5.83301 -0.166992 11.5 -0.5s11.5 -1.83301 17.5 -4.5s11.333 -6.5 16 -11.5s7 -12.167 7 -21.5c0 -10 -2.5 -18.167 -7.5 -24.5s-11.5 -11.333 -19.5 -15s-16.833 -6.16699 -26.5 -7.5s-18.834 -2 -27.501 -2c-11.333 0 -22 1.16699 -32 3.5s-21.667 5.83301 -35 10.5
l-14 -41c14 -6 29.5 -10.667 46.5 -14s37.5 -5 61.5 -5c15.333 0 30.333 1.33301 45 4s27.834 7.5 39.501 14.5s21 16.667 28 29s10.5 28.166 10.5 47.499c0 22 -7 40.5 -21 55.5s-33 22.5 -57 22.5c-13.333 0 -24.333 -0.666992 -33 -2s-16.667 -3.66602 -24 -6.99902l-1 3
l39 47h10c28 -0.666992 53.667 0 77 2s47.666 6 72.999 12z" />
    <glyph glyph-name="Egrave" unicode="&#xc8;" horiz-adv-x="534" 
d="M504 0v64h-339v263h254v63h-254v247h334v63h-415v-700h420zM347 748l-77 146h-103l130 -146h50z" />
    <glyph glyph-name="Eacute" unicode="&#xc9;" horiz-adv-x="534" 
d="M504 0v64h-339v263h254v63h-254v247h334v63h-415v-700h420zM415 894h-104l-76 -146h50z" />
    <glyph glyph-name="Ecircumflex" unicode="&#xca;" horiz-adv-x="534" 
d="M504 0v64h-339v263h254v63h-254v247h334v63h-415v-700h420zM450 750l-102 157h-106l-108 -157h60l99 124l97 -124h60z" />
    <glyph glyph-name="Edieresis" unicode="&#xcb;" horiz-adv-x="534" 
d="M504 0v64h-339v263h254v63h-254v247h334v63h-415v-700h420zM239 778v91h-90v-91h90zM439 779v90h-90v-91z" />
    <glyph glyph-name="Igrave" unicode="&#xcc;" horiz-adv-x="248" 
d="M164 0v700h-83v-700h83zM160 750l-77 146h-103l130 -146h50z" />
    <glyph glyph-name="Iacute" unicode="&#xcd;" horiz-adv-x="246" 
d="M167 0v700h-83v-700h83zM266 894h-103l-77 -146h50z" />
    <glyph glyph-name="Icircumflex" unicode="&#xce;" horiz-adv-x="246" 
d="M167 0v700h-83v-700h83zM281 750l-102 157h-107l-107 -157h60l99 124l97 -124h60z" />
    <glyph glyph-name="Idieresis" unicode="&#xcf;" horiz-adv-x="270" 
d="M167 0v700h-83v-700h83zM80 780v91h-90v-91h90zM280 781v90h-90v-91z" />
    <glyph glyph-name="Eth" unicode="&#xd0;" horiz-adv-x="727" 
d="M672 350c0 68 -8.16699 124.5 -24.5 169.5s-38.833 80.833 -67.5 107.5s-62.5 45.5 -101.5 56.5s-81.167 16.5 -126.5 16.5h-237v-320h-91v-62h91v-318h234c46 0 88.667 6 128 18s73.5 31.667 102.5 59s51.667 63.333 68 108s24.5 99.667 24.5 165zM585 350
c0 -63.333 -7.33203 -114 -21.999 -152s-34.334 -67 -59.001 -87s-53 -33 -85 -39s-65.333 -9 -100 -9h-120v255h190v62h-190v257h118c34.667 0 68.167 -3 100.5 -9s60.833 -19 85.5 -39s44.5 -49 59.5 -87s22.5 -88.667 22.5 -152z" />
    <glyph glyph-name="Ntilde" unicode="&#xd1;" horiz-adv-x="709" 
d="M625 700h-71l3 -616h-6l-348 616h-118l-1 -700h71l-4 624h6l350 -624h117zM520 914h-38.001c-2 -16 -6.5 -29 -13.5 -39s-17.833 -15 -32.5 -15c-9.33301 0 -19.666 2.5 -30.999 7.5s-23.5 10.667 -36.5 17s-26.5 12 -40.5 17s-28.667 7.5 -44 7.5
c-28 0 -49.167 -10.167 -63.5 -30.5s-22.5 -48.833 -24.5 -85.5h37c2.66699 15.333 7.33398 28.333 14.001 39s17.667 16 33 16c8.66699 0 18.5 -2.5 29.5 -7.5l36 -17c13 -6.33301 26.833 -12 41.5 -17s30.667 -7.5 48 -7.5c25.333 0 45.166 10.167 59.499 30.5
s22.833 48.5 25.5 84.5z" />
    <glyph glyph-name="Ograve" unicode="&#xd2;" horiz-adv-x="744" 
d="M690 350c0 56.667 -7.16699 107.667 -21.5 153s-35.166 83.5 -62.499 114.5s-60.666 54.833 -99.999 71.5s-84 25 -134 25s-94.667 -8.33301 -134 -25s-72.5 -40.5 -99.5 -71.5s-47.667 -69.167 -62 -114.5s-21.5 -96.333 -21.5 -153
c0 -57.333 7.16699 -108.5 21.5 -153.5s35 -83 62 -114s60.167 -54.833 99.5 -71.5s84 -25 134 -25s94.667 8.33301 134 25s72.666 40.5 99.999 71.5s48.166 69 62.499 114s21.5 96.167 21.5 153.5zM603 350c0 -55.333 -6.33301 -102.166 -19 -140.499
s-29.5 -69.5 -50.5 -93.5s-45.5 -41.333 -73.5 -52s-57.333 -16 -88 -16s-60 5.33301 -88 16s-52.5 28 -73.5 52s-37.833 55.167 -50.5 93.5s-19 85.166 -19 140.499c0 54.667 6.33301 101.167 19 139.5s29.5 69.5 50.5 93.5s45.5 41.5 73.5 52.5s57.333 16.5 88 16.5
s60 -5.5 88 -16.5s52.5 -28.5 73.5 -52.5s37.833 -55.167 50.5 -93.5s19 -84.833 19 -139.5zM428 748l-77 146h-103l130 -146h50z" />
    <glyph glyph-name="Oacute" unicode="&#xd3;" horiz-adv-x="744" 
d="M690 350c0 56.667 -7.16699 107.667 -21.5 153s-35.166 83.5 -62.499 114.5s-60.666 54.833 -99.999 71.5s-84 25 -134 25s-94.667 -8.33301 -134 -25s-72.5 -40.5 -99.5 -71.5s-47.667 -69.167 -62 -114.5s-21.5 -96.333 -21.5 -153
c0 -57.333 7.16699 -108.5 21.5 -153.5s35 -83 62 -114s60.167 -54.833 99.5 -71.5s84 -25 134 -25s94.667 8.33301 134 25s72.666 40.5 99.999 71.5s48.166 69 62.499 114s21.5 96.167 21.5 153.5zM603 350c0 -55.333 -6.33301 -102.166 -19 -140.499
s-29.5 -69.5 -50.5 -93.5s-45.5 -41.333 -73.5 -52s-57.333 -16 -88 -16s-60 5.33301 -88 16s-52.5 28 -73.5 52s-37.833 55.167 -50.5 93.5s-19 85.166 -19 140.499c0 54.667 6.33301 101.167 19 139.5s29.5 69.5 50.5 93.5s45.5 41.5 73.5 52.5s57.333 16.5 88 16.5
s60 -5.5 88 -16.5s52.5 -28.5 73.5 -52.5s37.833 -55.167 50.5 -93.5s19 -84.833 19 -139.5zM500 894h-104l-76 -146h50z" />
    <glyph glyph-name="Ocircumflex" unicode="&#xd4;" horiz-adv-x="744" 
d="M690 350c0 56.667 -7.16699 107.667 -21.5 153s-35.166 83.5 -62.499 114.5s-60.666 54.833 -99.999 71.5s-84 25 -134 25s-94.667 -8.33301 -134 -25s-72.5 -40.5 -99.5 -71.5s-47.667 -69.167 -62 -114.5s-21.5 -96.333 -21.5 -153
c0 -57.333 7.16699 -108.5 21.5 -153.5s35 -83 62 -114s60.167 -54.833 99.5 -71.5s84 -25 134 -25s94.667 8.33301 134 25s72.666 40.5 99.999 71.5s48.166 69 62.499 114s21.5 96.167 21.5 153.5zM603 350c0 -55.333 -6.33301 -102.166 -19 -140.499
s-29.5 -69.5 -50.5 -93.5s-45.5 -41.333 -73.5 -52s-57.333 -16 -88 -16s-60 5.33301 -88 16s-52.5 28 -73.5 52s-37.833 55.167 -50.5 93.5s-19 85.166 -19 140.499c0 54.667 6.33301 101.167 19 139.5s29.5 69.5 50.5 93.5s45.5 41.5 73.5 52.5s57.333 16.5 88 16.5
s60 -5.5 88 -16.5s52.5 -28.5 73.5 -52.5s37.833 -55.167 50.5 -93.5s19 -84.833 19 -139.5zM527 750l-102 157h-106l-108 -157h60l99 124l97 -124h60z" />
    <glyph glyph-name="Otilde" unicode="&#xd5;" horiz-adv-x="744" 
d="M690 350c0 56.667 -7.16699 107.667 -21.5 153s-35.166 83.5 -62.499 114.5s-60.666 54.833 -99.999 71.5s-84 25 -134 25s-94.667 -8.33301 -134 -25s-72.5 -40.5 -99.5 -71.5s-47.667 -69.167 -62 -114.5s-21.5 -96.333 -21.5 -153
c0 -57.333 7.16699 -108.5 21.5 -153.5s35 -83 62 -114s60.167 -54.833 99.5 -71.5s84 -25 134 -25s94.667 8.33301 134 25s72.666 40.5 99.999 71.5s48.166 69 62.499 114s21.5 96.167 21.5 153.5zM603 350c0 -55.333 -6.33301 -102.166 -19 -140.499
s-29.5 -69.5 -50.5 -93.5s-45.5 -41.333 -73.5 -52s-57.333 -16 -88 -16s-60 5.33301 -88 16s-52.5 28 -73.5 52s-37.833 55.167 -50.5 93.5s-19 85.166 -19 140.499c0 54.667 6.33301 101.167 19 139.5s29.5 69.5 50.5 93.5s45.5 41.5 73.5 52.5s57.333 16.5 88 16.5
s60 -5.5 88 -16.5s52.5 -28.5 73.5 -52.5s37.833 -55.167 50.5 -93.5s19 -84.833 19 -139.5zM529 914h-38.001c-2 -16 -6.5 -29 -13.5 -39s-17.833 -15 -32.5 -15c-9.33301 0 -19.666 2.5 -30.999 7.5s-23.5 10.667 -36.5 17s-26.5 12 -40.5 17s-28.667 7.5 -44 7.5
c-28 0 -49.167 -10.167 -63.5 -30.5s-22.5 -48.833 -24.5 -85.5h37c2.66699 15.333 7.33398 28.333 14.001 39s17.667 16 33 16c8.66699 0 18.5 -2.5 29.5 -7.5l36 -17c13 -6.33301 26.833 -12 41.5 -17s30.667 -7.5 48 -7.5c25.333 0 45.166 10.167 59.499 30.5
s22.833 48.5 25.5 84.5z" />
    <glyph glyph-name="Odieresis" unicode="&#xd6;" horiz-adv-x="744" 
d="M690 350c0 56.667 -7.16699 107.667 -21.5 153s-35.166 83.5 -62.499 114.5s-60.666 54.833 -99.999 71.5s-84 25 -134 25s-94.667 -8.33301 -134 -25s-72.5 -40.5 -99.5 -71.5s-47.667 -69.167 -62 -114.5s-21.5 -96.333 -21.5 -153
c0 -57.333 7.16699 -108.5 21.5 -153.5s35 -83 62 -114s60.167 -54.833 99.5 -71.5s84 -25 134 -25s94.667 8.33301 134 25s72.666 40.5 99.999 71.5s48.166 69 62.499 114s21.5 96.167 21.5 153.5zM603 350c0 -55.333 -6.33301 -102.166 -19 -140.499
s-29.5 -69.5 -50.5 -93.5s-45.5 -41.333 -73.5 -52s-57.333 -16 -88 -16s-60 5.33301 -88 16s-52.5 28 -73.5 52s-37.833 55.167 -50.5 93.5s-19 85.166 -19 140.499c0 54.667 6.33301 101.167 19 139.5s29.5 69.5 50.5 93.5s45.5 41.5 73.5 52.5s57.333 16.5 88 16.5
s60 -5.5 88 -16.5s52.5 -28.5 73.5 -52.5s37.833 -55.167 50.5 -93.5s19 -84.833 19 -139.5zM513 778v90h-90v-90h90zM313 778v90h-90v-90h90z" />
    <glyph glyph-name="multiply" unicode="&#xd7;" 
d="M555 146l-201 200l199 200l-49 48l-199 -198l-200 201l-54 -54l201 -200l-199 -200l49 -48l200 199l200 -202z" />
    <glyph glyph-name="Oslash" unicode="&#xd8;" horiz-adv-x="744" 
d="M690 350c0 56.667 -7.16699 107.667 -21.5 153s-35.166 83.5 -62.499 114.5s-60.666 54.833 -99.999 71.5s-84 25 -134 25s-94.667 -8.33301 -134 -25s-72.5 -40.5 -99.5 -71.5s-47.667 -69.167 -62 -114.5s-21.5 -96.333 -21.5 -153
c0 -57.333 7.16699 -108.5 21.5 -153.5s35 -83 62 -114s60.167 -54.833 99.5 -71.5s84 -25 134 -25s94.667 8.33301 134 25s72.666 40.5 99.999 71.5s48.166 69 62.499 114s21.5 96.167 21.5 153.5zM605 350c0 -56 -6.33398 -103.334 -19.001 -142.001s-29.667 -70 -51 -94
s-46.166 -41.5 -74.499 -52.5s-57.833 -16.5 -88.5 -16.5c-31.333 0 -60.833 5.33301 -88.5 16s-52.167 28 -73.5 52l357 426c12 -23.333 21.333 -50.666 28 -81.999s10 -67 10 -107zM531.999 588.999l-357 -425c-11.333 23.333 -20.166 50.166 -26.499 80.499
s-9.5 65.5 -9.5 105.5c0 55.333 6.33301 102.333 19 141s29.667 70.167 51 94.5s46 42 74 53s57.667 16.5 89 16.5c30.667 0 59.667 -5.16699 87 -15.5s51.666 -27.166 72.999 -50.499z" />
    <glyph glyph-name="Ugrave" unicode="&#xd9;" horiz-adv-x="669" 
d="M590 700l-75.002 0.000976562v-470c0 -35.333 -4.83301 -64.5 -14.5 -87.5s-22.667 -41.167 -39 -54.5s-35.166 -22.666 -56.499 -27.999s-43.666 -8 -66.999 -8c-24 0 -46.5 2.83301 -67.5 8.5s-39.5 15.167 -55.5 28.5s-28.667 31.5 -38 54.5s-14 51.833 -14 86.5v470
h-83v-478c0 -30.667 3.83301 -60 11.5 -88s21 -52.833 40 -74.5s44.833 -38.834 77.5 -51.501s74 -19 124 -19c46 0 85.333 5.5 118 16.5s59.167 26.833 79.5 47.5s35.333 45.167 45 73.5s14.5 60.166 14.5 95.499v478zM391.998 748.001l-77 146h-103l130 -146h50z" />
    <glyph glyph-name="Uacute" unicode="&#xda;" horiz-adv-x="669" 
d="M590 700l-75.002 0.000976562v-470c0 -35.333 -4.83301 -64.5 -14.5 -87.5s-22.667 -41.167 -39 -54.5s-35.166 -22.666 -56.499 -27.999s-43.666 -8 -66.999 -8c-24 0 -46.5 2.83301 -67.5 8.5s-39.5 15.167 -55.5 28.5s-28.667 31.5 -38 54.5s-14 51.833 -14 86.5v470
h-83v-478c0 -30.667 3.83301 -60 11.5 -88s21 -52.833 40 -74.5s44.833 -38.834 77.5 -51.501s74 -19 124 -19c46 0 85.333 5.5 118 16.5s59.167 26.833 79.5 47.5s35.333 45.167 45 73.5s14.5 60.166 14.5 95.499v478zM457.998 894.001h-104l-76 -146h50z" />
    <glyph glyph-name="Ucircumflex" unicode="&#xdb;" horiz-adv-x="669" 
d="M590 700l-75.002 0.000976562v-470c0 -35.333 -4.83301 -64.5 -14.5 -87.5s-22.667 -41.167 -39 -54.5s-35.166 -22.666 -56.499 -27.999s-43.666 -8 -66.999 -8c-24 0 -46.5 2.83301 -67.5 8.5s-39.5 15.167 -55.5 28.5s-28.667 31.5 -38 54.5s-14 51.833 -14 86.5v470
h-83v-478c0 -30.667 3.83301 -60 11.5 -88s21 -52.833 40 -74.5s44.833 -38.834 77.5 -51.501s74 -19 124 -19c46 0 85.333 5.5 118 16.5s59.167 26.833 79.5 47.5s35.333 45.167 45 73.5s14.5 60.166 14.5 95.499v478zM494.998 750.001l-102 157h-106l-108 -157h60l99 124
l97 -124h60z" />
    <glyph glyph-name="Udieresis" unicode="&#xdc;" horiz-adv-x="669" 
d="M590 700l-75.002 0.000976562v-470c0 -35.333 -4.83301 -64.5 -14.5 -87.5s-22.667 -41.167 -39 -54.5s-35.166 -22.666 -56.499 -27.999s-43.666 -8 -66.999 -8c-24 0 -46.5 2.83301 -67.5 8.5s-39.5 15.167 -55.5 28.5s-28.667 31.5 -38 54.5s-14 51.833 -14 86.5v470
h-83v-478c0 -30.667 3.83301 -60 11.5 -88s21 -52.833 40 -74.5s44.833 -38.834 77.5 -51.501s74 -19 124 -19c46 0 85.333 5.5 118 16.5s59.167 26.833 79.5 47.5s35.333 45.167 45 73.5s14.5 60.166 14.5 95.499v478zM475.998 781.001v90h-91v-91zM274.998 780.001v91h-90
v-91h90z" />
    <glyph glyph-name="Yacute" unicode="&#xdd;" horiz-adv-x="571" 
d="M571 700h-86l-190 -348h-8l-190 348h-97l245 -425l-2 -275h85l-2 275zM413 896h-103l-76 -146h50z" />
    <glyph glyph-name="Thorn" unicode="&#xde;" horiz-adv-x="531" 
d="M513 391c0 37.333 -6.33203 68.666 -18.999 93.999s-31.334 46.666 -56.001 63.999c-10 6.66699 -20.333 12.334 -31 17.001s-23.167 8.33398 -37.5 11.001s-31 4.66699 -50 6s-41.5 2 -67.5 2h-87v165h-81v-750h81v175h77c41.333 0 75.5 2.5 102.5 7.5
s50.167 13.167 69.5 24.5c32 18.667 56.5 43 73.5 73s25.5 67 25.5 111zM428.001 384c0 -27.333 -3.66699 -50.3311 -11 -68.998s-18 -33.5 -32 -44.5s-31 -18.833 -51 -23.5s-43 -7 -69 -7h-100v281h103c25.333 0 48 -2 68 -6s36.833 -11.333 50.5 -22
s24.167 -24.834 31.5 -42.501s11 -39.834 11 -66.501h-1z" />
    <glyph glyph-name="germandbls" unicode="&#xdf;" horiz-adv-x="564" 
d="M529 159c0 32.667 -8.50195 60.665 -25.502 83.998s-35.667 43.5 -56 60.5s-39 31.833 -56 44.5s-25.5 24.334 -25.5 35.001c0 11.333 4.66699 22.666 14 33.999l30.5 38.5c11 14.333 21.167 31 30.5 50s14 41.5 14 67.5c0 25.333 -5.83301 46.833 -17.5 64.5
s-26.5 32 -44.5 43s-38.333 19 -61 24s-45 7.5 -67 7.5c-26 0 -50 -3.16699 -72 -9.5s-41.167 -15.833 -57.5 -28.5s-29 -29 -38 -49s-13.5 -43.333 -13.5 -70v-555h79v526c0 20 1.5 37.833 4.5 53.5s8.33301 29 16 40s18 19.333 31 25s29.833 8.5 50.5 8.5
c14 0 27.5 -1.83301 40.5 -5.5s24.5 -9.33398 34.5 -17.001s18.167 -17.167 24.5 -28.5s9.5 -24.333 9.5 -39c0 -20 -4.5 -37.167 -13.5 -51.5s-19 -28.166 -30 -41.499s-21 -27.333 -30 -42s-13.5 -32.334 -13.5 -53.001c0 -15.333 4 -29.166 12 -41.499
s17.833 -24 29.5 -35s24.334 -21.5 38.001 -31.5s26.334 -20.5 38.001 -31.5s21.5 -22.667 29.5 -35s12 -26.166 12 -41.499c0 -26.667 -6.66699 -46.667 -20 -60s-30 -22.5 -50 -27.5s-41.167 -7.16699 -63.5 -6.5s-42.5 1.33398 -60.5 2.00098v-67h93
c24.667 0 48.167 3.16699 70.5 9.5s42 16 59 29s30.333 29.5 40 49.5s14.5 43.667 14.5 71z" />
    <glyph glyph-name="agrave" unicode="&#xe0;" horiz-adv-x="549" 
d="M474 0l-0.00195312 367.001c0 37.333 -5.16699 67.166 -15.5 89.499s-25.166 39.333 -44.499 51s-43.166 19.334 -71.499 23.001s-60.833 5.5 -97.5 5.5c-60 0 -117.667 -5.66699 -173 -17v-58l76 11.5c29.333 4.33301 58 6.5 86 6.5c40.667 0 72 -2.33301 94 -7
s38.167 -13.167 48.5 -25.5s16.333 -29.166 18 -50.499s2.5 -49 2.5 -83c-20 0 -37.833 0.5 -53.5 1.5s-30.167 1.5 -43.5 1.5c-28.667 0 -58.5 -1 -89.5 -3s-59.5 -8 -85.5 -18s-47.333 -25.833 -64 -47.5s-25 -51.834 -25 -90.501c0 -34.667 5.16699 -62.834 15.5 -84.501
s25 -38.667 44 -51s42 -20.833 69 -25.5s57.5 -7 91.5 -7c36 0 71.333 0.666992 106 2s72 4.33301 112 9zM397.998 48.001c-15.333 -1.33301 -28.167 -2.50195 -38.5 -3.50195s-19.5 -1.66699 -27.5 -2s-15.333 -0.666016 -22 -0.999023s-13.667 -0.5 -21 -0.5
c-19.333 0 -39.166 1 -59.499 3s-38.833 6.83301 -55.5 14.5s-30.334 18.834 -41.001 33.501s-16 35 -16 61c0 23.333 4.5 42.166 13.5 56.499s21.667 25.333 38 33s35.5 12.834 57.5 15.501s46 4 72 4c8 0 20.5 -0.5 37.5 -1.5s37.833 -1.5 62.5 -1.5v-211z
M313.997 603.999l-76 146h-103l129 -146h50z" />
    <glyph glyph-name="aacute" unicode="&#xe1;" horiz-adv-x="549" 
d="M474 0l-0.00195312 367.001c0 37.333 -5.16699 67.166 -15.5 89.499s-25.166 39.333 -44.499 51s-43.166 19.334 -71.499 23.001s-60.833 5.5 -97.5 5.5c-60 0 -117.667 -5.66699 -173 -17v-58l76 11.5c29.333 4.33301 58 6.5 86 6.5c40.667 0 72 -2.33301 94 -7
s38.167 -13.167 48.5 -25.5s16.333 -29.166 18 -50.499s2.5 -49 2.5 -83c-20 0 -37.833 0.5 -53.5 1.5s-30.167 1.5 -43.5 1.5c-28.667 0 -58.5 -1 -89.5 -3s-59.5 -8 -85.5 -18s-47.333 -25.833 -64 -47.5s-25 -51.834 -25 -90.501c0 -34.667 5.16699 -62.834 15.5 -84.501
s25 -38.667 44 -51s42 -20.833 69 -25.5s57.5 -7 91.5 -7c36 0 71.333 0.666992 106 2s72 4.33301 112 9zM397.998 48.001c-15.333 -1.33301 -28.167 -2.50195 -38.5 -3.50195s-19.5 -1.66699 -27.5 -2s-15.333 -0.666016 -22 -0.999023s-13.667 -0.5 -21 -0.5
c-19.333 0 -39.166 1 -59.499 3s-38.833 6.83301 -55.5 14.5s-30.334 18.834 -41.001 33.501s-16 35 -16 61c0 23.333 4.5 42.166 13.5 56.499s21.667 25.333 38 33s35.5 12.834 57.5 15.501s46 4 72 4c8 0 20.5 -0.5 37.5 -1.5s37.833 -1.5 62.5 -1.5v-211z
M381.997 749.999h-103l-77 -146h50z" />
    <glyph glyph-name="acircumflex" unicode="&#xe2;" horiz-adv-x="549" 
d="M474 0l-0.00195312 367.001c0 37.333 -5.16699 67.166 -15.5 89.499s-25.166 39.333 -44.499 51s-43.166 19.334 -71.499 23.001s-60.833 5.5 -97.5 5.5c-60 0 -117.667 -5.66699 -173 -17v-58l76 11.5c29.333 4.33301 58 6.5 86 6.5c40.667 0 72 -2.33301 94 -7
s38.167 -13.167 48.5 -25.5s16.333 -29.166 18 -50.499s2.5 -49 2.5 -83c-20 0 -37.833 0.5 -53.5 1.5s-30.167 1.5 -43.5 1.5c-28.667 0 -58.5 -1 -89.5 -3s-59.5 -8 -85.5 -18s-47.333 -25.833 -64 -47.5s-25 -51.834 -25 -90.501c0 -34.667 5.16699 -62.834 15.5 -84.501
s25 -38.667 44 -51s42 -20.833 69 -25.5s57.5 -7 91.5 -7c36 0 71.333 0.666992 106 2s72 4.33301 112 9zM397.998 48.001c-15.333 -1.33301 -28.167 -2.50195 -38.5 -3.50195s-19.5 -1.66699 -27.5 -2s-15.333 -0.666016 -22 -0.999023s-13.667 -0.5 -21 -0.5
c-19.333 0 -39.166 1 -59.499 3s-38.833 6.83301 -55.5 14.5s-30.334 18.834 -41.001 33.501s-16 35 -16 61c0 23.333 4.5 42.166 13.5 56.499s21.667 25.333 38 33s35.5 12.834 57.5 15.501s46 4 72 4c8 0 20.5 -0.5 37.5 -1.5s37.833 -1.5 62.5 -1.5v-211z
M416.997 621.999l-103 158h-106l-108 -158h60l99 124l97 -124h61z" />
    <glyph glyph-name="atilde" unicode="&#xe3;" horiz-adv-x="549" 
d="M474 0l-0.00195312 367.001c0 37.333 -5.16699 67.166 -15.5 89.499s-25.166 39.333 -44.499 51s-43.166 19.334 -71.499 23.001s-60.833 5.5 -97.5 5.5c-60 0 -117.667 -5.66699 -173 -17v-58l76 11.5c29.333 4.33301 58 6.5 86 6.5c40.667 0 72 -2.33301 94 -7
s38.167 -13.167 48.5 -25.5s16.333 -29.166 18 -50.499s2.5 -49 2.5 -83c-20 0 -37.833 0.5 -53.5 1.5s-30.167 1.5 -43.5 1.5c-28.667 0 -58.5 -1 -89.5 -3s-59.5 -8 -85.5 -18s-47.333 -25.833 -64 -47.5s-25 -51.834 -25 -90.501c0 -34.667 5.16699 -62.834 15.5 -84.501
s25 -38.667 44 -51s42 -20.833 69 -25.5s57.5 -7 91.5 -7c36 0 71.333 0.666992 106 2s72 4.33301 112 9zM397.998 48.001c-15.333 -1.33301 -28.167 -2.50195 -38.5 -3.50195s-19.5 -1.66699 -27.5 -2s-15.333 -0.666016 -22 -0.999023s-13.667 -0.5 -21 -0.5
c-19.333 0 -39.166 1 -59.499 3s-38.833 6.83301 -55.5 14.5s-30.334 18.834 -41.001 33.501s-16 35 -16 61c0 23.333 4.5 42.166 13.5 56.499s21.667 25.333 38 33s35.5 12.834 57.5 15.501s46 4 72 4c8 0 20.5 -0.5 37.5 -1.5s37.833 -1.5 62.5 -1.5v-211z
M402.997 754.999l-38.002 0.00195312c-2 -16.667 -6.5 -29.834 -13.5 -39.501s-17.833 -14.5 -32.5 -14.5c-9.33301 0 -19.666 2.5 -30.999 7.5l-36.5 16.5c-13 6 -26.5 11.5 -40.5 16.5s-28.667 7.5 -44 7.5c-27.333 0 -48.333 -10.167 -63 -30.5s-23 -48.5 -25 -84.5h37
c2.66699 15.333 7.33398 28.166 14.001 38.499s17.667 15.5 33 15.5c8.66699 0 18.5 -2.5 29.5 -7.5l36 -17c13 -6.33301 26.833 -12 41.5 -17s30.667 -7.5 48 -7.5c25.333 0 45.333 10.333 60 31s23 49 25 85z" />
    <glyph glyph-name="adieresis" unicode="&#xe4;" horiz-adv-x="549" 
d="M474 0l-0.00195312 367.001c0 37.333 -5.16699 67.166 -15.5 89.499s-25.166 39.333 -44.499 51s-43.166 19.334 -71.499 23.001s-60.833 5.5 -97.5 5.5c-60 0 -117.667 -5.66699 -173 -17v-58l76 11.5c29.333 4.33301 58 6.5 86 6.5c40.667 0 72 -2.33301 94 -7
s38.167 -13.167 48.5 -25.5s16.333 -29.166 18 -50.499s2.5 -49 2.5 -83c-20 0 -37.833 0.5 -53.5 1.5s-30.167 1.5 -43.5 1.5c-28.667 0 -58.5 -1 -89.5 -3s-59.5 -8 -85.5 -18s-47.333 -25.833 -64 -47.5s-25 -51.834 -25 -90.501c0 -34.667 5.16699 -62.834 15.5 -84.501
s25 -38.667 44 -51s42 -20.833 69 -25.5s57.5 -7 91.5 -7c36 0 71.333 0.666992 106 2s72 4.33301 112 9zM397.998 48.001c-15.333 -1.33301 -28.167 -2.50195 -38.5 -3.50195s-19.5 -1.66699 -27.5 -2s-15.333 -0.666016 -22 -0.999023s-13.667 -0.5 -21 -0.5
c-19.333 0 -39.166 1 -59.499 3s-38.833 6.83301 -55.5 14.5s-30.334 18.834 -41.001 33.501s-16 35 -16 61c0 23.333 4.5 42.166 13.5 56.499s21.667 25.333 38 33s35.5 12.834 57.5 15.501s46 4 72 4c8 0 20.5 -0.5 37.5 -1.5s37.833 -1.5 62.5 -1.5v-211z
M397.997 658.999v90h-90v-90h90zM197.997 658.999v90h-90v-90h90z" />
    <glyph glyph-name="aring" unicode="&#xe5;" horiz-adv-x="549" 
d="M474 0l-0.00195312 367.001c0 37.333 -5.16699 67.166 -15.5 89.499s-25.166 39.333 -44.499 51s-43.166 19.334 -71.499 23.001s-60.833 5.5 -97.5 5.5c-60 0 -117.667 -5.66699 -173 -17v-58l76 11.5c29.333 4.33301 58 6.5 86 6.5c40.667 0 72 -2.33301 94 -7
s38.167 -13.167 48.5 -25.5s16.333 -29.166 18 -50.499s2.5 -49 2.5 -83c-20 0 -37.833 0.5 -53.5 1.5s-30.167 1.5 -43.5 1.5c-28.667 0 -58.5 -1 -89.5 -3s-59.5 -8 -85.5 -18s-47.333 -25.833 -64 -47.5s-25 -51.834 -25 -90.501c0 -34.667 5.16699 -62.834 15.5 -84.501
s25 -38.667 44 -51s42 -20.833 69 -25.5s57.5 -7 91.5 -7c36 0 71.333 0.666992 106 2s72 4.33301 112 9zM397.998 48.001c-15.333 -1.33301 -28.167 -2.50195 -38.5 -3.50195s-19.5 -1.66699 -27.5 -2s-15.333 -0.666016 -22 -0.999023s-13.667 -0.5 -21 -0.5
c-19.333 0 -39.166 1 -59.499 3s-38.833 6.83301 -55.5 14.5s-30.334 18.834 -41.001 33.501s-16 35 -16 61c0 23.333 4.5 42.166 13.5 56.499s21.667 25.333 38 33s35.5 12.834 57.5 15.501s46 4 72 4c8 0 20.5 -0.5 37.5 -1.5s37.833 -1.5 62.5 -1.5v-211z
M366.997 693.999c0 30.667 -10.333 54.167 -31 70.5s-49 24.5 -85 24.5c-34 0 -61.833 -7.83301 -83.5 -23.5s-32.5 -39.5 -32.5 -71.5c0 -30 10.667 -53 32 -69s49.333 -24 84 -24c35.333 0 63.5 8 84.5 24s31.5 39 31.5 69zM311.997 693.999
c0 -9.33301 -1.83301 -17.334 -5.5 -24.001s-8.5 -12 -14.5 -16s-12.667 -7 -20 -9s-14.333 -3 -21 -3c-16.667 0 -31 4.5 -43 13.5s-18 22.167 -18 39.5s6 30.5 18 39.5s26.333 13.5 43 13.5c14.667 0 28.5 -4.16699 41.5 -12.5s19.5 -22.166 19.5 -41.499z" />
    <glyph glyph-name="ae" unicode="&#xe6;" horiz-adv-x="831" 
d="M794 239v14.9951c0 88 -17 156.833 -51 206.5s-88.667 74.5 -164 74.5c-14 0 -28.167 -0.833008 -42.5 -2.5s-28.833 -5 -43.5 -10s-29 -12.333 -43 -22s-27.333 -22.5 -40 -38.5c-21.333 31.333 -47.666 51.5 -78.999 60.5s-67.333 13.5 -108 13.5
c-10.667 0 -23 -0.5 -37 -1.5s-28.167 -2.16699 -42.5 -3.5s-28.5 -3 -42.5 -5s-26.333 -4.33301 -37 -7v-58c10 2 21.5 4 34.5 6s26.5 3.83301 40.5 5.5s28.167 3 42.5 4s27.833 1.5 40.5 1.5c32.667 0 58 -3.33301 76 -10s31.333 -16.667 40 -30s14 -29.666 16 -48.999
s3 -41.333 3 -66v-11c0 -4.66699 -0.333008 -8.66699 -1 -12c-20.667 0 -42.834 0.333008 -66.501 1s-47.334 0.166992 -71.001 -1.5s-46.5 -5.16699 -68.5 -10.5s-41.5 -13.666 -58.5 -24.999s-30.5 -26.333 -40.5 -45s-15 -42.667 -15 -72
c0 -33.333 5.5 -60.166 16.5 -80.499s25.833 -36.333 44.5 -48s40.334 -19.5 65.001 -23.5s50.334 -6 77.001 -6c20.667 0 39.667 0.833008 57 2.5s34.166 4.33398 50.499 8.00098s32.666 8.5 48.999 14.5s34.166 13.333 53.499 22c29.333 -21.333 57.333 -34.833 84 -40.5
s56.334 -8.5 89.001 -8.5c22 0 44.333 1.5 67 4.5s43.667 7.16699 63 12.5v51c-17.333 -3.33301 -35.666 -6.16602 -54.999 -8.49902s-40 -3.5 -62 -3.5c-18 0 -38.167 1.33301 -60.5 4s-43.5 10.334 -63.5 23.001s-37.333 32.167 -52 58.5s-23.334 63.166 -26.001 110.499
l26.5 0.5c17.667 0.333008 39.834 0.5 66.501 0.5h87h87c27.333 0 49.833 -0.166992 67.5 -0.5zM400 83.9951c-18.667 -9.33301 -36.165 -16.666 -52.498 -21.999s-31 -9.33301 -44 -12s-23.833 -4.16699 -32.5 -4.5s-15 -0.5 -19 -0.5h-34c-14.667 0 -29.5 3 -44.5 9
s-28 16.167 -39 30.5s-16.5 35.833 -16.5 64.5c0 22 4.16699 39.333 12.5 52s19.5 22.167 33.5 28.5s30.167 10.5 48.5 12.5s37.5 3 57.5 3c7.33301 0 18 0.166992 32 0.5s31.667 0.166016 53 -0.500977c1.33301 -18 3.16602 -33.667 5.49902 -47s5.16602 -26 8.49902 -38
s7.5 -24 12.5 -36s11.167 -25.333 18.5 -40zM712.002 293.995h-67.999c-25.333 0 -51 -0.166992 -77 -0.5s-50.667 -0.5 -74 -0.5h-58c0 58 11.333 104 34 138s57 51 103 51c28 0 51 -5 69 -15s32.167 -23.5 42.5 -40.5s17.666 -36.833 21.999 -59.5s6.5 -47 6.5 -73z" />
    <glyph glyph-name="ccedilla" unicode="&#xe7;" horiz-adv-x="476" 
d="M451 1l0.00195312 57c-33.333 -6 -65 -9 -95 -9c-68 -1.33301 -122.167 16.834 -162.5 54.501s-60.5 93.5 -60.5 167.5c0 37.333 5.83301 69 17.5 95s27.5 47.333 47.5 64s43.5 28.667 70.5 36s55.833 11 86.5 11c33.333 -1.33301 63.666 -4.66602 90.999 -9.99902v58
c-20 4 -39.167 6.83301 -57.5 8.5s-40.833 2.5 -67.5 2.5c-38 0 -73.5 -5.83301 -106.5 -17.5s-61.667 -28.667 -86 -51s-43.5 -49.833 -57.5 -82.5s-21 -70 -21 -112c0 -42.667 5.33301 -80.334 16 -113.001s26 -60.834 46 -84.501s44 -42.334 72 -56.001
s59 -22.834 93 -27.501l-33 -67l13 -27c8 3.33301 17.167 5.83301 27.5 7.5s18.833 2.5 25.5 2.5c2 0 5.66699 -0.166992 11 -0.5s11 -1.83301 17 -4.5s11.333 -6.5 16 -11.5s7 -12.167 7 -21.5s-2.5 -17 -7.5 -23s-11.5 -10.833 -19.5 -14.5s-16.667 -6.33398 -26 -8.00098
s-18.333 -2.5 -27 -2.5c-10.667 0 -21.167 1.16699 -31.5 3.5s-21.833 5.83301 -34.5 10.5l-13 -40c13.333 -6 28.333 -10.667 45 -14s37 -5 61 -5c14.667 0 29.167 1.33301 43.5 4s27.166 7.33398 38.499 14.001s20.5 16 27.5 28s10.5 27.667 10.5 47
c0 21.333 -6.83301 39.5 -20.5 54.5s-32.167 22.5 -55.5 22.5c-13.333 0 -24.166 -0.666992 -32.499 -2s-16.166 -3.66602 -23.499 -6.99902l-2 3l41 48c19.333 0 38.666 0.833008 57.999 2.5s38.666 4.83398 57.999 9.50098z" />
    <glyph glyph-name="egrave" unicode="&#xe8;" horiz-adv-x="567" 
d="M530 240l-0.00292969 15.999c0 42.667 -4.66699 81.334 -14 116.001s-23.666 64.167 -42.999 88.5s-44.5 43 -75.5 56s-67.833 19.5 -110.5 19.5c-32 0 -62.5 -5 -91.5 -15s-54.167 -25.5 -75.5 -46.5s-38.333 -48.167 -51 -81.5s-19 -73.333 -19 -120
c0 -90.667 23.5 -160.834 70.5 -210.501s115.5 -74.5 205.5 -74.5c28.667 0 56.334 1 83.001 3s53.334 6.66699 80.001 14v52c-19.333 -4 -40 -7.33301 -62 -10s-45 -4 -69 -4c-20 0 -42.333 1.33301 -67 4s-48 10.334 -70 23.001s-41 32.167 -57 58.5
s-25.667 63.5 -29 111.5h395zM439.997 291.999l-303.003 -0.00195312c0 58 12.333 104.667 37 140s62.334 53 113.001 53c30 0 54.833 -5.16699 74.5 -15.5s35.334 -24.166 47.001 -41.499s19.834 -37.666 24.501 -60.999s7 -48.333 7 -75zM352.994 603.997l-76 146h-104
l130 -146h50z" />
    <glyph glyph-name="eacute" unicode="&#xe9;" horiz-adv-x="567" 
d="M530 240l-0.00292969 15.999c0 42.667 -4.66699 81.334 -14 116.001s-23.666 64.167 -42.999 88.5s-44.5 43 -75.5 56s-67.833 19.5 -110.5 19.5c-32 0 -62.5 -5 -91.5 -15s-54.167 -25.5 -75.5 -46.5s-38.333 -48.167 -51 -81.5s-19 -73.333 -19 -120
c0 -90.667 23.5 -160.834 70.5 -210.501s115.5 -74.5 205.5 -74.5c28.667 0 56.334 1 83.001 3s53.334 6.66699 80.001 14v52c-19.333 -4 -40 -7.33301 -62 -10s-45 -4 -69 -4c-20 0 -42.333 1.33301 -67 4s-48 10.334 -70 23.001s-41 32.167 -57 58.5
s-25.667 63.5 -29 111.5h395zM439.997 291.999l-303.003 -0.00195312c0 58 12.333 104.667 37 140s62.334 53 113.001 53c30 0 54.833 -5.16699 74.5 -15.5s35.334 -24.166 47.001 -41.499s19.834 -37.666 24.501 -60.999s7 -48.333 7 -75zM423.994 749.997h-103l-76 -146
h50z" />
    <glyph glyph-name="ecircumflex" unicode="&#xea;" horiz-adv-x="567" 
d="M530 240l-0.00292969 15.999c0 42.667 -4.66699 81.334 -14 116.001s-23.666 64.167 -42.999 88.5s-44.5 43 -75.5 56s-67.833 19.5 -110.5 19.5c-32 0 -62.5 -5 -91.5 -15s-54.167 -25.5 -75.5 -46.5s-38.333 -48.167 -51 -81.5s-19 -73.333 -19 -120
c0 -90.667 23.5 -160.834 70.5 -210.501s115.5 -74.5 205.5 -74.5c28.667 0 56.334 1 83.001 3s53.334 6.66699 80.001 14v52c-19.333 -4 -40 -7.33301 -62 -10s-45 -4 -69 -4c-20 0 -42.333 1.33301 -67 4s-48 10.334 -70 23.001s-41 32.167 -57 58.5
s-25.667 63.5 -29 111.5h395zM439.997 291.999l-303.003 -0.00195312c0 58 12.333 104.667 37 140s62.334 53 113.001 53c30 0 54.833 -5.16699 74.5 -15.5s35.334 -24.166 47.001 -41.499s19.834 -37.666 24.501 -60.999s7 -48.333 7 -75zM456.994 621.997l-103 158h-106
l-107 -158h59l100 124l97 -124h60z" />
    <glyph glyph-name="edieresis" unicode="&#xeb;" horiz-adv-x="567" 
d="M530 240l-0.00292969 15.999c0 42.667 -4.66699 81.334 -14 116.001s-23.666 64.167 -42.999 88.5s-44.5 43 -75.5 56s-67.833 19.5 -110.5 19.5c-32 0 -62.5 -5 -91.5 -15s-54.167 -25.5 -75.5 -46.5s-38.333 -48.167 -51 -81.5s-19 -73.333 -19 -120
c0 -90.667 23.5 -160.834 70.5 -210.501s115.5 -74.5 205.5 -74.5c28.667 0 56.334 1 83.001 3s53.334 6.66699 80.001 14v52c-19.333 -4 -40 -7.33301 -62 -10s-45 -4 -69 -4c-20 0 -42.333 1.33301 -67 4s-48 10.334 -70 23.001s-41 32.167 -57 58.5
s-25.667 63.5 -29 111.5h395zM439.997 291.999l-303.003 -0.00195312c0 58 12.333 104.667 37 140s62.334 53 113.001 53c30 0 54.833 -5.16699 74.5 -15.5s35.334 -24.166 47.001 -41.499s19.834 -37.666 24.501 -60.999s7 -48.333 7 -75zM236.994 657.997v91h-90v-91h90z
M436.994 658.997v90h-90v-91z" />
    <glyph glyph-name="igrave" unicode="&#xec;" horiz-adv-x="209" 
d="M131 0v525h-75v-525h75zM130 604l-77 146h-103l130 -146h50z" />
    <glyph glyph-name="iacute" unicode="&#xed;" horiz-adv-x="204" 
d="M153 0v525h-75v-525h75zM258 750h-103l-77 -146h51z" />
    <glyph glyph-name="icircumflex" unicode="&#xee;" horiz-adv-x="211" 
d="M141 0v525h-75v-525h75zM264 622l-103 158h-106l-107 -158h59l100 124l97 -124h60z" />
    <glyph glyph-name="idieresis" unicode="&#xef;" horiz-adv-x="240" 
d="M157 0v525h-76v-525h76zM65 658v91h-90v-91h90zM265 659v90h-90v-91z" />
    <glyph glyph-name="eth" unicode="&#xf0;" horiz-adv-x="572" 
d="M519 259c0 69.333 -13.666 134.836 -40.999 196.503s-68.666 121.167 -123.999 178.5l97 29l-14 46l-124 -39c-22.667 18.667 -45.5 35.5 -68.5 50.5s-47.167 29.167 -72.5 42.5c-5.33301 -9.33301 -10.666 -19.333 -15.999 -30s-10.666 -20.667 -15.999 -30
c12 -6 25.333 -13.333 40 -22s33 -20.334 55 -35.001l-153 -49l13 -45l184 58c25.333 -22 50.333 -49 75 -81s45.667 -67.333 63 -106l-7 -5c-13.333 13.333 -26.333 24 -39 32s-25.167 14 -37.5 18s-24.333 6.66699 -36 8s-22.834 2 -33.501 2
c-35.333 0 -67.166 -5.33301 -95.499 -16s-52.833 -26.334 -73.5 -47.001s-36.5 -46.334 -47.5 -77.001s-16.5 -66 -16.5 -106c0 -38.667 6 -73.167 18 -103.5s28.667 -55.833 50 -76.5s46.666 -36.5 75.999 -47.5s61.666 -16.5 96.999 -16.5c46.667 0 85.667 7.5 117 22.5
s56.666 35 75.999 60s33.166 53.833 41.499 86.5s12.5 66.667 12.5 102zM433.001 234.003c0 -24 -3.5 -46.999 -10.5 -68.999s-17.167 -41.5 -30.5 -58.5s-30.166 -30.667 -50.499 -41s-43.5 -15.5 -69.5 -15.5c-27.333 0 -51 4.83301 -71 14.5s-36.5 22.667 -49.5 39
s-22.5 35.333 -28.5 57s-9 44.5 -9 68.5c0 24.667 3.33301 48 10 70s16.667 41.167 30 57.5s30.166 29.166 50.499 38.499s44.166 14 71.499 14c26.667 0 49.834 -4.83301 69.501 -14.5s36 -22.667 49 -39s22.667 -35 29 -56s9.5 -42.833 9.5 -65.5z" />
    <glyph glyph-name="ntilde" unicode="&#xf1;" horiz-adv-x="591" 
d="M517 0l-0.00292969 380.999c0 28 -4.33301 51.833 -13 71.5s-20 35.667 -34 48s-29.667 21.333 -47 27s-34.666 8.5 -51.999 8.5c-18 0 -34.333 -1 -49 -3s-30.167 -5.5 -46.5 -10.5s-34.5 -11.833 -54.5 -20.5l-74 -33v56h-69v-525h76v417l38.5 16.5
c15 6.33301 30.833 12.333 47.5 18s33.334 10.334 50.001 14.001s32 5.5 46 5.5c26 0 45.833 -4.33301 59.5 -13s23.834 -19.5 30.501 -32.5s10.5 -27.333 11.5 -43s1.5 -30.5 1.5 -44.5v-338h78zM461.997 755.999h-38.002c-2 -16 -6.5 -29 -13.5 -39s-17.833 -15 -32.5 -15
c-9.33301 0 -19.666 2.5 -30.999 7.5s-23.333 10.667 -36 17s-26.167 12 -40.5 17s-29.166 7.5 -44.499 7.5c-27.333 0 -48.333 -10.167 -63 -30.5s-23 -48.833 -25 -85.5h37c2.66699 15.333 7.5 28.333 14.5 39s17.833 16 32.5 16c8.66699 0 18.5 -2.5 29.5 -7.5l36 -17
c13 -6.33301 26.833 -12 41.5 -17s30.667 -7.5 48 -7.5c25.333 0 45.333 10.167 60 30.5s23 48.5 25 84.5z" />
    <glyph glyph-name="ograve" unicode="&#xf2;" horiz-adv-x="607" 
d="M557 266c0 42 -5.66699 79.8291 -17 113.496s-27.833 62.334 -49.5 86.001s-48.167 41.667 -79.5 54s-67 18.5 -107 18.5c-80.667 0 -143.167 -24.167 -187.5 -72.5s-66.5 -114.833 -66.5 -199.5c0 -41.333 5.66699 -79.166 17 -113.499s27.833 -63.666 49.5 -87.999
s48.167 -43.333 79.5 -57s67.333 -20.5 108 -20.5c36.667 0 70.5 6.83301 101.5 20.5s57.667 32.834 80 57.501s39.833 54 52.5 88s19 71.667 19 113zM473 265.996c0 -33.333 -3.5 -63.665 -10.5 -90.998s-17.5 -50.833 -31.5 -70.5s-31.667 -35 -53 -46
s-46 -16.5 -74 -16.5c-28.667 0 -53.667 5.5 -75 16.5s-39 26.333 -53 46s-24.5 43.167 -31.5 70.5s-10.5 57.666 -10.5 90.999c0 66 14.333 118.667 43 158s71 59 127 59c28 0 52.5 -5.16699 73.5 -15.5s38.667 -25 53 -44s25 -41.833 32 -68.5s10.5 -56.334 10.5 -89.001z
M359 603.997l-77 146h-103l130 -146h50z" />
    <glyph glyph-name="oacute" unicode="&#xf3;" horiz-adv-x="607" 
d="M557 266c0 42 -5.66699 79.8291 -17 113.496s-27.833 62.334 -49.5 86.001s-48.167 41.667 -79.5 54s-67 18.5 -107 18.5c-80.667 0 -143.167 -24.167 -187.5 -72.5s-66.5 -114.833 -66.5 -199.5c0 -41.333 5.66699 -79.166 17 -113.499s27.833 -63.666 49.5 -87.999
s48.167 -43.333 79.5 -57s67.333 -20.5 108 -20.5c36.667 0 70.5 6.83301 101.5 20.5s57.667 32.834 80 57.501s39.833 54 52.5 88s19 71.667 19 113zM473 265.996c0 -33.333 -3.5 -63.665 -10.5 -90.998s-17.5 -50.833 -31.5 -70.5s-31.667 -35 -53 -46
s-46 -16.5 -74 -16.5c-28.667 0 -53.667 5.5 -75 16.5s-39 26.333 -53 46s-24.5 43.167 -31.5 70.5s-10.5 57.666 -10.5 90.999c0 66 14.333 118.667 43 158s71 59 127 59c28 0 52.5 -5.16699 73.5 -15.5s38.667 -25 53 -44s25 -41.833 32 -68.5s10.5 -56.334 10.5 -89.001z
M429 750.997h-103l-77 -146h51z" />
    <glyph glyph-name="ocircumflex" unicode="&#xf4;" horiz-adv-x="607" 
d="M557 266c0 42 -5.66699 79.8291 -17 113.496s-27.833 62.334 -49.5 86.001s-48.167 41.667 -79.5 54s-67 18.5 -107 18.5c-80.667 0 -143.167 -24.167 -187.5 -72.5s-66.5 -114.833 -66.5 -199.5c0 -41.333 5.66699 -79.166 17 -113.499s27.833 -63.666 49.5 -87.999
s48.167 -43.333 79.5 -57s67.333 -20.5 108 -20.5c36.667 0 70.5 6.83301 101.5 20.5s57.667 32.834 80 57.501s39.833 54 52.5 88s19 71.667 19 113zM473 265.996c0 -33.333 -3.5 -63.665 -10.5 -90.998s-17.5 -50.833 -31.5 -70.5s-31.667 -35 -53 -46
s-46 -16.5 -74 -16.5c-28.667 0 -53.667 5.5 -75 16.5s-39 26.333 -53 46s-24.5 43.167 -31.5 70.5s-10.5 57.666 -10.5 90.999c0 66 14.333 118.667 43 158s71 59 127 59c28 0 52.5 -5.16699 73.5 -15.5s38.667 -25 53 -44s25 -41.833 32 -68.5s10.5 -56.334 10.5 -89.001z
M463 621.997l-102 158h-107l-107 -158h60l99 124l97 -124h60z" />
    <glyph glyph-name="otilde" unicode="&#xf5;" horiz-adv-x="607" 
d="M557 266c0 42 -5.66699 79.8291 -17 113.496s-27.833 62.334 -49.5 86.001s-48.167 41.667 -79.5 54s-67 18.5 -107 18.5c-80.667 0 -143.167 -24.167 -187.5 -72.5s-66.5 -114.833 -66.5 -199.5c0 -41.333 5.66699 -79.166 17 -113.499s27.833 -63.666 49.5 -87.999
s48.167 -43.333 79.5 -57s67.333 -20.5 108 -20.5c36.667 0 70.5 6.83301 101.5 20.5s57.667 32.834 80 57.501s39.833 54 52.5 88s19 71.667 19 113zM473 265.996c0 -33.333 -3.5 -63.665 -10.5 -90.998s-17.5 -50.833 -31.5 -70.5s-31.667 -35 -53 -46
s-46 -16.5 -74 -16.5c-28.667 0 -53.667 5.5 -75 16.5s-39 26.333 -53 46s-24.5 43.167 -31.5 70.5s-10.5 57.666 -10.5 90.999c0 66 14.333 118.667 43 158s71 59 127 59c28 0 52.5 -5.16699 73.5 -15.5s38.667 -25 53 -44s25 -41.833 32 -68.5s10.5 -56.334 10.5 -89.001z
M458 756.997l-37 0.000976562c-2.66699 -16 -7.5 -29 -14.5 -39s-17.5 -15 -31.5 -15c-9.33301 0 -19.666 2.5 -30.999 7.5s-23.5 10.667 -36.5 17s-26.5 12 -40.5 17s-28.667 7.5 -44 7.5c-28 0 -49.167 -10.167 -63.5 -30.5s-22.833 -48.833 -25.5 -85.5h38
c2 15.333 6.5 28.166 13.5 38.499s18.167 15.5 33.5 15.5c8.66699 0 18.5 -2.5 29.5 -7.5l36 -17c13 -6.33301 26.833 -12 41.5 -17s30.667 -7.5 48 -7.5c25.333 0 45.166 10.333 59.499 31s22.5 49 24.5 85z" />
    <glyph glyph-name="odieresis" unicode="&#xf6;" horiz-adv-x="607" 
d="M557 266c0 42 -5.66699 79.8291 -17 113.496s-27.833 62.334 -49.5 86.001s-48.167 41.667 -79.5 54s-67 18.5 -107 18.5c-80.667 0 -143.167 -24.167 -187.5 -72.5s-66.5 -114.833 -66.5 -199.5c0 -41.333 5.66699 -79.166 17 -113.499s27.833 -63.666 49.5 -87.999
s48.167 -43.333 79.5 -57s67.333 -20.5 108 -20.5c36.667 0 70.5 6.83301 101.5 20.5s57.667 32.834 80 57.501s39.833 54 52.5 88s19 71.667 19 113zM473 265.996c0 -33.333 -3.5 -63.665 -10.5 -90.998s-17.5 -50.833 -31.5 -70.5s-31.667 -35 -53 -46
s-46 -16.5 -74 -16.5c-28.667 0 -53.667 5.5 -75 16.5s-39 26.333 -53 46s-24.5 43.167 -31.5 70.5s-10.5 57.666 -10.5 90.999c0 66 14.333 118.667 43 158s71 59 127 59c28 0 52.5 -5.16699 73.5 -15.5s38.667 -25 53 -44s25 -41.833 32 -68.5s10.5 -56.334 10.5 -89.001z
M242 657.997v91h-90v-91h90zM442 658.997v90h-90v-91z" />
    <glyph glyph-name="divide" unicode="&#xf7;" 
d="M582 306v75h-558v-75h558zM366 147c0 18.667 -6.16699 34.667 -18.5 48s-27.166 20 -44.499 20s-32.166 -6.66699 -44.499 -20s-18.5 -29.333 -18.5 -48s6.16699 -34.667 18.5 -48s27.166 -20 44.499 -20s32.166 6.66699 44.499 20s18.5 29.333 18.5 48zM366 540
c0 18.667 -6.16699 34.5 -18.5 47.5s-27.166 19.5 -44.499 19.5s-32.166 -6.5 -44.499 -19.5s-18.5 -28.833 -18.5 -47.5c0 -19.333 6.16699 -35.5 18.5 -48.5s27.166 -19.5 44.499 -19.5s32.166 6.5 44.499 19.5s18.5 29.167 18.5 48.5z" />
    <glyph glyph-name="oslash" unicode="&#xf8;" horiz-adv-x="607" 
d="M557 266c0 42 -5.66699 79.8291 -17 113.496s-27.833 62.334 -49.5 86.001s-48.167 41.667 -79.5 54s-67 18.5 -107 18.5c-80.667 0 -143.167 -24.167 -187.5 -72.5s-66.5 -114.833 -66.5 -199.5c0 -41.333 5.66699 -79.166 17 -113.499s27.833 -63.666 49.5 -87.999
s48.167 -43.333 79.5 -57s67.333 -20.5 108 -20.5c36.667 0 70.5 6.83301 101.5 20.5s57.667 32.834 80 57.501s39.833 54 52.5 88s19 71.667 19 113zM476 265.996c0 -33.333 -3.5 -64.001 -10.5 -92.001s-17.667 -52.167 -32 -72.5s-32.333 -36.166 -54 -47.499
s-46.834 -17 -75.501 -17c-51.333 0 -91.666 17.667 -120.999 53l267 308c17.333 -36.667 26 -80.667 26 -132zM421 440.995l-266.002 -306.997c-8.66699 18.667 -15 39 -19 61s-6 45.667 -6 71c0 33.333 3.66699 63.666 11 90.999s18.333 50.666 33 69.999
s32.834 34.166 54.501 44.499s46.834 15.5 75.501 15.5c49.333 0 88.333 -15.333 117 -46z" />
    <glyph glyph-name="ugrave" unicode="&#xf9;" horiz-adv-x="578" 
d="M501 0l0.00292969 525.004h-77v-412c-12 -5.33301 -24.333 -11.333 -37 -18s-26.5 -12.834 -41.5 -18.501s-30.833 -10.334 -47.5 -14.001s-35 -5.5 -55 -5.5c-22.667 0 -40.167 4.16699 -52.5 12.5s-21.333 19.166 -27 32.499s-9 28.166 -10 44.499s-1.5 32.5 -1.5 48.5
v330h-77v-375c0 -31.333 4.16699 -57.166 12.5 -77.499s19.166 -36.5 32.499 -48.5s28.666 -20.333 45.999 -25s34.666 -7 51.999 -7c16.667 0 32.667 0.666992 48 2s31.333 4.5 48 9.5s34.5 12.167 53.5 21.5s40.5 21.666 64.5 36.999v-62h69zM342.003 604.004l-77 146
h-103l130 -146h50z" />
    <glyph glyph-name="uacute" unicode="&#xfa;" horiz-adv-x="578" 
d="M501 0l0.00292969 525.004h-77v-412c-12 -5.33301 -24.333 -11.333 -37 -18s-26.5 -12.834 -41.5 -18.501s-30.833 -10.334 -47.5 -14.001s-35 -5.5 -55 -5.5c-22.667 0 -40.167 4.16699 -52.5 12.5s-21.333 19.166 -27 32.499s-9 28.166 -10 44.499s-1.5 32.5 -1.5 48.5
v330h-77v-375c0 -31.333 4.16699 -57.166 12.5 -77.499s19.166 -36.5 32.499 -48.5s28.666 -20.333 45.999 -25s34.666 -7 51.999 -7c16.667 0 32.667 0.666992 48 2s31.333 4.5 48 9.5s34.5 12.167 53.5 21.5s40.5 21.666 64.5 36.999v-62h69zM420.003 750.004h-103
l-76 -146h50z" />
    <glyph glyph-name="ucircumflex" unicode="&#xfb;" horiz-adv-x="578" 
d="M501 0l0.00292969 525.004h-77v-412c-12 -5.33301 -24.333 -11.333 -37 -18s-26.5 -12.834 -41.5 -18.501s-30.833 -10.334 -47.5 -14.001s-35 -5.5 -55 -5.5c-22.667 0 -40.167 4.16699 -52.5 12.5s-21.333 19.166 -27 32.499s-9 28.166 -10 44.499s-1.5 32.5 -1.5 48.5
v330h-77v-375c0 -31.333 4.16699 -57.166 12.5 -77.499s19.166 -36.5 32.499 -48.5s28.666 -20.333 45.999 -25s34.666 -7 51.999 -7c16.667 0 32.667 0.666992 48 2s31.333 4.5 48 9.5s34.5 12.167 53.5 21.5s40.5 21.666 64.5 36.999v-62h69zM446.003 622.004l-103 158
h-106l-107 -158h59l100 124l97 -124h60z" />
    <glyph glyph-name="udieresis" unicode="&#xfc;" horiz-adv-x="578" 
d="M501 0l0.00292969 525.004h-77v-412c-12 -5.33301 -24.333 -11.333 -37 -18s-26.5 -12.834 -41.5 -18.501s-30.833 -10.334 -47.5 -14.001s-35 -5.5 -55 -5.5c-22.667 0 -40.167 4.16699 -52.5 12.5s-21.333 19.166 -27 32.499s-9 28.166 -10 44.499s-1.5 32.5 -1.5 48.5
v330h-77v-375c0 -31.333 4.16699 -57.166 12.5 -77.499s19.166 -36.5 32.499 -48.5s28.666 -20.333 45.999 -25s34.666 -7 51.999 -7c16.667 0 32.667 0.666992 48 2s31.333 4.5 48 9.5s34.5 12.167 53.5 21.5s40.5 21.666 64.5 36.999v-62h69zM440.003 659.004v90h-90v-90
h90zM240.003 659.004v90h-90v-90h90z" />
    <glyph glyph-name="yacute" unicode="&#xfd;" horiz-adv-x="511" 
d="M504 525h-85l-153 -464h-12l-158 464h-88l189 -525h47l-88 -220h80zM392 750h-103l-77 -146h50z" />
    <glyph glyph-name="thorn" unicode="&#xfe;" horiz-adv-x="587" 
d="M545 270c0 88 -18.998 154.5 -56.998 199.5s-95.333 67.5 -172 67.5c-4 0 -11.5 -0.333008 -22.5 -1s-23.833 -3.33398 -38.5 -8.00098s-30.334 -11.667 -47.001 -21s-32.667 -22.666 -48 -39.999v283h-76v-911h76v163c23.333 -1.33301 42.666 -1.83301 57.999 -1.5
s28.666 0.5 39.999 0.5c40.667 0 78.5 5.83301 113.5 17.5s65.333 28.667 91 51s45.834 50.333 60.501 84s22 72.5 22 116.5zM466.002 272c0 -44 -6.83594 -79.832 -20.5029 -107.499s-32.167 -49.334 -55.5 -65.001s-50.166 -26.5 -80.499 -32.5s-61.833 -9 -94.5 -9
c-6.66699 0 -14.167 0.166992 -22.5 0.5s-19.166 1.5 -32.499 3.5v352c26.667 24 51 39.5 73 46.5s44.667 10.5 68 10.5c56.667 0 98.334 -16.5 125.001 -49.5s40 -82.833 40 -149.5z" />
    <glyph glyph-name="ydieresis" unicode="&#xff;" horiz-adv-x="511" 
d="M504 525h-85l-153 -464h-12l-158 464h-88l189 -525h47l-88 -220h80zM402 659v90h-90v-90h90zM202 659v90h-90v-90h90z" />
    <glyph glyph-name="OE" unicode="&#x152;" horiz-adv-x="810" 
d="M780 0v64h-275v264h220v64h-220v244h270v64h-458c-38.667 0 -74 -6 -106 -18s-59.5 -31.667 -82.5 -59s-41 -63.333 -54 -108s-19.5 -100 -19.5 -166c0 -62 6 -115 18 -159s29.333 -80.167 52 -108.5s50.167 -49 82.5 -62s68.833 -19.5 109.5 -19.5h463zM423 639
v-149.001v-140v-140v-149c-26.667 0 -52.167 0.166992 -76.5 0.5s-46.833 2.83301 -67.5 7.5s-39.5 12.5 -56.5 23.5s-31.5 27.167 -43.5 48.5s-21.167 48.833 -27.5 82.5s-9.5 75.5 -9.5 125.5s3.16699 91.833 9.5 125.5s15.5 61.334 27.5 83.001s26.5 38 43.5 49
s35.833 19 56.5 24s43.167 7.66699 67.5 8s49.833 0.5 76.5 0.5z" />
    <glyph glyph-name="oe" unicode="&#x153;" horiz-adv-x="828" 
d="M798 239c0 46 -3.16895 87.3301 -9.50195 123.997s-17 67.834 -32 93.501s-35.167 45.167 -60.5 58.5s-56.666 20 -93.999 20c-16 0 -32 -1.33301 -48 -4s-31.667 -8 -47 -16s-29.666 -19 -42.999 -33s-25.333 -32.333 -36 -55c-12 22.667 -24.667 41 -38 55
s-27.166 25 -41.499 33s-29.5 13.333 -45.5 16s-32.333 4 -49 4c-65.333 0 -115.666 -23.333 -150.999 -70s-53 -113.667 -53 -201s17.667 -155.166 53 -203.499s85.666 -72.5 150.999 -72.5c16.667 0 33.667 2.16699 51 6.5s33.833 11.5 49.5 21.5s30 23.333 43 40
s23.5 37.667 31.5 63c8 -24.667 18.667 -45.5 32 -62.5s28.833 -30.667 46.5 -41s37.167 -17.666 58.5 -21.999s43.666 -6.5 66.999 -6.5c17.333 0 37.5 1.33301 60.5 4s47.167 9 72.5 19v55c-16 -5.33301 -34 -10.166 -54 -14.499s-45.333 -6.5 -76 -6.5
c-50 0 -89.5 16.667 -118.5 50s-43.5 81.666 -43.5 144.999h324zM387.998 263.997c0 -26 -2.33301 -51.998 -7 -77.998s-12.167 -49.5 -22.5 -70.5s-24.166 -38 -41.499 -51s-38.333 -19.5 -63 -19.5c-25.333 0 -46.166 6.66699 -62.499 20s-29.333 30.5 -39 51.5
s-16.5 44.5 -20.5 70.5s-6 51.667 -6 77c0 26 2 52 6 78s10.833 49.167 20.5 69.5s22.667 36.833 39 49.5s37.166 19 62.499 19c24.667 0 45.667 -6.66699 63 -20s31.166 -30.333 41.499 -51s17.833 -43.834 22.5 -69.501s7 -50.834 7 -75.501zM717.998 291.999h-243.999
c0 22.667 2 45.334 6 68.001s10.833 43.167 20.5 61.5s22.667 33.166 39 44.499s37.166 17 62.499 17c22 0 40.5 -5 55.5 -15s26.833 -23.833 35.5 -41.5s15 -38 19 -61s6 -47.5 6 -73.5z" />
    <glyph glyph-name="Scaron" unicode="&#x160;" horiz-adv-x="552" 
d="M512 204c0 41.333 -9.33691 73.6689 -28.0039 97.002s-42 41.666 -70 54.999s-58.167 23.833 -90.5 31.5s-62.5 16.667 -90.5 27s-51.333 24 -70 41s-28 41.167 -28 72.5c0 24.667 6.16699 44.834 18.5 60.501s27.833 27.667 46.5 36s38.5 14 59.5 17
s40.167 4.5 57.5 4.5c24 0 48 -1.66699 72 -5s48 -7.66602 72 -12.999v64c-16 4 -37.167 8.33301 -63.5 13s-56.833 7 -91.5 7c-36.667 0 -70.167 -3.83301 -100.5 -11.5s-56.5 -19.334 -78.5 -35.001s-39.167 -35.334 -51.5 -59.001s-18.5 -51.834 -18.5 -84.501
c0 -33.333 5.33301 -61.166 16 -83.499s24.834 -40.666 42.501 -54.999s37.667 -25.833 60 -34.5s45 -16.334 68 -23.001l68 -19.5c22.333 -6.33301 42.333 -14.333 60 -24s31.834 -21.834 42.501 -36.501s16 -34 16 -58c0 -26 -6.16699 -47.667 -18.5 -65
s-28.166 -31 -47.499 -41s-40.666 -17.167 -63.999 -21.5s-46 -6.5 -68 -6.5c-32 0 -63.833 2.66699 -95.5 8s-58.167 10.666 -79.5 15.999v-70c15.333 -4 37.666 -8.33301 66.999 -13s66 -7 110 -7c60 0 108.167 7.33301 144.5 22s64.333 32.834 84 54.501
s32.834 45 39.501 70s10 48.167 10 69.5zM434.996 908.003h-60l-97 -124l-99 124h-60l107 -158h106z" />
    <glyph glyph-name="scaron" unicode="&#x161;" horiz-adv-x="504" 
d="M446 152c0 28 -5.83691 50.8369 -17.5039 68.5039s-26.5 32 -44.5 43s-38 19.5 -60 25.5s-43.333 11.333 -64 16c-11.333 2 -24.5 4.66699 -39.5 8s-29.5 8.33301 -43.5 15s-25.833 15.167 -35.5 25.5s-14.5 23.833 -14.5 40.5c0 18 4.83301 32.5 14.5 43.5
s21.834 19.5 36.501 25.5s30.334 10 47.001 12s32 3 46 3c26 0 51.5 -1.66699 76.5 -5s46.167 -6.66602 63.5 -9.99902v59c-15.333 2.66699 -36 5.66699 -62 9s-57.667 5 -95 5c-26 0 -51.333 -2.5 -76 -7.5s-46.5 -13.167 -65.5 -24.5s-34.333 -26.5 -46 -45.5
s-17.5 -42.833 -17.5 -71.5c0 -24 4.33301 -44.167 13 -60.5s20 -29.833 34 -40.5s29.833 -19.334 47.5 -26.001s35.5 -12.334 53.5 -17.001c14.667 -4 31.834 -7.83301 51.501 -11.5s38 -9 55 -16s31.5 -16.5 43.5 -28.5s18 -28.333 18 -49
c0 -18.667 -5 -33.834 -15 -45.501s-22.667 -20.834 -38 -27.501s-32.5 -11.334 -51.5 -14.001s-37.5 -4 -55.5 -4c-26.667 0 -53 2.16699 -79 6.5s-50.667 9.16602 -74 14.499v-61c24 -5.33301 50.167 -9.66602 78.5 -12.999s57.5 -5 87.5 -5
c76.667 0 133.834 14.833 171.501 44.5s56.5 69.167 56.5 118.5zM401.996 780.004h-60l-97 -124l-99 124h-60l107 -157h107z" />
    <glyph glyph-name="Ydieresis" unicode="&#x178;" horiz-adv-x="570" 
d="M571 700h-86l-190 -348h-8l-190 348h-97l245 -425l-2 -275h85l-2 275zM434 781v90h-91v-91zM233 780v91h-90v-91h90z" />
    <glyph glyph-name="florin" unicode="&#x192;" horiz-adv-x="461" 
d="M318 700l-58 -0.000976562c-26 0 -48 -1.83301 -66 -5.5s-33.333 -10.667 -46 -21s-22.5 -25.166 -29.5 -44.499s-12.5 -44.666 -16.5 -75.999l-11 -85h-65l-6 -54h65l-73 -603h76l72 603h123l7 54h-124l10 81c2.66699 24 6.5 42.5 11.5 55.5s12 22.667 21 29
s21.167 10.166 36.5 11.499s35 2 59 2h8z" />
    <glyph glyph-name="circumflex" unicode="&#x2c6;" horiz-adv-x="256" 
d="M286 622l-102 158h-106l-108 -158h60l99 124l97 -124h60z" />
    <glyph glyph-name="tilde" unicode="&#x2dc;" horiz-adv-x="248" 
d="M287 757l-37.001 0.000976562c-2.66699 -16 -7.5 -29 -14.5 -39s-17.5 -15 -31.5 -15c-9.33301 0 -19.666 2.5 -30.999 7.5l-36.5 16.5c-13 6 -26.667 11.5 -41 16.5s-28.833 7.5 -43.5 7.5c-28 0 -49.333 -10.167 -64 -30.5s-23 -48.5 -25 -84.5h38
c2 15.333 6.5 28.166 13.5 38.499s18.167 15.5 33.5 15.5c8.66699 0 18.334 -2.5 29.001 -7.5l35.5 -17c13 -6.33301 27 -12 42 -17s31.167 -7.5 48.5 -7.5c25.333 0 45.166 10.333 59.499 31s22.5 49 24.5 85z" />
    <glyph glyph-name="endash" unicode="&#x2013;" horiz-adv-x="593" 
d="M452 268v64h-430v-64h430z" />
    <glyph glyph-name="emdash" unicode="&#x2014;" horiz-adv-x="773" 
d="M708 268v64h-686v-64h686z" />
    <glyph glyph-name="quoteleft" unicode="&#x2018;" horiz-adv-x="287" 
d="M190 711h-51l-62 -237h102z" />
    <glyph glyph-name="quoteright" unicode="&#x2019;" horiz-adv-x="275" 
d="M190 711h-102l-11 -237h51z" />
    <glyph glyph-name="quotesinglbase" unicode="&#x201a;" horiz-adv-x="280" 
d="M173 146h-102l-11 -237h51z" />
    <glyph glyph-name="quotedblleft" unicode="&#x201c;" horiz-adv-x="484" 
d="M393 711h-54l-62 -237h98zM188 711h-54l-62 -237h98z" />
    <glyph glyph-name="quotedblright" unicode="&#x201d;" horiz-adv-x="484" 
d="M394 711h-98l-18 -237h54zM189 711h-98l-18 -237h54z" />
    <glyph glyph-name="quotedblbase" unicode="&#x201e;" horiz-adv-x="472" 
d="M383 145h-98l-18 -237h54zM178 145h-98l-18 -237h54z" />
    <glyph glyph-name="dagger" unicode="&#x2020;" horiz-adv-x="525" 
d="M485 459v71l-190 -3l2 253h-69l2 -253l-190 3v-71l190 3l-2 -623h70l-2 623z" />
    <glyph glyph-name="daggerdbl" unicode="&#x2021;" horiz-adv-x="525" 
d="M485 459v71l-190 -3l2 253h-69l2 -253l-190 3v-71l190 3v-261l-150 3v-71l150 3l-2 -297h69l-2 297l150 -3v71l-149 -3v261z" />
    <glyph glyph-name="bullet" unicode="&#x2022;" horiz-adv-x="468" 
d="M387 347c0 22 -4.16699 42.5 -12.5 61.5s-19.666 35.667 -33.999 50s-31 25.666 -50 33.999s-39.5 12.5 -61.5 12.5s-42.5 -4.16699 -61.5 -12.5s-35.667 -19.666 -50 -33.999s-25.666 -31 -33.999 -50s-12.5 -39.5 -12.5 -61.5s4.16699 -42.5 12.5 -61.5
s19.666 -35.667 33.999 -50s31 -25.666 50 -33.999s39.5 -12.5 61.5 -12.5s42.5 4.16699 61.5 12.5s35.667 19.666 50 33.999s25.666 31 33.999 50s12.5 39.5 12.5 61.5z" />
    <glyph glyph-name="ellipsis" unicode="&#x2026;" horiz-adv-x="795" 
d="M745 0v105h-105v-105h105zM155 0v105h-105v-105h105zM450 0v105h-105v-105h105z" />
    <glyph glyph-name="perthousand" unicode="&#x2030;" horiz-adv-x="1191" 
d="M352 517c0 36.667 -3.83301 67.5 -11.5 92.5s-18 45.167 -31 60.5s-28.333 26.333 -46 33s-36.834 10 -57.501 10c-20 0 -39 -3.33301 -57 -10s-33.5 -17.667 -46.5 -33s-23.333 -35.5 -31 -60.5s-11.5 -55.833 -11.5 -92.5s3.5 -67.5 10.5 -92.5s17 -45.167 30 -60.5
s28.5 -26.333 46.5 -33s37.667 -10 59 -10c20.667 0 39.834 3.33301 57.501 10s33 17.667 46 33s23.333 35.5 31 60.5s11.5 55.833 11.5 92.5zM1131 185c0 36 -3.83301 66.5 -11.5 91.5s-18 45.333 -31 61s-28.5 26.834 -46.5 33.501s-37 10 -57 10s-39 -3.33301 -57 -10
s-33.5 -17.834 -46.5 -33.501s-23.333 -36 -31 -61s-11.5 -55.5 -11.5 -91.5c0 -36.667 3.5 -67.5 10.5 -92.5s17 -45.167 30 -60.5s28.333 -26.333 46 -33s37.5 -10 59.5 -10c20 0 39 3.33301 57 10s33.5 17.667 46.5 33s23.333 35.5 31 60.5s11.5 55.833 11.5 92.5z
M776 185c0 36 -3.83301 66.5 -11.5 91.5s-18 45.333 -31 61s-28.5 26.834 -46.5 33.501s-37 10 -57 10s-39 -3.33301 -57 -10s-33.5 -17.834 -46.5 -33.501s-23.333 -36 -31 -61s-11.5 -55.5 -11.5 -91.5c0 -36.667 3.5 -67.5 10.5 -92.5s17 -45.167 30 -60.5
s28.5 -26.333 46.5 -33s37.667 -10 59 -10c20 0 39 3.33301 57 10s33.5 17.667 46.5 33s23.333 35.5 31 60.5s11.5 55.833 11.5 92.5zM692 710l-47 31l-503 -748l47 -30zM1067 185c0 -47.333 -7.16699 -82.666 -21.5 -105.999s-34.5 -35 -60.5 -35s-46.167 11.667 -60.5 35
s-21.5 58.666 -21.5 105.999c0 44 7.16699 78.5 21.5 103.5s34.5 37.5 60.5 37.5s46.167 -12.5 60.5 -37.5s21.5 -59.5 21.5 -103.5zM712 185c0 -47.333 -7.16699 -82.666 -21.5 -105.999s-34.5 -35 -60.5 -35s-46 11.667 -60 35s-21 58.666 -21 105.999
c0 44 7 78.5 21 103.5s34 37.5 60 37.5s46.167 -12.5 60.5 -37.5s21.5 -59.5 21.5 -103.5zM288 517c0 -47.333 -7.16699 -82.666 -21.5 -105.999s-34.5 -35 -60.5 -35s-46 11.667 -60 35s-21 58.666 -21 105.999c0 44 7 78.5 21 103.5s34 37.5 60 37.5
s46.167 -12.5 60.5 -37.5s21.5 -59.5 21.5 -103.5z" />
    <glyph glyph-name="guilsinglleft" unicode="&#x2039;" horiz-adv-x="392" 
d="M245 525h-80l-115 -232l115 -233h80l-105 233z" />
    <glyph glyph-name="guilsinglright" unicode="&#x203a;" horiz-adv-x="385" 
d="M245 293l-115 232h-80l104 -232l-104 -233h80z" />
    <glyph glyph-name="trademark" unicode="&#x2122;" horiz-adv-x="908" 
d="M878 253l-51 447h-97l-98 -382l-98 382h-98l-52 -447h52l44 403h5l104 -403h77l106 403h4l43 -403h59zM365 651v49h-335v-49h139v-398h58v398h138z" />
    <glyph glyph-name=".null" horiz-adv-x="0" 
 />
    <glyph glyph-name="nonmarkingreturn" horiz-adv-x="500" 
 />
    <glyph glyph-name="minus" 
d="M582 306v75h-558v-75h558z" />
    <glyph glyph-name="nonbreakingspace" horiz-adv-x="311" 
 />
    <glyph glyph-name="Euro" horiz-adv-x="627" 
d="M612 3v63.002c-19.333 -4 -39 -7.16699 -59 -9.5s-44.333 -3.5 -73 -3.5c-76 0 -136.333 18.167 -181 54.5s-74.334 86.166 -89.001 149.499h255l24 60h-287c-0.666992 5.33301 -1 10.666 -1 15.999v18v22c0 7.33301 0.666992 14.666 2 21.999h315l24 60h-329
c16 59.333 46.167 106.166 90.5 140.499s103.833 51.5 178.5 51.5c16 0 29.833 -0.333008 41.5 -1s22.334 -1.66699 32.001 -3l28 -4c9 -1.33301 18.5 -3 28.5 -5v65c-23.333 5.33301 -47 8.66602 -71 9.99902s-48.667 2 -74 2c-90 0 -164.667 -22.5 -224 -67.5
s-98.333 -107.833 -117 -188.5h-92l-24 -60h107c-0.666992 -7.33301 -1.16699 -14.666 -1.5 -21.999s-0.5 -14.666 -0.5 -21.999v-18c0 -5.33301 0.333008 -10.666 1 -15.999h-82l-24 -60h114c8 -42 21.833 -79.667 41.5 -113s44 -61.5 73 -84.5s62.333 -40.5 100 -52.5
s78.834 -18 123.501 -18c28 0 53.667 0.833008 77 2.5s47.666 5.5 72.999 11.5z" />
    <glyph glyph-name="eurocurrency" horiz-adv-x="628" 
d="M538 79l-55.002 58c27.333 42 41 86 41 132c0 45.333 -13.667 89 -41 131l55 58l-43 45l-55 -58c-40 29.333 -82 44 -126 44c-43.333 0 -85 -14.667 -125 -44l-55 58l-44 -45l55 -58c-27.333 -43.333 -41 -87 -41 -131c0 -45.333 14 -89.333 42 -132l-56 -58l44 -46
l55 58c40.667 -28.667 82.334 -43 125.001 -43s84.334 14.333 125.001 43l56 -58zM459.998 268c0 -21.333 -3.83301 -41.166 -11.5 -59.499s-18 -34.333 -31 -48s-28.333 -24.5 -46 -32.5s-36.5 -12 -56.5 -12s-38.833 4 -56.5 12s-33 18.833 -46 32.5
s-23.333 29.667 -31 48s-11.5 38.166 -11.5 59.499c0 20.667 3.83301 40.334 11.5 59.001s18 34.834 31 48.501s28.333 24.5 46 32.5s36.5 12 56.5 12s38.833 -4 56.5 -12s33 -18.833 46 -32.5s23.333 -29.834 31 -48.501s11.5 -38.334 11.5 -59.001z" />
    </font>
</defs>
</svg>
