<?xml version="1.0" standalone="no"?>
<!DOCTYPE svg PUBLIC "-//W3C//DTD SVG 1.1//EN" "http://www.w3.org/Graphics/SVG/1.1/DTD/svg11.dtd" >
<svg>
<metadata>
Created by FontForge 20090914 at Wed Dec 17 11:19:47 2014
 By www-data
2000 Ole Soendergaard, published by Fontshop International for the FontFont library.
</metadata>
<defs>
<font id="SignaColumn-Bold" horiz-adv-x="640" >
  <font-face 
    font-family="SignaColumn-Bold"
    font-weight="400"
    font-stretch="normal"
    units-per-em="1000"
    panose-1="2 0 5 3 5 0 0 2 0 4"
    ascent="800"
    descent="-200"
    x-height="525"
    cap-height="700"
    bbox="-287 -226 1206 932"
    underline-thickness="20"
    underline-position="-123"
    unicode-range="U+0005-U+2122"
  />
<missing-glyph horiz-adv-x="1000" 
 />
    <glyph glyph-name=".notdef" horiz-adv-x="1000" 
 />
    <glyph glyph-name="breve" horiz-adv-x="269" 
d="M302 750h-89.001c0 -34.667 -5.66699 -61.167 -17 -79.5s-32 -27.5 -62 -27.5s-50.667 9 -62 27s-17 44.667 -17 80h-88c0 -49.333 14.5 -89 43.5 -119s70.5 -45 124.5 -45c24 0 46.333 4 67 12s38.334 19.167 53.001 33.5s26.167 31.5 34.5 51.5s12.5 42.333 12.5 67z
" />
    <glyph glyph-name="dotaccent" horiz-adv-x="635" 
d="M395 618v152h-155v-152h155z" />
    <glyph glyph-name="ring" horiz-adv-x="273" 
d="M279 683c0 14 -3.49805 27.334 -10.498 40.001s-16.833 23.667 -29.5 33s-27.834 16.666 -45.501 21.999s-36.834 8 -57.501 8c-41.333 0 -75.333 -9.83301 -102 -29.5s-40 -44.5 -40 -74.5s13.167 -54.667 39.5 -74s60.166 -29 101.499 -29
c20.667 0 39.834 2.66699 57.501 8s33 12.666 46 21.999s23 20.333 30 33s10.5 26.334 10.5 41.001zM201.002 682.001c-0.666992 -14.667 -7.33105 -27.167 -19.998 -37.5s-28.667 -15.5 -48 -15.5c-18.667 0 -33.5 5 -44.5 15s-16.5 22.667 -16.5 38
s5.66699 28.166 17 38.499s26.666 15.5 45.999 15.5s35.166 -5.16699 47.499 -15.5s18.5 -23.166 18.5 -38.499z" />
    <glyph glyph-name="hungarumlaut" unicode="&#xa;" horiz-adv-x="526" 
d="M336 604l170 146h-164l-101 -146h95zM114 604l171 146h-164l-101 -146h94z" />
    <glyph glyph-name="ogonek" horiz-adv-x="319" 
d="M175 -226c15.333 0 31.502 2.83301 48.502 8.5s32.833 12.167 47.5 19.5l-34 70l-28.5 -11.5c-9 -3.66699 -19.167 -5.5 -30.5 -5.5c-8 0 -15 2.5 -21 7.5s-9 9.5 -9 13.5c0 14.667 2.5 27.5 7.5 38.5s11.667 21 20 30s17.666 17.5 27.999 25.5l32.5 24l-65 43l-36 -27
c-14 -10.667 -27.5 -23 -40.5 -37s-24 -29.667 -33 -47s-13.5 -35.666 -13.5 -54.999c0 -12.667 3.33301 -24.834 10 -36.501s15.667 -22 27 -31s24.666 -16.167 39.999 -21.5s32 -8 50 -8z" />
    <glyph glyph-name="caron" horiz-adv-x="283" 
d="M-52 795l129 -168h123l135 168h-97l-98 -107l-95 107h-97z" />
    <glyph glyph-name="dotlessi" unicode="&#xd;" horiz-adv-x="298" 
d="M221 0v525h-142v-525h142z" />
    <glyph glyph-name="fraction" horiz-adv-x="73" 
d="M-214 -43l521 744l-73 45l-521 -743z" />
    <glyph glyph-name="fi" horiz-adv-x="667" 
d="M589 609v140.998h-321c-21.333 0 -41.333 -1.16699 -60 -3.5s-36.667 -10.166 -54 -23.499c-24.667 -18.667 -40.667 -41 -48 -67s-11 -54 -11 -84v-47h-71v-100h71v-425h142v425h129v100h-129v36c0 20.667 1.5 37.334 4.5 50.001s8.16699 22.5 15.5 29.5
s17.5 11.667 30.5 14s29.5 3.5 49.5 3.5h111v-49h141zM589 -0.00195312v525h-141v-525h141z" />
    <glyph glyph-name="fl" horiz-adv-x="676" 
d="M598 0v749.997h-330c-21.333 0 -41.333 -1.16699 -60 -3.5s-36.667 -10.166 -54 -23.499c-24.667 -18.667 -40.667 -41 -48 -67s-11 -54 -11 -84v-47h-71v-100h71v-425h142v425h129v100h-129v36c0 20.667 1.5 37.334 4.5 50.001s8.16699 22.334 15.5 29.001
s17.5 11 30.5 13s29.5 3 49.5 3h119v-656h142z" />
    <glyph glyph-name="Lslash" horiz-adv-x="541" 
d="M235 700h-147v-265l-112 -33l24 -86l88 26v-342h450v112h-303v274l186 55l-25 86l-161 -48v221z" />
    <glyph glyph-name="lslash" horiz-adv-x="313" 
d="M-24 272l121 37v-309h145v353l147 45l-25 85l-122 -37v254h-145v-298l-145 -44z" />
    <glyph glyph-name="Zcaron" horiz-adv-x="573" 
d="M549 0v109h-370l355 469v122h-497v-109h337l-350 -465v-126h525zM102 918l129 -168h123l135 168h-97l-98 -107l-95 107h-97z" />
    <glyph glyph-name="zcaron" horiz-adv-x="472" 
d="M464 0l-0.00195312 101.002c-31.333 -0.666992 -56 -1 -74 -1c-17.333 0 -30.5 -0.166992 -39.5 -0.5s-15.167 -0.5 -18.5 -0.5h-7h-9c-3.33301 0 -10 -0.166992 -20 -0.5s-24.667 -0.5 -44 -0.5s-45.666 -0.333008 -78.999 -1l103.5 107.5l74 77.5l50 52.5l32 33.5
l19.5 20.5c4.66699 5 8.66699 9.5 12 13.5v123h-429v-103c2.66699 0 14.167 0.166992 34.5 0.5s44 0.666016 71 0.999023l82 1c27.667 0.333008 50.334 0.666016 68.001 0.999023s27.167 0.5 28.5 0.5l-60 -63l-66.5 -69.5l-65.5 -68.5l-56.5 -58.5l-39.5 -41l-15 -15.5
v-110h448zM61.998 802.002l129 -168h123l135 168h-97l-98 -107l-95 107h-97z" />
    <glyph glyph-name="space" unicode=" " horiz-adv-x="319" 
 />
    <glyph glyph-name="space" unicode="&#xa0;" horiz-adv-x="319" 
 />
    <glyph glyph-name="exclam" unicode="!" horiz-adv-x="354" 
d="M304 700h-154.001c0 -0.666992 0.5 -9.66699 1.5 -27l4 -70.5c1.66699 -29.667 3.33398 -61.667 5.00098 -96s3.5 -69.333 5.5 -105l5.5 -97c1.66699 -29 3 -53 4 -72s1.5 -29.167 1.5 -30.5h99c0 1.33301 0.5 11.5 1.5 30.5s2.33301 43 4 72l5.5 97l6 105l5.5 96l4 70.5
c1 17.333 1.5 26.333 1.5 27zM296.999 134h-141v-134h141v134z" />
    <glyph glyph-name="quotedbl" unicode="&#x22;" horiz-adv-x="462" 
d="M394 711h-128l16 -267h79zM197 711h-129l16 -267h78z" />
    <glyph glyph-name="numbersign" unicode="#" horiz-adv-x="645" 
d="M595 495h-107l33 205h-89l-34 -206h-104l32 206h-89l-34 -206h-106l-13 -80h107l-21 -129h-107l-13 -80h107l-33 -205h90l33 205h105l-33 -205h90l33 205h106l13 80h-106l20 130h106zM386 415l-21 -130h-105l21 130h105z" />
    <glyph glyph-name="dollar" unicode="$" horiz-adv-x="632" 
d="M552 226c0 20.667 -3.49707 40.668 -10.4971 60.001s-18 37.166 -33 53.499s-34.167 30.833 -57.5 43.5s-51 22.667 -83 30l-45.5 10.5c-16.333 3.66699 -31.333 8.83398 -45 15.501s-25.167 15.667 -34.5 27s-14 26.333 -14 45c0 12.667 3.66699 23.667 11 33
s17 17 29 23s25.833 10.333 41.5 13s31.5 4 47.5 4c16.667 0 34.167 -1 52.5 -3s35.166 -4.16699 50.499 -6.5s28 -4.5 38 -6.5l15 -3v99c-11.333 4 -30.333 8.66699 -57 14s-58 8.66602 -94 9.99902v92h-91v-96c-26.667 -4 -51.667 -10.667 -75 -20
s-43.666 -21.666 -60.999 -36.999s-31 -33.833 -41 -55.5s-15 -46.834 -15 -75.501c0 -54 16 -96.333 48 -127s76 -52.667 132 -66c28 -6.66699 51 -13 69 -19s32.5 -12.667 43.5 -20s18.667 -15.833 23 -25.5s6.5 -21.167 6.5 -34.5c0 -14 -3.66699 -26.333 -11 -37
s-17.333 -19.5 -30 -26.5s-27.334 -12.333 -44.001 -16s-34.334 -5.5 -53.001 -5.5s-38.334 1.33301 -59.001 4s-40 5.66699 -58 9s-33.167 6.5 -45.5 9.5s-19.166 4.83301 -20.499 5.5v-109l14 -3.5c9.33301 -2.33301 22.5 -4.83301 39.5 -7.5
s37.167 -5.33398 60.5 -8.00098s49 -4 77 -4v-96h91v101c40.667 6 73.5 16.833 98.5 32.5s44.167 33.334 57.5 53.001s22.166 40.167 26.499 61.5s6.5 41 6.5 59z" />
    <glyph glyph-name="percent" unicode="%" horiz-adv-x="883" 
d="M393 526c0 32.667 -4.33398 60.834 -13.001 84.501s-20.667 43.167 -36 58.5s-33.166 26.666 -53.499 33.999s-41.833 11 -64.5 11c-22 0 -43 -3.5 -63 -10.5s-37.667 -18 -53 -33s-27.5 -34.5 -36.5 -58.5s-13.5 -52.667 -13.5 -86s4.33301 -62 13 -86
s20.5 -43.5 35.5 -58.5s32.5 -26 52.5 -33s41.667 -10.5 65 -10.5c24 0 46.167 3.66699 66.5 11s38 18.666 53 33.999s26.667 34.833 35 58.5s12.5 51.834 12.5 84.501zM822.999 178c0 32.667 -4.33398 60.834 -13.001 84.501s-20.5 43.167 -35.5 58.5
s-32.667 26.666 -53 33.999s-41.833 11 -64.5 11c-22 0 -43.167 -3.5 -63.5 -10.5s-38.166 -18 -53.499 -33s-27.5 -34.5 -36.5 -58.5s-13.5 -52.667 -13.5 -86s4.33301 -62 13 -86s20.667 -43.5 36 -58.5s33 -26 53 -33s41.667 -10.5 65 -10.5c24 0 46 3.66699 66 11
s37.5 18.666 52.5 33.999s26.667 34.833 35 58.5s12.5 51.834 12.5 84.501zM732.998 701l-60 39l-525 -737l59 -39zM728.998 178c0 -17.333 -1.33301 -33.333 -4 -48s-6.83398 -27.667 -12.501 -39s-13 -20.166 -22 -26.499s-20.167 -9.5 -33.5 -9.5
s-24.666 3.16699 -33.999 9.5s-17 15.166 -23 26.499s-10.333 24.333 -13 39s-4 30.667 -4 48c0 16.667 1.33301 32.5 4 47.5s7 28.167 13 39.5s13.667 20.166 23 26.499s20.666 9.5 33.999 9.5s24.5 -3.16699 33.5 -9.5s16.333 -15.166 22 -26.499
s9.83398 -24.5 12.501 -39.5s4 -30.833 4 -47.5zM298.998 526c0 -17.333 -1.33301 -33.333 -4 -48s-6.83398 -27.667 -12.501 -39s-13.167 -20.166 -22.5 -26.499s-20.666 -9.5 -33.999 -9.5s-24.666 3.16699 -33.999 9.5s-16.833 15.166 -22.5 26.499
s-9.83398 24.333 -12.501 39s-4 30.667 -4 48c0 16.667 1.33301 32.5 4 47.5s6.83398 28.167 12.501 39.5s13.167 20.166 22.5 26.499s20.666 9.5 33.999 9.5s24.666 -3.16699 33.999 -9.5s16.833 -15.166 22.5 -26.499s9.83398 -24.5 12.501 -39.5s4 -30.833 4 -47.5z" />
    <glyph glyph-name="ampersand" unicode="&#x26;" horiz-adv-x="850" 
d="M790 324l0.00195312 102.999h-248v-177c0 -37.333 -6.66699 -66.333 -20 -87s-28.666 -36 -45.999 -46s-34.5 -16.167 -51.5 -18.5s-29.5 -3.5 -37.5 -3.5c-20.667 0 -40.334 2 -59.001 6s-35 10.667 -49 20s-25.167 21.833 -33.5 37.5s-12.5 35.167 -12.5 58.5
c0 29.333 6.83301 51.833 20.5 67.5s29.667 27 48 34s36.666 10.833 54.999 11.5s32.5 1 42.5 1v98c-11.333 0 -24.333 0.5 -39 1.5s-28.667 4.33301 -42 10s-24.666 15 -33.999 28s-14 31.5 -14 55.5c0 16 3.5 29.5 10.5 40.5s16.5 20 28.5 27s25.667 12.167 41 15.5
s31.666 5 48.999 5c28 0 51.833 -1.33301 71.5 -4s38.834 -5.66699 57.501 -9v14v31v33v19l-38.5 7.5c-11.667 2.33301 -23.667 4 -36 5s-25.5 1.83301 -39.5 2.5s-29.667 1 -47 1c-28 0 -56.5 -3.33301 -85.5 -10s-55.167 -17.334 -78.5 -32.001
s-42.333 -33.334 -57 -56.001s-22 -50.334 -22 -83.001c0 -26 5 -47.667 15 -65s21.667 -31.5 35 -42.5s26.666 -19.167 39.999 -24.5s23.333 -8.66602 30 -9.99902v-12c-6.66699 -1.33301 -19 -4.5 -37 -9.5s-36.333 -13.667 -55 -26s-35.334 -28.666 -50.001 -48.999
s-22 -46.166 -22 -77.499c0 -44.667 8.83301 -81.667 26.5 -111s41 -52.5 70 -69.5s61.833 -29 98.5 -36s74 -10.5 112 -10.5c42.667 0 82 5.66699 118 17s67 28.333 93 51s46.167 50.334 60.5 83.001s21.5 70.667 21.5 114v11v28v32h110z" />
    <glyph glyph-name="quotesingle" unicode="'" horiz-adv-x="302" 
d="M221 711h-140l14 -294h85z" />
    <glyph glyph-name="parenleft" unicode="(" horiz-adv-x="418" 
d="M255 -161l-10.5 40.001c-7 26.667 -14.5 62.167 -22.5 106.5s-15.5 95 -22.5 152s-10.5 116.167 -10.5 177.5c0 45.333 2.33301 90.833 7 136.5s10.167 87.667 16.5 126s12.833 73 19.5 104s12 54.667 16 71s6.33301 25.166 7 26.499h-76
c-0.666992 -1.33301 -4.66699 -10.166 -12 -26.499s-16.833 -40 -28.5 -71s-23.167 -65.667 -34.5 -104s-21 -80.333 -29 -126s-12 -91.167 -12 -136.5c0 -48.667 4 -96.834 12 -144.501s17.667 -91 29 -130s22.833 -74 34.5 -105s21.167 -54.5 28.5 -70.5
s11.333 -24.667 12 -26h76z" />
    <glyph glyph-name="parenright" unicode=")" horiz-adv-x="418" 
d="M355 315c0 45.333 -4 90.832 -12 136.499s-17.667 87.667 -29 126s-22.833 73 -34.5 104s-21.167 54.667 -28.5 71s-11.333 25.166 -12 26.499h-76c0.666992 -1.33301 3 -10.166 7 -26.499s9.33301 -40 16 -71s13.167 -65.667 19.5 -104s11.833 -80.333 16.5 -126
s7 -91.167 7 -136.5c0 -61.333 -3.5 -120.5 -10.5 -177.5s-14.5 -107.667 -22.5 -152s-15.5 -79.833 -22.5 -106.5l-10.5 -40h76c0.666992 1.33301 4.66699 10 12 26s16.833 39.5 28.5 70.5s23.167 66 34.5 105s21 82.333 29 130s12 95.834 12 144.501z" />
    <glyph glyph-name="asterisk" unicode="*" 
d="M570 539l-29 88l-182 -67l8 191h-94l8 -190l-182 66l-29 -88l187 -51l-121 -149l76 -54l108 158l107 -159l77 55l-121 149z" />
    <glyph glyph-name="plus" unicode="+" horiz-adv-x="620" 
d="M615 288v113h-244v234h-115v-234h-243v-113h243v-234h115v234h244z" />
    <glyph glyph-name="comma" unicode="," horiz-adv-x="335" 
d="M249 145h-159v-267h89l33.5 128z" />
    <glyph glyph-name="hyphen" unicode="-" horiz-adv-x="407" 
d="M337 244v113h-267v-113h267z" />
    <glyph glyph-name="period" unicode="." horiz-adv-x="335" 
d="M245 0v152h-155v-152h155z" />
    <glyph glyph-name="slash" unicode="/" horiz-adv-x="362" 
d="M357 743l-80 24l-272 -819l81 -24z" />
    <glyph glyph-name="zero" unicode="0" 
d="M586 350c0 63.333 -6.33301 117.999 -19 163.999s-30.834 83.833 -54.501 113.5s-52.5 51.5 -86.5 65.5s-72 21 -114 21c-40.667 0 -77.667 -6.83301 -111 -20.5s-62 -35.167 -86 -64.5s-42.667 -67 -56 -113s-20 -101.333 -20 -166s6.33301 -120 19 -166
s30.834 -83.667 54.501 -113s52.334 -50.833 86.001 -64.5s71.5 -20.5 113.5 -20.5c43.333 0 82 7 116 21s62.667 35.833 86 65.5s41.166 67.334 53.499 113.001s18.5 100.5 18.5 164.5zM441 349.999c0 -35.333 -1.83301 -69 -5.5 -101s-10.5 -60.167 -20.5 -84.5
s-23.333 -43.666 -40 -57.999s-38 -21.5 -64 -21.5s-47.333 7.16699 -64 21.5s-29.667 33.666 -39 57.999s-15.833 52.5 -19.5 84.5s-5.5 65.667 -5.5 101s1.83301 69 5.5 101s10.167 60.167 19.5 84.5s22.333 43.666 39 57.999s38 21.5 64 21.5s47.333 -7.16699 64 -21.5
s30 -33.666 40 -57.999s16.833 -52.5 20.5 -84.5s5.5 -65.667 5.5 -101z" />
    <glyph glyph-name="one" unicode="1" 
d="M522 0v105h-140v612l-272 -39v-94h129v-479h-129v-105h412z" />
    <glyph glyph-name="two" unicode="2" 
d="M535 -1v21.999v37v35v17h-333l131.5 101.5c40.333 29.667 75.333 59 105 88s52.834 59.667 69.501 92s25 70.166 25 113.499c0 41.333 -8 75.333 -24 102s-36.833 47.667 -62.5 63s-54.5 26 -86.5 32s-64 9 -96 9c-36 0 -68.5 -2.16699 -97.5 -6.5
s-56.167 -10.5 -81.5 -18.5v-110c15.333 4.66699 29.833 8.5 43.5 11.5s27 5.5 40 7.5s26.167 3.33301 39.5 4s27.666 1 42.999 1c16 0 31.667 -1.83301 47 -5.5s29 -9.5 41 -17.5s21.667 -18.5 29 -31.5s11 -28.5 11 -46.5c0 -29.333 -8 -57.666 -24 -84.999
s-38.167 -55.166 -66.5 -83.499s-61.833 -58.5 -100.5 -90.5l-125 -107v-134h472z" />
    <glyph glyph-name="three" unicode="3" 
d="M534 199c0 32 -6.49512 57.8301 -19.4951 77.4971s-28.167 35.334 -45.5 47.001s-35.166 20 -53.499 25s-32.833 8.83301 -43.5 11.5v13c10.667 2.66699 24.167 6.83398 40.5 12.501s32.166 14 47.499 25s28.5 25.833 39.5 44.5s16.5 42.667 16.5 72
c0 35.333 -7.5 64.833 -22.5 88.5s-34.5 42.5 -58.5 56.5s-50.667 23.833 -80 29.5s-58.333 8.5 -87 8.5c-44 0 -82.333 -2.5 -115 -7.5s-62.334 -11.167 -89.001 -18.5v-107l86.5 18.5c26.333 5.66699 55.166 8.5 86.499 8.5c40 0 71.167 -6.66699 93.5 -20
s33.5 -36.666 33.5 -69.999c0 -34.667 -13.333 -59.5 -40 -74.5s-70.667 -22.5 -132 -22.5v-106c21.333 0 42.833 -1 64.5 -3s41.167 -6.5 58.5 -13.5s31.333 -17.667 42 -32s16 -33.833 16 -58.5c0 -23.333 -4.5 -42 -13.5 -56s-20.833 -25 -35.5 -33
s-31.334 -13.333 -50.001 -16s-38 -4 -58 -4c-37.333 0 -70.5 3.5 -99.5 10.5s-51.167 13.167 -66.5 18.5v-110c12.667 -4 28 -7.5 46 -10.5s36.333 -5.5 55 -7.5s36.667 -3.66699 54 -5s32 -2 44 -2c29.333 0 60.666 3 93.999 9s64.166 16.833 92.499 32.5
s51.833 37.167 70.5 64.5s28 62 28 104z" />
    <glyph glyph-name="four" unicode="4" 
d="M559 711h-169l-354 -414v-162h362v-135h145v536h-12l-133 -146v-149h-237z" />
    <glyph glyph-name="five" unicode="5" 
d="M555 232c0 34 -6.33398 64.3281 -19.001 90.9951s-29.5 49.167 -50.5 67.5s-45.333 32.5 -73 42.5s-56.5 15 -86.5 15c-18 0 -32.667 -0.5 -44 -1.5s-23.666 -3.16699 -36.999 -6.5l8 149h274c1.33301 19.333 2.33301 38.5 3 57.5s1.33398 36.833 2.00098 53.5h-409
c-1.33301 -23.333 -2.83301 -51.5 -4.5 -84.5s-3.5 -66 -5.5 -99l-6 -95c-2 -30.333 -3.5 -54.166 -4.5 -71.499s-1.5 -26.666 -1.5 -27.999l75.5 13.5c24.333 4.33301 49.5 6.5 75.5 6.5c21.333 0 41.166 -2.16699 59.499 -6.5s34.166 -11.5 47.499 -21.5
s23.833 -23.167 31.5 -39.5s11.5 -36.5 11.5 -60.5c0 -20.667 -4.33301 -38.667 -13 -54s-20 -28 -34 -38s-29.833 -17.5 -47.5 -22.5s-35.5 -7.5 -53.5 -7.5c-16.667 0 -32.167 0.666992 -46.5 2s-28.166 3.16602 -41.499 5.49902s-26.5 4.83301 -39.5 7.5
s-26.5 5.66699 -40.5 9c-0.666992 -19.333 -1.5 -37.166 -2.5 -53.499s-2.16699 -33.833 -3.5 -52.5c28.667 -8 60.167 -14.167 94.5 -18.5s67.5 -6.5 99.5 -6.5c36.667 0 72 5.33301 106 16s64 26.334 90 47.001s46.667 46.334 62 77.001s23 66.334 23 107.001z" />
    <glyph glyph-name="six" unicode="6" 
d="M582 235c0 38 -6.00195 71.9971 -18.002 101.997s-29 55.167 -51 75.5s-48.167 35.833 -78.5 46.5s-63.833 16 -100.5 16c-24.667 0 -46.834 -3 -66.501 -9s-37.5 -13.667 -53.5 -23l-4 3c9.33301 21.333 24 42.166 44 62.499s41.833 39.333 65.5 57
s47.334 33.334 71.001 47.001s43.834 24.5 60.501 32.5c-7.33301 15.333 -15.666 30.333 -24.999 45s-17.666 30.334 -24.999 47.001c-51.333 -21.333 -98.833 -47.166 -142.5 -77.499s-81.5 -65 -113.5 -104s-57 -82 -75 -129s-27 -97.5 -27 -151.5
c0 -30.667 4.16699 -63.334 12.5 -98.001s22.833 -66.5 43.5 -95.5s48 -53.167 82 -72.5s77 -29 129 -29c38.667 0 74.667 5.83301 108 17.5s62.166 28.334 86.499 50.001s43.333 48.334 57 80.001s20.5 67.5 20.5 107.5zM434.998 232.997
c0 -21.333 -2.33301 -40.999 -7 -58.999s-12 -33.667 -22 -47s-23 -23.833 -39 -31.5s-35 -11.5 -57 -11.5c-20 0 -37.667 4.16699 -53 12.5s-28 19.5 -38 33.5s-17.5 30 -22.5 48s-7.5 36.333 -7.5 55c0 18 2.33301 35.5 7 52.5s12 32.167 22 45.5s22.5 24.166 37.5 32.499
s33.167 12.5 54.5 12.5c22 0 41 -3.66699 57 -11s29 -17.5 39 -30.5s17.333 -28.167 22 -45.5s7 -36 7 -56z" />
    <glyph glyph-name="seven" unicode="7" 
d="M571 594v106h-510v-114h361l-301 -586h158z" />
    <glyph glyph-name="eight" unicode="8" 
d="M584 188c0 38 -7.16797 69 -21.501 93s-30.833 43.333 -49.5 58s-37.5 25.334 -56.5 32.001s-32.833 11.667 -41.5 15v9c18 4.66699 35.167 11 51.5 19s30.833 17.667 43.5 29s22.834 25 30.501 41s11.5 34.667 11.5 56c0 30.667 -6.33301 57.334 -19 80.001
s-29.834 41.667 -51.501 57s-47.167 26.833 -76.5 34.5s-60.666 11.5 -93.999 11.5c-34 0 -66.5 -4.33301 -97.5 -13s-58 -21.5 -81 -38.5s-41.333 -38.167 -55 -63.5s-20.5 -55 -20.5 -89c0 -28 5.5 -52.333 16.5 -73s24 -38.167 39 -52.5s30.333 -25.666 46 -33.999
s28.5 -13.833 38.5 -16.5v-9c-16 -5.33301 -33 -11.5 -51 -18.5s-34.667 -16.833 -50 -29.5s-28 -28.834 -38 -48.501s-15 -44.834 -15 -75.501c0 -26 4.33301 -48.5 13 -67.5s20.167 -35.333 34.5 -49s30.833 -25 49.5 -34s37.834 -16 57.501 -21s39.167 -8.5 58.5 -10.5
s37 -3 53 -3c26.667 0 56.167 3.16699 88.5 9.5s62.166 17.5 89.499 33.5s50.333 37.667 69 65s28 61.666 28 102.999zM434.999 183c0 -22.667 -4.16797 -41.3311 -12.501 -55.998s-18.833 -26.334 -31.5 -35.001s-26.5 -14.667 -41.5 -18s-28.833 -5 -41.5 -5
c-11.333 0 -23.833 1.5 -37.5 4.5s-26.667 8.5 -39 16.5s-22.666 19 -30.999 33s-12.5 31.667 -12.5 53c0 20.667 4.16699 37.834 12.5 51.501s18.333 25 30 34s24 16.167 37 21.5s24.167 9.66602 33.5 12.999c8 -2 19.5 -5.33301 34.5 -10s29.833 -11.334 44.5 -20.001
s27.5 -19.667 38.5 -33s16.5 -30 16.5 -50zM407.998 531.003c0 -17.333 -4.00098 -32.498 -12.001 -45.498s-17.333 -24 -28 -33s-21.334 -15.833 -32.001 -20.5s-18.667 -7.33398 -24 -8.00098c-5.33301 1.33301 -14.166 4.33301 -26.499 9s-25 11.167 -38 19.5
s-24.333 19 -34 32s-14.5 28.5 -14.5 46.5c0 17.333 2.83301 32.166 8.5 44.499s13.167 22.5 22.5 30.5s20 13.833 32 17.5s24.667 5.5 38 5.5c32.667 0 58.834 -7.83301 78.501 -23.5s29.5 -40.5 29.5 -74.5z" />
    <glyph glyph-name="nine" unicode="9" 
d="M573 425c0 30.667 -3.99609 63.335 -11.9961 98.002s-22.333 66.5 -43 95.5s-48.334 53.167 -83.001 72.5s-79 29 -133 29c-39.333 0 -75.333 -5.83301 -108 -17.5s-60.834 -28.5 -84.501 -50.5s-42.167 -48.667 -55.5 -80s-20 -67 -20 -107c0 -38 6 -72 18 -102
s28.833 -55.167 50.5 -75.5s47.667 -35.833 78 -46.5s63.833 -16 100.5 -16c26.667 0 48.667 2.5 66 7.5s35.666 13.167 54.999 24.5l3 -3c-9.33301 -21.333 -23.833 -42.166 -43.5 -62.499s-41.167 -39.333 -64.5 -57s-46.833 -33.334 -70.5 -47.001
s-43.834 -24.5 -60.501 -32.5c7.33301 -15.333 15.5 -30.333 24.5 -45s17.167 -30.334 24.5 -47.001c51.333 21.333 98.833 47.166 142.5 77.499s81.5 65 113.5 104s57 82 75 129s27 97.5 27 151.5zM426.004 467.001c0 -17.333 -2.33691 -34.499 -7.00391 -51.499
s-12 -32.167 -22 -45.5s-22.667 -24.333 -38 -33s-33.666 -13 -54.999 -13c-22 0 -40.833 3.66699 -56.5 11s-28.667 17.5 -39 30.5s-17.833 28.167 -22.5 45.5s-7 36 -7 56s2.33301 39.167 7 57.5s11.834 34.166 21.501 47.499s22.334 24 38.001 32s34.5 12 56.5 12
c20.667 0 38.834 -4.16699 54.501 -12.5s28.667 -19.333 39 -33s18 -29.5 23 -47.5s7.5 -36.667 7.5 -56z" />
    <glyph glyph-name="colon" unicode=":" horiz-adv-x="336" 
d="M238 380v145h-148v-145h148zM238 0v145h-148v-145h148z" />
    <glyph glyph-name="semicolon" unicode=";" horiz-adv-x="336" 
d="M249 145h-159v-267h89l17 63.5l16 60l17 65zM238 380v145h-148v-145h148z" />
    <glyph glyph-name="less" unicode="&#x3c;" horiz-adv-x="620" 
d="M578 676h-170l-327 -339l327 -338h170l-326 338z" />
    <glyph glyph-name="equal" unicode="=" horiz-adv-x="620" 
d="M495 388v119h-388v-119h388zM495 180v119h-388v-119h388z" />
    <glyph glyph-name="greater" unicode="&#x3e;" horiz-adv-x="620" 
d="M81 676l326 -339l-326 -338h170l327 338l-327 339h-170z" />
    <glyph glyph-name="question" unicode="?" horiz-adv-x="579" 
d="M489 528c0 40 -8.33008 71.998 -24.9971 95.998s-37.334 42.5 -62.001 55.5s-50.834 21.5 -78.501 25.5s-52.834 6 -75.501 6s-43.667 -1.33301 -63 -4s-36 -5.5 -50 -8.5s-25 -5.83301 -33 -8.5l-12 -4v-102c25.333 8 51.666 13.333 78.999 16s51 3.66699 71 3
c10.667 0 22 -1.16699 34 -3.5s23 -6 33 -11s18.167 -11.833 24.5 -20.5s9.5 -19.667 9.5 -33c0 -12 -1.5 -22.167 -4.5 -30.5s-7 -16 -12 -23s-11 -14 -18 -21l-23.5 -23.5c-18 -18 -32 -34.167 -42 -48.5s-17.667 -27.666 -23 -39.999s-8.66602 -24.166 -9.99902 -35.499
s-2 -22.333 -2 -33v-75h114v53c0 9.33301 0.833008 18.166 2.5 26.499s5 16.833 10 25.5s12.5 18.167 22.5 28.5s23.333 22.5 40 36.5l23 19c10.667 8.66699 21.167 19.334 31.5 32.001s19.5 27.5 27.5 44.5s12 36.167 12 57.5zM334.003 -0.00195312v135h-141v-135h141z" />
    <glyph glyph-name="at" unicode="@" horiz-adv-x="867" 
d="M797 386c0 48.667 -9.33203 93.0029 -27.999 133.003s-44.334 74.167 -77.001 102.5s-71 50.333 -115 66s-91.333 23.5 -142 23.5s-98.167 -9.5 -142.5 -28.5s-83 -45 -116 -78s-59 -71.5 -78 -115.5s-28.5 -91 -28.5 -141s9.66699 -96.833 29 -140.5
s45.5 -81.667 78.5 -114s71.833 -57.833 116.5 -76.5s92.667 -28 144 -28c30 0 58.333 2.5 85 7.5s49.667 11.5 69 19.5v89c-21.333 -10.667 -45 -19 -71 -25s-54 -9 -84 -9c-40 0 -77 7.5 -111 22.5s-63.667 35.167 -89 60.5s-45.166 54.666 -59.499 87.999
s-21.5 68.666 -21.5 105.999c0 38 7.5 74 22.5 108s35.167 63.833 60.5 89.5s54.833 46 88.5 61s69.5 22.5 107.5 22.5c38.667 0 74.834 -5.5 108.501 -16.5s63 -26.833 88 -47.5s44.5 -45.834 58.5 -75.501s21 -63.167 21 -100.5c0 -16 -1.33301 -32.333 -4 -49
s-7 -32 -13 -46s-14.167 -25.5 -24.5 -34.5s-23.166 -13.5 -38.499 -13.5c-14.667 0 -25.834 6.16699 -33.501 18.5s-11.5 27.833 -11.5 46.5v205c-21.333 3.33301 -43.833 5.83301 -67.5 7.5s-52.5 2.5 -86.5 2.5c-32.667 0 -61 -4.83301 -85 -14.5
s-43.833 -22.5 -59.5 -38.5s-27.334 -34.5 -35.001 -55.5s-11.5 -42.833 -11.5 -65.5c0 -25.333 3.83301 -49 11.5 -71s19 -41.5 34 -58.5s33.5 -30.333 55.5 -40s47.333 -14.5 76 -14.5c28 0 52.167 4.5 72.5 13.5s35.166 20.167 44.499 33.5
c11.333 -15.333 24.333 -27 39 -35s32.667 -12 54 -12c20.667 0 41.167 4.5 61.5 13.5s38.5 22.5 54.5 40.5s28.833 40.667 38.5 68s14.5 59.333 14.5 96zM498.001 284.003c-4 -9.33301 -12.5 -18 -25.5 -26s-27.167 -12 -42.5 -12c-14.667 0 -27.5 3 -38.5 9
s-20.333 13.833 -28 23.5s-13.5 21 -17.5 34s-6 26.5 -6 40.5c0 23.333 4.66699 42.5 14 57.5s21.5 26.5 36.5 34.5s31.833 12.5 50.5 13.5s37.667 -0.833008 57 -5.5v-169z" />
    <glyph glyph-name="A" unicode="A" horiz-adv-x="704" 
d="M704 0l-250 700h-193l-261 -700h156l53 160h283l54 -160h158zM459 260h-217l101 321h18z" />
    <glyph glyph-name="B" unicode="B" horiz-adv-x="658" 
d="M613 190c0 38.667 -8.16602 68.999 -24.499 90.999s-34.5 38.5 -54.5 49.5s-38.167 17.667 -54.5 20l-24.5 3.5v14c20.667 5.33301 39.5 12.333 56.5 21s31.5 19.667 43.5 33s21.333 29 28 47s10 39 10 63c0 36.667 -8 66.167 -24 88.5s-36.5 39.333 -61.5 51
s-52.5 19.334 -82.5 23.001s-59 5.5 -87 5.5h-254v-700h254h27c15.333 -0 33.166 1.33301 53.499 4s41.833 7.5 64.5 14.5s43.667 17.5 63 31.5s35.333 32.333 48 55s19 51 19 85zM224.001 98.999v207.999h110c10 0 22.167 -0.333008 36.5 -1s28 -4.16699 41 -10.5
s24 -16.666 33 -30.999s13.5 -34.833 13.5 -61.5c0 -27.333 -4.5 -48 -13.5 -62s-20 -24.167 -33 -30.5s-26.667 -9.83301 -41 -10.5s-26.5 -1 -36.5 -1h-110zM224.001 404.998v201h100c10 0 21.667 -0.333008 35 -1s26.333 -4.16699 39 -10.5s23.334 -16.333 32.001 -30
s13 -33.5 13 -59.5s-4.33301 -45.833 -13 -59.5s-19.334 -23.5 -32.001 -29.5s-25.667 -9.33301 -39 -10s-25 -1 -35 -1h-100z" />
    <glyph glyph-name="C" unicode="C" horiz-adv-x="628" 
d="M477 602c16 0 32.167 -0.5 48.5 -1.5s31 -2.33301 44 -4l31.5 -4l12 -1.5v105l-14.5 2.5c-9.66699 1.66699 -22.667 3.5 -39 5.5s-35.333 3.83301 -57 5.5s-44.5 2.5 -68.5 2.5c-52 0 -101 -7.16699 -147 -21.5s-86.167 -36.166 -120.5 -65.499
s-61.5 -66.833 -81.5 -112.5s-30 -99.834 -30 -162.501s10 -116.834 30 -162.501s47.167 -83.167 81.5 -112.5s74.5 -51.166 120.5 -65.499s95 -21.5 147 -21.5c24 0 46.833 0.833008 68.5 2.5s40.667 3.5 57 5.5s29.333 3.83301 39 5.5l14.5 2.5v105l-12 -1.5l-31.5 -4
c-13 -1.66699 -27.667 -3 -44 -4s-32.5 -1.5 -48.5 -1.5c-44 0 -82.5 4.5 -115.5 13.5s-60.667 23.5 -83 43.5s-39 46 -50 78s-16.5 71 -16.5 117s5.5 85 16.5 117s27.667 58 50 78s50 34.5 83 43.5s71.5 13.5 115.5 13.5z" />
    <glyph glyph-name="D" unicode="D" horiz-adv-x="752" 
d="M697 350c0 60.667 -6.83301 111.498 -20.5 152.498s-31.5 74.5 -53.5 100.5s-47.167 45.667 -75.5 59s-57.166 22.833 -86.499 28.5s-57.833 8.66699 -85.5 9s-51.834 0.5 -72.501 0.5h-219v-700h219c20.667 0 44.834 0.166992 72.501 0.5s56.167 3.33301 85.5 9
s58.166 15.334 86.499 29.001s53.5 33.334 75.5 59.001s39.833 59 53.5 100s20.5 91.833 20.5 152.5zM543 349.998c0 -43.333 -3.66699 -79.333 -11 -108s-17.166 -52 -29.499 -70s-26.333 -31.667 -42 -41s-31.834 -15.833 -48.501 -19.5s-33 -5.5 -49 -5.5h-42h-93v489h93
h42c16 0 32.333 -2 49 -6s32.834 -10.667 48.501 -20s29.667 -23 42 -41s22.166 -41.5 29.499 -70.5s11 -64.833 11 -107.5z" />
    <glyph glyph-name="E" unicode="E" horiz-adv-x="584" 
d="M554 0v108h-324v197h222v106h-222v181h317v108h-463v-700h470z" />
    <glyph glyph-name="F" unicode="F" horiz-adv-x="581" 
d="M551 588v112h-467v-700h147v284h232v111h-232v193h320z" />
    <glyph glyph-name="G" unicode="G" horiz-adv-x="711" 
d="M651 18l0.000976562 304.998h-143v-218l-17 -2.5c-11.333 -1.66699 -28 -2.5 -50 -2.5c-42.667 0 -78.834 4.66699 -108.501 14s-53.667 24.166 -72 44.499s-31.666 46.333 -39.999 78s-12.5 69.5 -12.5 113.5c0 54 7.16699 97.333 21.5 130s33.5 58 57.5 76
s51.5 30 82.5 36s63.167 9 96.5 9c18.667 0 38 -0.666992 58 -2s38.167 -2.66602 54.5 -3.99902s29.666 -2.66602 39.999 -3.99902l15.5 -2v109l-15 2c-10 1.33301 -23 2.83301 -39 4.5s-34.333 3.16699 -55 4.5s-41.667 2 -63 2h-48c-23.333 0 -50 -2.66699 -80 -8
s-61.5 -14.666 -94.5 -27.999s-63.167 -33.333 -90.5 -60s-49.833 -61.5 -67.5 -104.5s-26.5 -96.5 -26.5 -160.5c0 -53.333 6.66699 -102.166 20 -146.499s34.833 -82.333 64.5 -114s68.167 -56.334 115.5 -74.001s105 -26.5 173 -26.5c26 0 52.167 1.5 78.5 4.5
s50.333 6.33301 72 10s39.167 7 52.5 10z" />
    <glyph glyph-name="H" unicode="H" horiz-adv-x="757" 
d="M673 0v700h-145v-285h-299v285h-145v-700h145v306h299v-306h145z" />
    <glyph glyph-name="I" unicode="I" horiz-adv-x="313" 
d="M229 0v700h-145v-700h145z" />
    <glyph glyph-name="J" unicode="J" horiz-adv-x="303" 
d="M219 59v640.997h-145v-643c0 -19.333 -1.66699 -36.666 -5 -51.999s-12.333 -29.666 -27 -42.999l-22 -20.5l-74 -68.5l17.5 -21.5l21 -25l19.5 -23.5c6 -7.33301 10.667 -12.666 14 -15.999l69 56.5l40 33l18.5 15l4.5 3.5c16 12.667 28.5 25.5 37.5 38.5
s15.833 26.333 20.5 40s7.66699 27.5 9 41.5s2 28.667 2 44z" />
    <glyph glyph-name="K" unicode="K" horiz-adv-x="710" 
d="M705 0l-331 358l306 342h-182l-272 -339v339h-142v-700h142v333l283 -333h196z" />
    <glyph glyph-name="L" unicode="L" horiz-adv-x="541" 
d="M534 0v112h-303v588h-147v-700h450z" />
    <glyph glyph-name="M" unicode="M" horiz-adv-x="910" 
d="M599 700l-136 -531h-13l-131 531h-225l-62 -700h121l44 593h13l153 -593h167l159 593h13l34 -593h141l-62 700h-216z" />
    <glyph glyph-name="N" unicode="N" horiz-adv-x="779" 
d="M499 0h196v700h-122v-536h-13l-279 536h-197v-700h122v541h13z" />
    <glyph glyph-name="O" unicode="O" horiz-adv-x="810" 
d="M755 350c0 59.333 -8.33301 111.666 -25 156.999s-40.334 83.5 -71.001 114.5s-67.5 54.333 -110.5 70s-90.833 23.5 -143.5 23.5s-100.5 -7.83301 -143.5 -23.5s-79.833 -39 -110.5 -70s-54.334 -69.167 -71.001 -114.5s-25 -97.666 -25 -156.999
s8.33301 -111.666 25 -156.999s40.334 -83.5 71.001 -114.5s67.5 -54.333 110.5 -70s90.833 -23.5 143.5 -23.5s100.5 7.83301 143.5 23.5s79.833 39 110.5 70s54.334 69.167 71.001 114.5s25 97.666 25 156.999zM599 351c0 -34 -2.5 -66.502 -7.5 -97.502
s-14.667 -58.333 -29 -82s-34.166 -42.5 -59.499 -56.5s-58.333 -21 -99 -21s-73.5 6.83301 -98.5 20.5s-44.5 32.334 -58.5 56.001s-23.5 50.834 -28.5 81.501s-7.5 63 -7.5 97s2.5 66.5 7.5 97.5s14.5 58.5 28.5 82.5s33.5 43 58.5 57s57.833 21 98.5 21s73.667 -7 99 -21
s45.166 -32.667 59.499 -56s24 -50.5 29 -81.5s7.5 -63.5 7.5 -97.5z" />
    <glyph glyph-name="P" unicode="P" horiz-adv-x="614" 
d="M598 474c0 27.333 -3.66699 54.501 -11 81.501s-21 51.167 -41 72.5s-48 38.666 -84 51.999s-82.333 20 -139 20h-239v-700h145v242h108c46 0 85.5 6.5 118.5 19.5s60 30.167 81 51.5s36.5 46 46.5 74s15 57 15 87zM449 472.001c0 -47.333 -11 -79.833 -33 -97.5
s-54.333 -26.5 -97 -26.5h-90v248h90c42.667 0 75 -8.83301 97 -26.5s33 -50.167 33 -97.5z" />
    <glyph glyph-name="Q" unicode="Q" horiz-adv-x="810" 
d="M755 350c0 59.333 -8.33105 111.664 -24.998 156.997s-40.334 83.5 -71.001 114.5s-67.5 54.333 -110.5 70s-90.833 23.5 -143.5 23.5s-100.5 -7.83301 -143.5 -23.5s-79.833 -39 -110.5 -70s-54.334 -69.167 -71.001 -114.5s-25 -97.666 -25 -156.999
s8.33301 -111.666 25 -156.999s40.334 -83.5 71.001 -114.5s67.5 -54.333 110.5 -70s90.833 -23.5 143.5 -23.5c25.333 0 50.666 2 75.999 6l141 -134l77 73c-10 12.667 -23.5 28.834 -40.5 48.501l-51.5 59.5c46.667 29.333 83 70 109 122s39 115.333 39 190z
M599.002 350.998c0 -34 -2.5 -66.502 -7.5 -97.502s-14.667 -58.333 -29 -82s-34.166 -42.5 -59.499 -56.5s-58.333 -21 -99 -21s-73.5 6.83301 -98.5 20.5s-44.5 32.334 -58.5 56.001s-23.5 50.834 -28.5 81.501s-7.5 63 -7.5 97s2.5 66.5 7.5 97.5s14.5 58.5 28.5 82.5
s33.5 43 58.5 57s57.833 21 98.5 21s73.667 -7 99 -21s45.166 -32.667 59.499 -56s24 -50.5 29 -81.5s7.5 -63.5 7.5 -97.5z" />
    <glyph glyph-name="R" unicode="R" horiz-adv-x="689" 
d="M659 0l-203 288l2 6c46 17.333 80.5 42.333 103.5 75s34.5 71 34.5 115c0 39.333 -6.16699 72.833 -18.5 100.5s-30 50 -53 67s-50.5 29.333 -82.5 37s-68 11.5 -108 11.5h-250v-700h143v262h85l168 -262h179zM446 482c0 -22.667 -2.66797 -41.499 -8.00098 -56.499
s-13.5 -27 -24.5 -36s-24.5 -15.333 -40.5 -19s-34.667 -5.5 -56 -5.5h-90v234h90c42.667 0 74.834 -8.33301 96.501 -25s32.5 -47.334 32.5 -92.001z" />
    <glyph glyph-name="S" unicode="S" horiz-adv-x="624" 
d="M282 -12c34 0 68.834 3.66699 104.501 11s68 19.5 97 36.5s52.833 39.5 71.5 67.5s28 62.667 28 104c0 44 -9.33301 78.667 -28 104s-41.834 45 -69.501 59s-57.667 24.667 -90 32s-62.333 15 -90 23s-50.834 18.333 -69.501 31s-28 32 -28 58
c0 18.667 5.5 33.667 16.5 45s24.5 20.333 40.5 27s33 11.167 51 13.5s33.667 3.5 47 3.5c21.333 0 42 -1 62 -3s37.667 -4.16699 53 -6.5s27.666 -4.5 36.999 -6.5l14 -3v108l-14.5 3c-9.66699 2 -22.667 4.33301 -39 7s-35.5 5 -57.5 7s-45 3 -69 3
c-38.667 0 -75.5 -3.5 -110.5 -10.5s-66 -18.833 -93 -35.5s-48.5 -38.834 -64.5 -66.501s-24 -61.834 -24 -102.501c0 -41.333 9.16699 -74.166 27.5 -98.499s41.333 -44 69 -59s57.5 -26.5 89.5 -34.5s61.833 -16.5 89.5 -25.5s50.667 -19.667 69 -32
s27.5 -30.166 27.5 -53.499c0 -19.333 -5.5 -35.333 -16.5 -48s-24.5 -22.667 -40.5 -30s-33.333 -12.5 -52 -15.5s-35.667 -4.5 -51 -4.5c-22.667 0 -46.167 1.5 -70.5 4.5s-46.666 6.33301 -66.999 10s-37 7 -50 10l-19.5 4.5v-112l17 -4
c11.333 -2.66699 26.833 -5.5 46.5 -8.5s42.834 -5.83301 69.501 -8.5s55.667 -4 87 -4z" />
    <glyph glyph-name="T" unicode="T" horiz-adv-x="583" 
d="M576 700h-569v-111h210v-589h148v589h211v111z" />
    <glyph glyph-name="U" unicode="U" horiz-adv-x="725" 
d="M645 700l-134.999 -0.000976562l1 -438c0 -32 -2.66699 -58.667 -8 -80s-13.666 -38.333 -24.999 -51s-26 -21.5 -44 -26.5s-39.333 -7.5 -64 -7.5c-25.333 0 -46.833 2.5 -64.5 7.5s-32.334 13.833 -44.001 26.5s-20.167 29.667 -25.5 51s-8 48 -8 80v438h-148v-468
c0 -32 4.5 -62.5 13.5 -91.5s24.167 -54.833 45.5 -77.5s50.166 -40.667 86.499 -54s81.5 -20 135.5 -20c48.667 0 91 5.83301 127 17.5s65.5 28.167 88.5 49.5s40.167 46.833 51.5 76.5s17 62.834 17 99.501v468z" />
    <glyph glyph-name="V" unicode="V" horiz-adv-x="657" 
d="M417 0l238 700h-137l-178 -566h-12l-170 566h-156l237 -700h178z" />
    <glyph glyph-name="W" unicode="W" horiz-adv-x="985" 
d="M625 0h160l184 700h-129l-118 -533h-12l-122 533h-163l-130 -533h-12l-108 533h-159l186 -700h165l120 511h12z" />
    <glyph glyph-name="X" unicode="X" horiz-adv-x="660" 
d="M660 0l-231 357l215 343h-154l-146 -269h-17l-137 269h-177l215 -349l-228 -351h156l162 276h17l146 -276h179z" />
    <glyph glyph-name="Y" unicode="Y" horiz-adv-x="665" 
d="M665 700h-153l-165 -302h-12l-163 302h-172l258 -427v-273h148v273z" />
    <glyph glyph-name="Z" unicode="Z" horiz-adv-x="573" 
d="M549 0v109h-370l355 469v122h-497v-109h337l-350 -465v-126h525z" />
    <glyph glyph-name="bracketleft" unicode="[" horiz-adv-x="418" 
d="M367 -160v74h-107v792h107v74h-220v-940h220z" />
    <glyph glyph-name="backslash" unicode="\" horiz-adv-x="371" 
d="M5 772l281 -848l81 24l-283 848z" />
    <glyph glyph-name="bracketright" unicode="]" horiz-adv-x="418" 
d="M266 -160v940h-221v-74h107v-792h-107v-74h221z" />
    <glyph glyph-name="asciicircum" unicode="^" horiz-adv-x="477" 
d="M371 350h76l-142 350h-125l-150 -350h77l123 273h22z" />
    <glyph glyph-name="underscore" unicode="_" horiz-adv-x="408" 
d="M408 -84v46h-408v-46h408z" />
    <glyph glyph-name="grave" unicode="`" horiz-adv-x="297" 
d="M264 604l-95 146h-156l160 -146h91z" />
    <glyph glyph-name="a" unicode="a" horiz-adv-x="595" 
d="M520 2l0.00585938 359.003c0 40.667 -7.83301 72.667 -23.5 96s-36.167 40.833 -61.5 52.5s-53.666 19 -84.999 22s-62.666 4.5 -93.999 4.5c-14 0 -29.5 -0.5 -46.5 -1.5s-33.833 -2.33301 -50.5 -4s-32.834 -3.66699 -48.501 -6s-28.834 -4.83301 -39.501 -7.5v-99
c18 4 43.167 8.16699 75.5 12.5s66.166 6.5 101.499 6.5c32 0 56.833 -2.33301 74.5 -7s30.667 -11.834 39 -21.501s13.166 -22 14.499 -37s2 -32.833 2 -53.5c-37.333 0 -76 -0.5 -116 -1.5s-76.833 -6.33301 -110.5 -16s-61.334 -25.334 -83.001 -47.001
s-32.5 -53.167 -32.5 -94.5c0 -36.667 6.66699 -66 20 -88s31.166 -39 53.499 -51s48 -20 77 -24s59.5 -6.33301 91.5 -7c39.333 -1.33301 78.166 -0.833008 116.499 1.5s80.166 6.16602 125.499 11.499zM378.006 86.0029c-14 -2 -27.334 -3.5 -40.001 -4.5
s-26.667 -1.5 -42 -1.5c-14.667 0 -28.667 0.5 -42 1.5s-25.166 4 -35.499 9s-18.5 12.5 -24.5 22.5s-9 23.667 -9 41s3 31 9 41s14.167 17.5 24.5 22.5s22.166 8 35.499 9s27.333 1.5 42 1.5h17h23c8 0 15.833 -0.166992 23.5 -0.5s13.834 -0.5 18.501 -0.5v-141z" />
    <glyph glyph-name="b" unicode="b" horiz-adv-x="633" 
d="M583 259c0 44.667 -6.33203 84.001 -18.999 118.001s-30.834 62.5 -54.501 85.5s-52.167 40.5 -85.5 52.5s-70.666 18 -111.999 18c-8.66699 0 -20.834 -0.166992 -36.501 -0.5s-34.167 -2.16602 -55.5 -5.49902v223h-142v-740c15.333 -3.33301 32.333 -6.33301 51 -9
s37.5 -4.83398 56.5 -6.50098s37 -2.83398 54 -3.50098s31.5 -1 43.5 -1c42 0 81.333 5.66699 118 17s68.5 28.166 95.5 50.499s48.167 50.333 63.5 84s23 72.834 23 117.501zM438.001 258.001c0 -18.667 -2.00098 -37.667 -6.00098 -57s-11 -37 -21 -53
s-23.167 -29.167 -39.5 -39.5s-36.833 -15.833 -61.5 -16.5c-15.333 -0.666992 -30.333 -0.333984 -45 0.999023s-29.667 3 -45 5v331c0.666992 0 4.5 0.333008 11.5 1s16.833 1.33398 29.5 2.00098s25.334 1 38.001 1c26 0 47.833 -4.5 65.5 -13.5s32 -21.333 43 -37
s18.833 -34.167 23.5 -55.5s7 -44.333 7 -69z" />
    <glyph glyph-name="c" unicode="c" horiz-adv-x="513" 
d="M499 6l0.00292969 95.001c-14.667 -2 -29.334 -3.83301 -44.001 -5.5s-33.667 -2.5 -57 -2.5c-66.667 0 -116.5 12.667 -149.5 38s-49.5 70 -49.5 134c0 32 4.16699 58.667 12.5 80s20.666 38.666 36.999 51.999s37 22.833 62 28.5s54.167 8.5 87.5 8.5
c16.667 0 32.667 -0.666992 48 -2s31.666 -3 48.999 -5v94c-24.667 5.33301 -49.834 9.16602 -75.501 11.499s-51.167 3.5 -76.5 3.5c-40 0 -77.667 -5.66699 -113 -17s-66.333 -28.166 -93 -50.499s-47.834 -50 -63.501 -83s-23.5 -70.833 -23.5 -113.5
c0 -47.333 7.33301 -88.666 22 -123.999s35.334 -64.833 62.001 -88.5s58.334 -41.334 95.001 -53.001s76.667 -17.5 120 -17.5c25.333 0 50.333 1.16699 75 3.5s49.667 6.83301 75 13.5z" />
    <glyph glyph-name="d" unicode="d" horiz-adv-x="635" 
d="M557 13l-0.00292969 49.001v109v143v155v140v102v40h-142v-222c-19.333 2 -36.666 3.33301 -51.999 4s-27.666 1 -36.999 1c-42.667 0 -81 -6.5 -115 -19.5s-63 -31.5 -87 -55.5s-42.333 -52.833 -55 -86.5s-19 -71.5 -19 -113.5c0 -44.667 7.83301 -83.667 23.5 -117
s37 -61.166 64 -83.499s58.833 -39 95.5 -50s76 -16.5 118 -16.5c18 0 37.333 0.666992 58 2s40.5 3.16602 59.5 5.49902s36.333 4.66602 52 6.99902s27.834 4.5 36.501 6.5zM414.997 99.001c-15.333 -2 -30.334 -3.49805 -45.001 -4.49805s-29.667 -1.16699 -45 -0.5
c-25.333 0.666992 -46.333 6.16699 -63 16.5s-30 23.5 -40 39.5s-17 33.5 -21 52.5s-6 37.833 -6 56.5c0 24.667 2.5 47.667 7.5 69s13 39.666 24 54.999s25.5 27.5 43.5 36.5s40 13.5 66 13.5c12.667 0 25.334 -0.333008 38.001 -1s22.5 -1.33398 29.5 -2.00098
s10.833 -1 11.5 -1v-330z" />
    <glyph glyph-name="e" unicode="e" horiz-adv-x="615" 
d="M349 -12c24.667 0 48.168 1.16895 70.501 3.50195s42 4.66602 59 6.99902s30.667 4.66602 41 6.99902l15.5 3.5v90c-22.667 -4.66699 -45.834 -8.83398 -69.501 -12.501s-50.834 -5.5 -81.501 -5.5c-22 0 -43.5 1.83301 -64.5 5.5s-40 10.667 -57 21
s-31.167 24.833 -42.5 43.5s-18 42.667 -20 72h376c0.666992 52.667 -3.16602 98.5 -11.499 137.5s-22.5 71.5 -42.5 97.5s-46.833 45.5 -80.5 58.5s-74.834 19.5 -123.501 19.5c-45.333 0 -84.666 -6.5 -117.999 -19.5s-61.166 -31.667 -83.499 -56
s-39 -53.666 -50 -87.999s-16.5 -72.833 -16.5 -115.5c0 -50 7.83301 -92.167 23.5 -126.5s37 -62 64 -83s58.667 -36.167 95 -45.5s75.166 -14 116.499 -14zM422.001 311.002l-222 0.00195312c0 18 2 35 6 51s10.333 30.167 19 42.5s20.167 22.166 34.5 29.499
s31.5 11 51.5 11c23.333 0 42.333 -3.83301 57 -11.5s26 -17.834 34 -30.501s13.333 -27 16 -43s4 -32.333 4 -49z" />
    <glyph glyph-name="f" unicode="f" horiz-adv-x="454" 
d="M426 425v100h-159v36c0 20.667 1.5 37.167 4.5 49.5s8.16699 21.666 15.5 27.999s17.5 10.5 30.5 12.5s29.5 3 49.5 3h59v96h-128c-21.333 0 -41.333 -1.16699 -60 -3.5s-36.667 -10.166 -54 -23.499c-24.667 -18.667 -40.667 -41 -48 -67s-11 -54 -11 -84v-47h-101v-100
h101v-425h142v425h159z" />
    <glyph glyph-name="g" unicode="g" horiz-adv-x="578" 
d="M573 445l0.00585938 88.002l-220 -8l-26.5 5c-10.333 2 -26.5 3 -48.5 3c-28.667 0 -56.334 -3.5 -83.001 -10.5s-50.334 -17.833 -71.001 -32.5s-37.167 -32.834 -49.5 -54.501s-18.5 -47.5 -18.5 -77.5c0 -27.333 3.66699 -50.333 11 -69s15.833 -34 25.5 -46
s19 -20.833 28 -26.5s15.5 -9.5 19.5 -11.5c-5.33301 -5.33301 -12.333 -11.333 -21 -18s-17.167 -14.834 -25.5 -24.501s-15.5 -20.834 -21.5 -33.501s-9 -27 -9 -43c0 -23.333 5.16699 -42.166 15.5 -56.499s23.666 -25.333 39.999 -33s35.166 -13 56.499 -16
s43.166 -4.83301 65.499 -5.5s44.166 -0.833984 65.499 -0.500977s40.166 -0.666992 56.499 -3s29.666 -6.33301 39.999 -12s15.5 -14.5 15.5 -26.5c0 -11.333 -4.16699 -21 -12.5 -29s-19.5 -14.5 -33.5 -19.5s-30.167 -8.66699 -48.5 -11s-37.166 -3.5 -56.499 -3.5
s-39.666 1.16699 -60.999 3.5s-41 5 -59 8s-32.833 5.83301 -44.5 8.5l-17.5 4v-93l22.5 -5.5c9.66699 -2.33301 22.5 -4.66602 38.5 -6.99902s35.667 -4.33301 59 -6s51.333 -2.5 84 -2.5c36.667 0 71.667 3 105 9s62.5 16 87.5 30s44.833 32 59.5 54s22 49 22 81
c0 36 -9.16699 63.167 -27.5 81.5s-41.166 31.333 -68.499 39s-57 11.667 -89 12s-61.667 0.5 -89 0.5s-50.166 1.66699 -68.499 5s-27.5 11.666 -27.5 24.999c0 12.667 4.5 23.834 13.5 33.501s17.167 16.834 24.5 21.501l11 -2.5
c7.33301 -1.66699 18.666 -2.5 33.999 -2.5c45.333 0 82.833 5.83301 112.5 17.5s53.167 26.167 70.5 43.5s29.333 36 36 56s10 38.667 10 56s-1.66699 32.333 -5 45s-7.16602 23.5 -11.499 32.5s-9 16.167 -14 21.5l-11.5 12c17.333 0 35.666 -0.833008 54.999 -2.5
s37.666 -2.83398 54.999 -3.50098zM283.006 258.002c-28 0 -49.167 6.5 -63.5 19.5s-21.5 37.5 -21.5 73.5c0 35.333 7.33301 59.5 22 72.5s35.667 19.5 63 19.5c28 0 49.333 -6.5 64 -19.5s22 -37.5 22 -73.5c0 -35.333 -7.33301 -59.5 -22 -72.5s-36 -19.5 -64 -19.5z" />
    <glyph glyph-name="h" unicode="h" horiz-adv-x="647" 
d="M572 0l0.00195312 369.004c0 32 -5.33301 58.667 -16 80s-24.5 38.166 -41.5 50.499s-35.667 21.166 -56 26.499s-40.5 8 -60.5 8c-14 0 -28.833 -1.5 -44.5 -4.5s-31.334 -7 -47.001 -12s-30.834 -10.5 -45.501 -16.5l-41 -17v266h-142v-750h142v389
c4 2 11 4.66699 21 8s21.5 6.66602 34.5 9.99902s26.5 6.16602 40.5 8.49902s27.333 3.5 40 3.5c15.333 0 27.833 -2.66699 37.5 -8s17.167 -12.166 22.5 -20.499s9 -17.333 11 -27s3 -18.834 3 -27.501v-336h142z" />
    <glyph glyph-name="i" unicode="i" horiz-adv-x="298" 
d="M220 0v525h-142v-525h142zM220 619v131h-142v-131h142z" />
    <glyph glyph-name="j" unicode="j" horiz-adv-x="300" 
d="M222 38v486.999h-142v-506c0 -21.333 -2.16699 -38.166 -6.5 -50.499s-12.5 -24.5 -24.5 -36.5l-83 -80l17 -17l20.5 -20.5l20.5 -20l16 -15.5l66.5 61l37 32.5l15.5 13l3 2.5c26 23.333 42.5 47 49.5 71s10.5 50.333 10.5 79zM222 616.999v133h-142v-133h142z" />
    <glyph glyph-name="k" unicode="k" horiz-adv-x="589" 
d="M611 0l-250 288l235 237h-170l-210 -225v450h-142v-750h142v271l210 -271h185z" />
    <glyph glyph-name="l" unicode="l" horiz-adv-x="298" 
d="M220 0v750h-142v-750h142z" />
    <glyph glyph-name="m" unicode="m" horiz-adv-x="927" 
d="M852 0l-0.00292969 369.004c0 32 -5.33301 58.667 -16 80s-24.334 38.166 -41.001 50.499s-35.167 21.166 -55.5 26.499s-40.166 8 -59.499 8c-15.333 0 -31.166 -1.66699 -47.499 -5s-32.5 -7.83301 -48.5 -13.5s-31.5 -11.667 -46.5 -18s-28.833 -12.5 -41.5 -18.5
c-15.333 19.333 -34.5 33.166 -57.5 41.499s-45.5 12.5 -67.5 12.5c-30 0 -59 -6 -87 -18s-54 -24.333 -78 -37v47h-128v-525h142v399c10.667 4 23.334 8.33301 38.001 13s33.667 7 57 7c16.667 0 29.834 -2.5 39.501 -7.5s17.167 -11.333 22.5 -19s8.83301 -16 10.5 -25
s2.5 -17.5 2.5 -25.5v-342h142v399c7.33301 3.33301 20 7.5 38 12.5s39.667 7.5 65 7.5c17.333 0 31 -2.83301 41 -8.5s17.5 -12.5 22.5 -20.5s8.16699 -16.333 9.5 -25s2 -16.334 2 -23.001v-342h142z" />
    <glyph glyph-name="n" unicode="n" horiz-adv-x="643" 
d="M568 0l0.00195312 369.002c0 30 -4.83301 55.5 -14.5 76.5s-22.334 38 -38.001 51s-33 22.333 -52 28s-37.833 8.5 -56.5 8.5c-34.667 0 -69.334 -5.83301 -104.001 -17.5s-67 -24.167 -97 -37.5v47h-128v-525h142v389c4 2 10.667 4.66699 20 8
s20.166 6.66602 32.499 9.99902s25.333 6.16602 39 8.49902s26.834 3.5 39.501 3.5c18 0 32 -2.66699 42 -8s17.5 -12 22.5 -20s8 -16.5 9 -25.5s1.5 -16.833 1.5 -23.5v-342h142z" />
    <glyph glyph-name="o" unicode="o" horiz-adv-x="658" 
d="M608 263c0 42 -6.33594 79.833 -19.0029 113.5s-31 62.334 -55 86.001s-53.167 42 -87.5 55s-73.166 19.5 -116.499 19.5c-44 0 -83.333 -6.5 -118 -19.5s-64 -31.333 -88 -55s-42.333 -52.334 -55 -86.001s-19 -71.5 -19 -113.5
c0 -40.667 6.16699 -77.834 18.5 -111.501s30.5 -62.5 54.5 -86.5s53.333 -42.667 88 -56s74.334 -20 119.001 -20c40.667 0 78 6.66699 112 20s63.333 32 88 56s43.834 52.833 57.501 86.5s20.5 70.834 20.5 111.501zM459.997 261c0 -57.333 -9.5 -101.001 -28.5 -131.001
s-53.167 -45 -102.5 -45c-50 0 -84.5 14.833 -103.5 44.5s-28.5 73.5 -28.5 131.5c0 58.667 9.5 102.834 28.5 132.501s53.5 44.5 103.5 44.5c49.333 0 83.5 -15 102.5 -45s28.5 -74 28.5 -132z" />
    <glyph glyph-name="p" unicode="p" horiz-adv-x="633" 
d="M583 266c0 20.667 -2.16699 41.6699 -6.5 63.0029s-11.333 42 -21 62s-22 38.5 -37 55.5s-33.167 31.833 -54.5 44.5c-30 17.333 -61 28.5 -93 33.5s-67 7.5 -105 7.5c-14 0 -29.667 -0.333008 -47 -1l-52 -2c-17.333 -0.666992 -33.833 -1.33398 -49.5 -2.00098
s-28.834 -1.33398 -39.501 -2.00098v-745h142v218c14.667 -2 27.5 -3.5 38.5 -4.5s23.833 -1.5 38.5 -1.5c26.667 0 51.834 1.83301 75.501 5.5s44.5 9.16699 62.5 16.5c25.333 10.667 47.333 25 66 43s34 38.167 46 60.5s21 46.166 27 71.499s9 51 9 77zM438 256.003
c0 -23.333 -2.66699 -45.167 -8 -65.5s-13.666 -38 -24.999 -53s-26.5 -26.833 -45.5 -35.5s-41.833 -13 -68.5 -13c-20.667 0 -37.667 1 -51 3l-20 3v335l17 2c11.333 1.33301 30.333 2 57 2s49.167 -4.5 67.5 -13.5s33.166 -21.5 44.499 -37.5s19.5 -34.833 24.5 -56.5
s7.5 -45.167 7.5 -70.5z" />
    <glyph glyph-name="q" unicode="q" horiz-adv-x="627" 
d="M549 -220l-0.00390625 744.997c-10.667 0.666992 -24 1.33398 -40 2.00098s-33 1.33398 -51 2.00098l-53.5 2c-17.667 0.666992 -33.5 1 -47.5 1c-38 0 -73 -2.5 -105 -7.5s-63 -16.167 -93 -33.5c-21.333 -12.667 -39.666 -27.5 -54.999 -44.5
s-27.666 -35.5 -36.999 -55.5s-16.166 -40.667 -20.499 -62s-6.5 -42.333 -6.5 -63c0 -26 3 -51.667 9 -77s15 -49.166 27 -71.499s27.333 -42.5 46 -60.5s40.667 -32.333 66 -43c18 -7.33301 38.833 -12.833 62.5 -16.5s48.834 -5.5 75.501 -5.5
c14.667 0 28.167 0.5 40.5 1.5s25.833 2.5 40.5 4.5v-218h142zM406.996 93.9971l-20.001 -2.5c-13.333 -1.66699 -30.666 -2.5 -51.999 -2.5c-27.333 0 -50.5 4.33301 -69.5 13s-34.333 20.667 -46 36s-20.167 33 -25.5 53s-8 41.667 -8 65c0 25.333 2.5 48.833 7.5 70.5
s13.167 40.5 24.5 56.5s26.333 28.5 45 37.5s41.667 13.5 69 13.5c28 0 47.5 -0.5 58.5 -1.5l16.5 -1.5v-337z" />
    <glyph glyph-name="r" unicode="r" horiz-adv-x="424" 
d="M409 413l0.00390625 115.999c-12 0 -25.167 -0.166992 -39.5 -0.5s-29.833 -2 -46.5 -5s-34.834 -8 -54.501 -15s-41.167 -17.5 -64.5 -31.5v12v23v13h-126v-525h142v379c12.667 8.66699 27.167 15.334 43.5 20.001s33.166 8 50.499 10s34.166 3.16699 50.499 3.5
s31.166 0.5 44.499 0.5z" />
    <glyph glyph-name="s" unicode="s" horiz-adv-x="536" 
d="M494 168c0 28 -6.16504 50.9971 -18.498 68.9971s-27.666 32.667 -45.999 44s-37.833 19.833 -58.5 25.5s-39.334 10.167 -56.001 13.5c-12.667 2.66699 -26.5 5.33398 -41.5 8.00098s-28.833 6.33398 -41.5 11.001s-23.334 10.667 -32.001 18s-13 17 -13 29
s3.83301 21.833 11.5 29.5s17.334 13.5 29.001 17.5s24.167 6.66699 37.5 8s25.666 2 36.999 2c16.667 0 33.5 -0.666992 50.5 -2s32.667 -3 47 -5s26.666 -4 36.999 -6s17.5 -3.33301 21.5 -4v94c-12 1.33301 -33 4.16602 -63 8.49902s-70.333 6.5 -121 6.5
c-24 0 -49.667 -2.33301 -77 -7s-52.5 -13 -75.5 -25s-42 -28.5 -57 -49.5s-22.5 -47.833 -22.5 -80.5c0 -30.667 7.16699 -55.667 21.5 -75s30.833 -34.5 49.5 -45.5s37 -18.833 55 -23.5l38 -10c20.667 -4.66699 39.5 -8.66699 56.5 -12s31.5 -7.16602 43.5 -11.499
s21.333 -10.166 28 -17.499s10 -17.333 10 -30s-4.16699 -23.167 -12.5 -31.5s-18.666 -14.833 -30.999 -19.5s-26 -7.83398 -41 -9.50098s-29.167 -2.5 -42.5 -2.5c-31.333 0 -61 2.66699 -89 8s-55.333 11 -82 17v-99c26 -5.33301 55.5 -10.166 88.5 -14.499
s67.833 -6.5 104.5 -6.5c38.667 0 73.667 4 105 12s58.166 19.667 80.499 35s39.5 34 51.5 56s18 47 18 75z" />
    <glyph glyph-name="t" unicode="t" horiz-adv-x="455" 
d="M427 423l-0.000976562 101.999h-160v184l-31.5 -10.5l-46 -15.5l-41.5 -14l-18 -6v-138h-106v-102h106v-281c0 -35.333 4.66699 -62.666 14 -81.999s22 -33.5 38 -42.5s34.333 -14.167 55 -15.5s42.334 -2 65.001 -2h114v101h-96c-13.333 0 -25.5 3.16699 -36.5 9.5
s-16.5 19.833 -16.5 40.5v272h160z" />
    <glyph glyph-name="u" unicode="u" horiz-adv-x="638" 
d="M560 0v525.001h-142v-387l-49 -20c-20 -8 -46.667 -12 -80 -12c-16.667 0 -29.667 3.16699 -39 9.5s-16.5 14.166 -21.5 23.499s-8.16699 19.333 -9.5 30s-2 20.334 -2 29.001v327h-142v-365c0 -33.333 5 -60.833 15 -82.5s23 -38.834 39 -51.501
s33.833 -21.5 53.5 -26.5s39.167 -7.5 58.5 -7.5c38 0 71.5 5.33301 100.5 16s58.833 23.667 89.5 39v-47h129z" />
    <glyph glyph-name="v" unicode="v" horiz-adv-x="542" 
d="M540 525h-134l-124 -410h-7l-122 410h-151l190 -525h157z" />
    <glyph glyph-name="w" unicode="w" horiz-adv-x="827" 
d="M831 525h-119.002l-6.5 -27.5l-16 -69.5l-21 -92l-21 -95c-6.33301 -30 -11.666 -56.5 -15.999 -79.5s-6.5 -37.833 -6.5 -44.5h-7c0 6.66699 -2.5 21.5 -7.5 44.5s-11.167 49.5 -18.5 79.5s-15.5 61.667 -24.5 95l-24.5 92l-18.5 69.5l-7.5 27.5h-172l-8 -27.5
l-19.5 -69.5l-25 -92l-25 -95c-7.66699 -30 -14.167 -56.5 -19.5 -79.5s-8 -37.833 -8 -44.5h-7c0 6.66699 -2.16699 21.5 -6.5 44.5s-9.66602 49.5 -15.999 79.5l-20.5 95l-20.5 92l-16 69.5l-6.5 27.5h-135l130 -525h172l104 380h7l103 -380h174z" />
    <glyph glyph-name="x" unicode="x" horiz-adv-x="529" 
d="M537 0l-176 268l172 257h-142l-115 -189h-5l-112 189h-162l171 -257l-175 -268h146l118 201h5l112 -201h163z" />
    <glyph glyph-name="y" unicode="y" horiz-adv-x="565" 
d="M557 525h-142l-122 -411h-9l-121 411h-155l193 -525h51l-100 -220h130l137.5 372.5z" />
    <glyph glyph-name="z" unicode="z" horiz-adv-x="472" 
d="M460 0l-0.000976562 101.002c-31.333 -0.666992 -56 -1 -74 -1c-17.333 0 -30.5 -0.166992 -39.5 -0.5s-15.167 -0.5 -18.5 -0.5h-7h-9c-3.33301 0 -10 -0.166992 -20 -0.5s-24.667 -0.5 -44 -0.5s-45.666 -0.333008 -78.999 -1l103.5 107.5l74 77.5l50 52.5l32 33.5
c8.33301 8.66699 14.666 15.5 18.999 20.5s8.5 9.5 12.5 13.5v123h-429v-103c2.66699 0 14.167 0.166992 34.5 0.5s44 0.666016 71 0.999023l82 1c27.667 0.333008 50.334 0.666016 68.001 0.999023s27.167 0.5 28.5 0.5l-60 -63l-66.5 -69.5l-65.5 -68.5l-56.5 -58.5
l-39.5 -41l-15 -15.5v-110h448z" />
    <glyph glyph-name="braceleft" unicode="{" horiz-adv-x="418" 
d="M157 318c4 0 9.66699 1.00293 17 3.00293s14.5 5.5 21.5 10.5s13.167 11.5 18.5 19.5s8 18.667 8 32v267c0 6.66699 0.166992 13.167 0.5 19.5s1.83301 11.666 4.5 15.999s7.16699 7.83301 13.5 10.5s15.5 4 27.5 4h24v78h-107c-15.333 0 -28 -2.5 -38 -7.5
s-17.833 -11.667 -23.5 -20s-9.66699 -18.333 -12 -30s-3.5 -23.834 -3.5 -36.501v-283c0 -4 -0.5 -9.5 -1.5 -16.5s-3.16699 -14 -6.5 -21s-8.83301 -13 -16.5 -18s-17.834 -7.5 -30.501 -7.5h-18v-59h18c12.667 0 22.834 -2.5 30.501 -7.5s13.167 -11 16.5 -18
s5.5 -14 6.5 -21s1.5 -12.5 1.5 -16.5v-283c0 -13.333 1.16699 -25.5 3.5 -36.5s6.33301 -20.833 12 -29.5s13.5 -15.334 23.5 -20.001s22.667 -7 38 -7h107v77h-24c-12 0 -21.167 1.33301 -27.5 4s-10.833 6.16699 -13.5 10.5s-4.16699 9.5 -4.5 15.5s-0.5 12.667 -0.5 20
v267c0 12.667 -2.66699 23.167 -8 31.5s-11.5 15 -18.5 20s-14.167 8.5 -21.5 10.5s-13 3 -17 3v19z" />
    <glyph glyph-name="bar" unicode="|" horiz-adv-x="290" 
d="M201 750h-113v-940h113v940z" />
    <glyph glyph-name="braceright" unicode="}" horiz-adv-x="418" 
d="M225 320v-19.0029c-4 0 -9.66699 -1 -17 -3s-14.5 -5.5 -21.5 -10.5s-13.167 -11.667 -18.5 -20s-8 -18.833 -8 -31.5v-267c0 -7.33301 -0.166992 -14 -0.5 -20s-1.83301 -11.167 -4.5 -15.5s-7.16699 -7.83301 -13.5 -10.5s-15.5 -4 -27.5 -4h-25v-77h108
c15.333 0 28 2.33301 38 7s17.833 11.334 23.5 20.001s9.66699 18.5 12 29.5s3.5 23.167 3.5 36.5v283c0 4 0.5 9.5 1.5 16.5s3.16699 14 6.5 21s8.66602 13 15.999 18s17.666 7.5 30.999 7.5h18v59h-18c-13.333 0 -23.666 2.5 -30.999 7.5s-12.666 11 -15.999 18
s-5.5 14 -6.5 21s-1.5 12.5 -1.5 16.5v283c0 12.667 -1.16699 24.834 -3.5 36.501s-6.33301 21.667 -12 30s-13.5 15 -23.5 20s-22.667 7.5 -38 7.5h-108v-78h25c12 0 21.167 -1.33301 27.5 -4s10.833 -6.16699 13.5 -10.5s4.16699 -9.66602 4.5 -15.999
s0.5 -12.833 0.5 -19.5v-267c0 -13.333 2.66699 -24 8 -32s11.5 -14.5 18.5 -19.5s14.167 -8.5 21.5 -10.5s13 -3 17 -3z" />
    <glyph glyph-name="asciitilde" unicode="~" horiz-adv-x="570" 
d="M403 226c24 0 46.833 6.50098 68.5 19.501s41.167 29.167 58.5 48.5l-44 89l-34.5 -34c-9 -8.66699 -16.5 -15.167 -22.5 -19.5s-11 -7.33301 -15 -9s-7.66699 -2.5 -11 -2.5c-17.333 0 -34.333 3.33301 -51 10s-32.667 13.667 -48 21c-18 7.33301 -37.5 14.333 -58.5 21
s-44.833 10 -71.5 10c-30 0 -55.5 -6.16699 -76.5 -18.5s-40.167 -29.166 -57.5 -50.499l7.5 -15.5l8 -17l11 -22.5l15.5 -31c5.33301 5.33301 10 9.66602 14 12.999s7.66699 6.66602 11 9.99902c9.33301 9.33301 19.833 18.333 31.5 27s24.167 13 37.5 13
c17.333 0 34.666 -3.5 51.999 -10.5l49 -20.5c18 -7.33301 37.333 -14.333 58 -21s43.334 -10 68.001 -10z" />
    <glyph glyph-name="exclamdown" unicode="&#xa1;" horiz-adv-x="354" 
d="M202 -176c0 0.666992 -0.499023 9.66699 -1.49902 27l-4 70.5l-5.5 96l-6 105l-5.5 97c-1.66699 29 -3 53 -4 72s-1.5 29.167 -1.5 30.5h-97c0 -1.33301 -0.5 -11.5 -1.5 -30.5s-2.33301 -43 -4 -72l-5.5 -97c-2 -35.667 -3.83301 -70.667 -5.5 -105
s-3.33398 -66.333 -5.00098 -96l-4 -70.5c-1 -17.333 -1.5 -26.333 -1.5 -27h152zM195.001 390v134h-139v-134h139z" />
    <glyph glyph-name="cent" unicode="&#xa2;" horiz-adv-x="609" 
d="M529 6l0.00195312 101c-43.333 -9.33301 -82.666 -14 -117.999 -14c-58.667 -1.33301 -104.167 13.334 -136.5 44.001s-48.5 75 -48.5 133c0 28 4.5 52.333 13.5 73s21.667 37.834 38 51.501s35.666 23.667 57.999 30s46.833 9.5 73.5 9.5
c22 -0.666992 42 -2.33398 60 -5.00098s36.667 -5.66699 56 -9v101c-22 5.33301 -44 9 -66 11s-44.333 3.33301 -67 4v92h-90v-99c-31.333 -6 -60.5 -15.833 -87.5 -29.5s-50.5 -31.334 -70.5 -53.001s-35.667 -47.167 -47 -76.5s-17 -62 -17 -98
c0 -40 5.33301 -75.833 16 -107.5s25.834 -59 45.501 -82s43.167 -41.667 70.5 -56s57.666 -24.5 90.999 -30.5v-97h89v90c23.333 0.666992 46.166 2.16699 68.499 4.5s45.166 6.5 68.499 12.5z" />
    <glyph glyph-name="sterling" unicode="&#xa3;" horiz-adv-x="668" 
d="M588 694c-1.33301 0.666992 -8.16602 2.5 -20.499 5.5s-31.333 6.33301 -57 10s-54.5 5.5 -86.5 5.5c-40.667 0 -74.834 -4 -102.501 -12s-50.667 -18.333 -69 -31s-32.5 -27 -42.5 -43s-17.167 -32 -21.5 -48s-7 -31.333 -8 -46s-1.5 -27.334 -1.5 -38.001v-79h-99v-97
h99v-193c0 -6.66699 -1.33301 -12 -4 -16s-8 -6 -16 -6h-79v-106h504v106h-267v215h147v97h-147v77c0 18.667 2.16699 35.334 6.5 50.001s11.5 26.667 21.5 36s23.5 16.5 40.5 21.5s38.167 7.5 63.5 7.5c44 0 77.667 -3.33301 101 -10l35 -10z" />
    <glyph glyph-name="currency" unicode="&#xa4;" horiz-adv-x="746" 
d="M722 678c-33.333 12 -69 20.499 -107 25.499s-79.667 7.5 -125 7.5c-40.667 0 -79.667 -5.5 -117 -16.5s-71.166 -26.667 -101.499 -47s-56.666 -45.5 -78.999 -75.5s-39.166 -64 -50.499 -102h-97l-35 -82h116c-0.666992 -5.33301 -1 -10.333 -1 -15v-15v-18
c0 -5.33301 0.333008 -10.666 1 -15.999h-81l-35 -82h132c11.333 -39.333 28.166 -74.666 50.499 -105.999s48.833 -57.833 79.5 -79.5s64.5 -38.334 101.5 -50.001s75.833 -17.5 116.5 -17.5c34 0 67.5 1.83301 100.5 5.5s64.833 9.16699 95.5 16.5v111
c-13.333 -5.33301 -26 -9.66602 -38 -12.999s-24.5 -6 -37.5 -8s-27 -3.5 -42 -4.5s-32.5 -1.5 -52.5 -1.5c-59.333 0 -108.833 13.667 -148.5 41s-68.5 62.666 -86.5 105.999h255l35 82h-310c-0.666992 5.33301 -1.16699 11 -1.5 17s-0.5 11.667 -0.5 17v15
c0 4.66699 0.333008 9.66699 1 15h340l34 82h-356c17.333 43.333 45.166 77 83.499 101s87.833 36 148.5 36c19.333 0 36.166 -0.5 50.499 -1.5s28 -2.5 41 -4.5s25.833 -4.66699 38.5 -8s27 -7.33301 43 -12z" />
    <glyph glyph-name="yen" unicode="&#xa5;" horiz-adv-x="679" 
d="M639 700h-144l-148 -272l-146 272h-161l194 -315h-128v-77h168v-70h-168v-77h167v-161h133v161h166v77h-167v70h167v77h-127z" />
    <glyph glyph-name="brokenbar" unicode="&#xa6;" horiz-adv-x="281" 
d="M197 750h-113v-400h113v400zM197 210h-113v-400h113v400z" />
    <glyph glyph-name="section" unicode="&#xa7;" horiz-adv-x="606" 
d="M556 336c0 35.333 -8.33496 63.4951 -25.002 84.4951s-37.667 37.667 -63 50s-52.5 22 -81.5 29l-81.5 20.5c-25.333 6.66699 -46.333 14.834 -63 24.501s-25 23.834 -25 42.501c0 12.667 4 23.167 12 31.5s18.5 15 31.5 20s27.667 8.33301 44 10s32.5 2.5 48.5 2.5
c20.667 0 40.167 -1.33301 58.5 -4s34.5 -5.5 48.5 -8.5s25.167 -5.66699 33.5 -8l12.5 -3.5v103c-10.667 3.33301 -31.167 7.66602 -61.5 12.999s-65.833 8 -106.5 8c-34 0 -66.5 -3.33301 -97.5 -10s-58.167 -17 -81.5 -31s-42 -32 -56 -54s-21 -48.333 -21 -79
c0 -20.667 2.66699 -38.5 8 -53.5s12.666 -28 21.999 -39s20.333 -20.333 33 -28s26.334 -14.5 41.001 -20.5v-10c-19.333 -5.33301 -37.166 -12.166 -53.499 -20.499s-30.666 -18.666 -42.999 -30.999s-22 -26.666 -29 -42.999s-10.5 -34.5 -10.5 -54.5
c0 -35.333 8.16699 -63.833 24.5 -85.5s36.833 -39.167 61.5 -52.5s51.167 -23.833 79.5 -31.5s54.833 -15.167 79.5 -22.5s45.167 -15.666 61.5 -24.999s24.5 -22.333 24.5 -39c0 -28 -10.5 -47.167 -31.5 -57.5s-52.167 -15.5 -93.5 -15.5
c-21.333 0 -42.333 1.66699 -63 5s-39.167 7 -55.5 11s-29.5 7.66699 -39.5 11l-15 5v-104l12.5 -4c8.33301 -2.66699 20.5 -5.83398 36.5 -9.50098s35.667 -6.83398 59 -9.50098s49.666 -4 78.999 -4c52 0 94.833 5.33301 128.5 16s60.334 24.5 80.001 41.5
s33.334 36 41.001 57s11.5 41.5 11.5 61.5c0 20.667 -3.16699 38.834 -9.5 54.501s-14.833 29.334 -25.5 41.001s-23.334 21.5 -38.001 29.5s-30 15 -46 21v10c27.333 8 50.333 17.667 69 29s33.5 24 44.5 38s18.833 28.5 23.5 43.5s7 29.833 7 44.5zM416.998 311.995
c0 -19.333 -6.33008 -35 -18.9971 -47s-26.667 -21.5 -42 -28.5s-29.333 -11.833 -42 -14.5s-19.334 -4 -20.001 -4c-9.33301 0.666992 -20 2.5 -32 5.5s-23.333 7.5 -34 13.5s-19.834 13.333 -27.501 22s-11.5 19 -11.5 31c0 16 3.5 29.833 10.5 41.5s16.333 21.667 28 30
s25.167 14.833 40.5 19.5s31.333 8 48 10c14 -4 27 -8 39 -12s22.667 -9 32 -15s16.666 -13.167 21.999 -21.5s8 -18.5 8 -30.5z" />
    <glyph glyph-name="dieresis" unicode="&#xa8;" horiz-adv-x="305" 
d="M320 630v117h-121v-117h121zM104 630v117h-119v-117h119z" />
    <glyph glyph-name="copyright" unicode="&#xa9;" horiz-adv-x="877" 
d="M807 350c0 50 -9.66699 96.833 -29 140.5s-45.833 81.834 -79.5 114.501s-72.834 58.5 -117.501 77.5s-92.334 28.5 -143.001 28.5s-98.334 -9.5 -143.001 -28.5s-83.667 -44.833 -117 -77.5s-59.666 -70.834 -78.999 -114.501s-29 -90.5 -29 -140.5
s9.66699 -96.833 29 -140.5s45.666 -81.834 78.999 -114.501s72.333 -58.5 117 -77.5s92.334 -28.5 143.001 -28.5s98.334 9.5 143.001 28.5s83.834 44.833 117.501 77.5s60.167 70.834 79.5 114.501s29 90.5 29 140.5zM720 349c0 -38 -7.33301 -73.833 -22 -107.5
s-34.834 -63 -60.501 -88s-55.667 -44.667 -90 -59s-70.833 -21.5 -109.5 -21.5c-39.333 0 -76 7.16699 -110 21.5s-63.667 34 -89 59s-45.333 54.333 -60 88s-22 69.5 -22 107.5s7.33301 73.833 22 107.5s34.667 63 60 88s55 44.667 89 59s70.667 21.5 110 21.5
c38.667 0 75.167 -7.16699 109.5 -21.5s64.333 -34 90 -59s45.834 -54.333 60.501 -88s22 -69.5 22 -107.5zM565 161l-0.00195312 72.998l-27 -5c-7.33301 -1.33301 -14.166 -2.16602 -20.499 -2.49902l-19.5 -1c-6.66699 -0.333008 -15 -0.5 -25 -0.5
c-38 0 -67.833 11.5 -89.5 34.5s-32.5 54.5 -32.5 94.5s10.5 72 31.5 96s51.5 36 91.5 36c10 0 18.667 -0.166992 26 -0.5s14.333 -1 21 -2s13.334 -2.16699 20.001 -3.5s14.667 -2.66602 24 -3.99902v68c-17.333 4.66699 -34.333 8 -51 10s-34.667 3 -54 3
c-32 0 -60.667 -4.83301 -86 -14.5s-46.833 -23.5 -64.5 -41.5s-31.334 -39.667 -41.001 -65s-14.5 -53.333 -14.5 -84s4.83301 -58.5 14.5 -83.5s23.334 -46.5 41.001 -64.5s39.167 -31.833 64.5 -41.5s54 -14.5 86 -14.5c19.333 0 37.333 1 54 3s33.667 5.33301 51 10z
" />
    <glyph glyph-name="ordfeminine" unicode="&#xaa;" horiz-adv-x="461" 
d="M370 391l0.00292969 216.002c0 24 -4.66699 43 -14 57s-21.5 24.5 -36.5 31.5s-32 11.5 -51 13.5s-37.833 3 -56.5 3c-16.667 -0.666992 -36 -2 -58 -4s-39.667 -4.66699 -53 -8v-59c11.333 2.66699 26.5 5.16699 45.5 7.5s39.167 3.5 60.5 3.5
c19.333 0 34.166 -1.33301 44.499 -4s18 -7 23 -13s8 -13.5 9 -22.5s1.5 -19.5 1.5 -31.5c-22 0 -45.167 -0.333008 -69.5 -1s-46.5 -3.83398 -66.5 -9.50098s-36.5 -15.167 -49.5 -28.5s-19.5 -32.333 -19.5 -57c0 -22 4 -39.5 12 -52.5s18.667 -23.167 32 -30.5
s28.666 -12.166 45.999 -14.499s35.666 -3.83301 54.999 -4.5c23.333 -0.666992 46.5 -0.333984 69.5 0.999023s48.167 3.66602 75.5 6.99902zM381.003 276.002v61h-301v-61h301zM285.003 441.002c-8.66699 -1.33301 -16.6689 -2.16797 -24.002 -2.50098
s-15.666 -0.5 -24.999 -0.5c-8.66699 0 -17 0.333008 -25 1s-15.167 2.5 -21.5 5.5s-11.333 7.33301 -15 13s-5.5 13.834 -5.5 24.501s1.83301 19 5.5 25s8.66699 10.5 15 13.5s13.5 4.83301 21.5 5.5s16.333 1 25 1h9h14c5.33301 0 10.333 -0.166992 15 -0.5
s8.33398 -0.5 11.001 -0.5v-85z" />
    <glyph glyph-name="guillemotleft" unicode="&#xab;" horiz-adv-x="623" 
d="M317 525h-126l-111 -232l111 -233h126l-104 233zM543 525h-125l-112 -232l112 -233h125l-104 233z" />
    <glyph glyph-name="logicalnot" unicode="&#xac;" horiz-adv-x="620" 
d="M470 94h120v301h-537v-85h417v-216z" />
    <glyph glyph-name="registered" unicode="&#xae;" horiz-adv-x="877" 
d="M807 350c0 50 -9.66699 96.833 -29 140.5s-45.833 81.834 -79.5 114.501s-72.834 58.5 -117.501 77.5s-92.334 28.5 -143.001 28.5s-98.334 -9.5 -143.001 -28.5s-83.667 -44.833 -117 -77.5s-59.666 -70.834 -78.999 -114.501s-29 -90.5 -29 -140.5
s9.66699 -96.833 29 -140.5s45.666 -81.834 78.999 -114.501s72.333 -58.5 117 -77.5s92.334 -28.5 143.001 -28.5s98.334 9.5 143.001 28.5s83.834 44.833 117.501 77.5s60.167 70.834 79.5 114.501s29 90.5 29 140.5zM720 349c0 -38 -7.33301 -73.833 -22 -107.5
s-34.834 -63 -60.501 -88s-55.667 -44.667 -90 -59s-70.833 -21.5 -109.5 -21.5c-39.333 0 -76 7.16699 -110 21.5s-63.667 34 -89 59s-45.333 54.333 -60 88s-22 69.5 -22 107.5s7.33301 73.833 22 107.5s34.667 63 60 88s55 44.667 89 59s70.667 21.5 110 21.5
c38.667 0 75.167 -7.16699 109.5 -21.5s64.333 -34 90 -59s45.834 -54.333 60.501 -88s22 -69.5 22 -107.5zM623 157l-14.5 20.002l-34 46l-39 52.5l-29.5 40.5c29.333 9.33301 50.5 24.166 63.5 44.499s19.5 43.166 19.5 68.499c0 44 -13.667 75.167 -41 93.5
s-63.333 27.5 -108 27.5h-142v-393h84v147h39l45 -67l54 -80h103zM504 428.002c0 -24 -6.83301 -41 -20.5 -51s-33.167 -15 -58.5 -15h-43v132h43c25.333 0 44.833 -5 58.5 -15s20.5 -27 20.5 -51z" />
    <glyph glyph-name="macron" unicode="&#xaf;" horiz-adv-x="388" 
d="M338 670v80h-288v-80h288z" />
    <glyph glyph-name="degree" unicode="&#xb0;" horiz-adv-x="467" 
d="M417 570c0 24.667 -4.83301 48 -14.5 70s-22.667 41.167 -39 57.5s-35.666 29.166 -57.999 38.499s-46.166 14 -71.499 14s-49.166 -4.66699 -71.499 -14s-41.833 -22.166 -58.5 -38.499s-29.834 -35.5 -39.501 -57.5s-14.5 -45.333 -14.5 -70s4.83301 -48 14.5 -70
s22.834 -41.167 39.501 -57.5s36.167 -29.166 58.5 -38.499s46.166 -14 71.499 -14s49.166 4.66699 71.499 14s41.666 22.166 57.999 38.499s29.333 35.5 39 57.5s14.5 45.333 14.5 70zM339 570c0 -14 -2.83301 -27.333 -8.5 -40s-13.167 -23.667 -22.5 -33
s-20.333 -16.666 -33 -21.999s-26.334 -8 -41.001 -8s-28.334 2.66699 -41.001 8s-23.834 12.666 -33.501 21.999s-17.167 20.333 -22.5 33s-8 26 -8 40s2.66699 27.333 8 40s12.833 23.667 22.5 33s20.834 16.666 33.501 21.999s26.334 8 41.001 8
s28.334 -2.66699 41.001 -8s23.667 -12.666 33 -21.999s16.833 -20.333 22.5 -33s8.5 -26 8.5 -40z" />
    <glyph glyph-name="plusminus" unicode="&#xb1;" horiz-adv-x="620" 
d="M600 350v113h-228v219h-116v-219h-229v-113h229v-219h116v219h228zM615 -1v89h-603v-89h603z" />
    <glyph glyph-name="twosuperior" unicode="&#xb2;" horiz-adv-x="460" 
d="M376 356l0.00195312 71.9971h-175v4c29.333 14.667 54.666 28.167 75.999 40.5s38.833 25 52.5 38s23.667 27.333 30 43s9.5 34.5 9.5 56.5c0 20.667 -4.5 37.834 -13.5 51.501s-20.833 24.5 -35.5 32.5s-31.167 13.667 -49.5 17s-36.5 5 -54.5 5
c-28 0 -51.667 -1.66699 -71 -5s-37.666 -7.33301 -54.999 -12v-71c19.333 4.66699 36.166 8.16699 50.499 10.5s31.166 3.5 50.499 3.5c20.667 0 38.167 -3.16699 52.5 -9.5s21.5 -19.166 21.5 -38.499c0 -14 -4.83301 -27 -14.5 -39s-22.667 -23.667 -39 -35
s-35.5 -23.166 -57.5 -35.499l-70 -39.5v-89h292z" />
    <glyph glyph-name="threesuperior" unicode="&#xb3;" horiz-adv-x="460" 
d="M380 457c0 14.667 -3.33301 26.998 -10 36.998s-14.5 18 -23.5 24s-18.5 10.333 -28.5 13s-18 4.33398 -24 5.00098v11c6.66699 0.666992 14.5 2.5 23.5 5.5s17.667 7.66699 26 14s15.333 14.833 21 25.5s8.5 24 8.5 40c0 28 -14.667 49.833 -44 65.5
s-67.666 23.5 -114.999 23.5c-46.667 0 -80.334 -2.83301 -101.001 -8.5l-31 -8.5v-67l29 8c19.333 5.33301 46 8 80 8c6.66699 0 14.334 -0.5 23.001 -1.5s17 -3 25 -6s14.667 -7.16699 20 -12.5s8 -12 8 -20c0 -8.66699 -2 -15.667 -6 -21s-8.83301 -9.5 -14.5 -12.5
s-11.667 -5 -18 -6s-11.833 -1.5 -16.5 -1.5c-8.66699 0 -15.334 0.333008 -20.001 1l-7 1v-67l5 0.5c3.33301 0.333008 10.666 0.5 21.999 0.5c5.33301 0 11.5 -0.666992 18.5 -2s13.667 -3.5 20 -6.5s11.666 -7.16699 15.999 -12.5s6.5 -12.333 6.5 -21
c0 -17.333 -7.33301 -29.166 -22 -35.499s-33.667 -9.5 -57 -9.5c-11.333 0 -23.666 0.833008 -36.999 2.5s-25.666 3.66699 -36.999 6l-28.5 6l-11.5 2.5v-69l33.5 -9.5c22.333 -6.33301 58.5 -9.5 108.5 -9.5s88.833 9.5 116.5 28.5s41.5 45.167 41.5 78.5z" />
    <glyph glyph-name="acute" unicode="&#xb4;" horiz-adv-x="291" 
d="M271 750h-156l-95 -146h91z" />
    <glyph glyph-name="mu" unicode="&#xb5;" horiz-adv-x="642" 
d="M421 525l0.00195312 -268.999c0 -28.667 -4 -52.5 -12 -71.5s-18.833 -34.333 -32.5 -46s-29.334 -19.834 -47.001 -24.501s-35.834 -7 -54.501 -7h-26c-8 0 -17.667 0.666992 -29 2v416h-142v-745h142v215l19.5 -1.5c13 -1 26.5 -1.5 40.5 -1.5
c28 0 51.833 4.33301 71.5 13s35.5 18 47.5 28s20.833 19.333 26.5 28l8.5 13v-74h129v525h-142z" />
    <glyph glyph-name="paragraph" unicode="&#xb6;" horiz-adv-x="632" 
d="M163 -125h112v704h161v-704h111v825h-369c-14 0 -29.333 -2.5 -46 -7.5s-32.5 -13 -47.5 -24s-27.5 -25.333 -37.5 -43s-15 -39.5 -15 -65.5c0 -26.667 4.33301 -48.5 13 -65.5s19.667 -30.5 33 -40.5s27.5 -17.333 42.5 -22s29.167 -7.66699 42.5 -9v-548z" />
    <glyph glyph-name="periodcentered" unicode="&#xb7;" horiz-adv-x="620" 
d="M395 288v152h-155v-152h155z" />
    <glyph glyph-name="periodcentered" unicode="&#x2219;" horiz-adv-x="620" 
d="M395 288v152h-155v-152h155z" />
    <glyph glyph-name="cedilla" unicode="&#xb8;" horiz-adv-x="288" 
d="M268 -124c0 12 -2.66602 22.501 -7.99902 31.501s-12 16.5 -20 22.5s-17.167 10.667 -27.5 14s-20.5 5 -30.5 5c-7.33301 0 -14.5 -0.666992 -21.5 -2l-20.5 -4l-4 4l53 53h-80l-46 -74l15 -26c5.33301 2 12 4 20 6s15.667 3 23 3c11.333 0 22.333 -2.33301 33 -7
s16 -13.667 16 -27s-6.5 -22.833 -19.5 -28.5s-25.833 -8.5 -38.5 -8.5c-14.667 0 -27.834 1.66699 -39.501 5s-22.5 6.66602 -32.5 9.99902l-20 -54c13.333 -6 29 -11 47 -15s41.667 -6 71 -6c15.333 0 30.666 1.5 45.999 4.5s29.333 8.16699 42 15.5
s22.834 17.333 30.501 30s11.5 28.667 11.5 48z" />
    <glyph glyph-name="onesuperior" unicode="&#xb9;" horiz-adv-x="460" 
d="M360 356v71h-84v294l-176 -26v-63h82v-205h-82v-71h260z" />
    <glyph glyph-name="ordmasculine" unicode="&#xba;" horiz-adv-x="461" 
d="M398 547c0 50 -14.835 89.833 -44.502 119.5s-70.5 44.5 -122.5 44.5c-53.333 0 -94.666 -14.833 -123.999 -44.5s-44 -69.5 -44 -119.5c0 -49.333 14.5 -89 43.5 -119s70.5 -45 124.5 -45c24 0 46.333 4 67 12s38.334 19.167 53.001 33.5s26.167 31.5 34.5 51.5
s12.5 42.333 12.5 67zM308.998 546c0 -34.667 -5.66699 -61 -17 -79s-32 -27 -62 -27s-50.667 9 -62 27s-17 44.333 -17 79s5.66699 61 17 79s32 27 62 27s50.667 -9 62 -27s17 -44.333 17 -79zM383.998 276v61h-301v-61h301z" />
    <glyph glyph-name="guillemotright" unicode="&#xbb;" horiz-adv-x="623" 
d="M543 293l-111 232h-126l105 -232l-105 -233h126zM317 293l-112 232h-125l104 -232l-104 -233h125z" />
    <glyph glyph-name="onequarter" unicode="&#xbc;" horiz-adv-x="940" 
d="M743 186v-53h-137l249 224h-132l-202 -190v-103h221v-64h95v242h-33zM743 684l-59 42l-485 -699l60 -42zM345 356v71h-84v294l-176 -26v-63h82v-205h-82v-71h260z" />
    <glyph glyph-name="onehalf" unicode="&#xbd;" horiz-adv-x="940" 
d="M853 0l0.00195312 70.999h-176v5c29.333 14.667 54.666 28.167 75.999 40.5s38.833 25 52.5 38s23.667 27.333 30 43s9.5 34.5 9.5 56.5c0 20.667 -4.66699 37.834 -14 51.501s-21.333 24.5 -36 32.5s-31.167 13.667 -49.5 17s-36.5 5 -54.5 5
c-27.333 0 -50.833 -1.83301 -70.5 -5.5s-38.167 -7.5 -55.5 -11.5v-72c19.333 5.33301 36.333 9.16602 51 11.499s31.667 3.5 51 3.5c20.667 0 38.167 -3.16699 52.5 -9.5s21.5 -19.166 21.5 -38.499c0 -14 -4.83301 -27 -14.5 -39s-22.834 -23.833 -39.501 -35.5
s-36 -23.5 -58 -35.5l-70 -40v-88h294zM746.002 683.999l-60 42l-485 -699l60 -42zM347.002 355.999v71h-84v294l-176 -26v-63h82v-205h-82v-71h260z" />
    <glyph glyph-name="threequarters" unicode="&#xbe;" horiz-adv-x="940" 
d="M749 186v-53h-136l248 224h-132l-201 -190v-103h221v-64h94v242h-33zM379 457c0 14.667 -3.33301 26.998 -10 36.998s-14.667 18 -24 24s-19 10.333 -29 13s-18 4.33398 -24 5.00098v11c6.66699 0.666992 14.667 2.5 24 5.5s18.166 7.66699 26.499 14
s15.333 14.833 21 25.5s8.5 24 8.5 40c0 28 -14.667 49.833 -44 65.5s-67.666 23.5 -114.999 23.5c-46.667 0 -80.334 -2.83301 -101.001 -8.5l-31 -8.5v-67l29 8c19.333 5.33301 46 8 80 8c6.66699 0 14.334 -0.5 23.001 -1.5s16.834 -3 24.501 -6
s14.167 -7.16699 19.5 -12.5s8 -12 8 -20c0 -8.66699 -2 -15.667 -6 -21s-8.83301 -9.5 -14.5 -12.5s-11.5 -5 -17.5 -6s-11.333 -1.5 -16 -1.5c-8.66699 0 -15.334 0.333008 -20.001 1l-7 1v-67l5 0.5c3.33301 0.333008 10.666 0.5 21.999 0.5
c5.33301 0 11.5 -0.666992 18.5 -2s13.667 -3.5 20 -6.5s11.666 -7.16699 15.999 -12.5s6.5 -12.333 6.5 -21c0 -17.333 -7.33301 -29.166 -22 -35.499s-33.667 -9.5 -57 -9.5c-11.333 0 -23.666 0.833008 -36.999 2.5s-25.666 3.66699 -36.999 6l-28.5 6l-11.5 2.5v-69
l33.5 -9.5c22.333 -6.33301 58.5 -9.5 108.5 -9.5s88.833 9.5 116.5 28.5s41.5 45.167 41.5 78.5zM767 683.998l-59 42l-485 -699l58 -42z" />
    <glyph glyph-name="questiondown" unicode="&#xbf;" horiz-adv-x="579" 
d="M449 -161l0.00292969 102.001c-25.333 -8 -51.833 -13.333 -79.5 -16s-51.5 -3.66699 -71.5 -3c-10.667 0 -22 1.16699 -34 3.5s-23 6 -33 11s-18.167 11.833 -24.5 20.5s-9.5 19.667 -9.5 33c0 12 1.33301 22.167 4 30.5s6.5 16 11.5 23s11.167 14 18.5 21l24 23.5
c17.333 18 31.166 34.167 41.499 48.5s18.166 27.666 23.499 39.999s8.66602 24 9.99902 35s2 22.167 2 33.5v75h-113v-53c0 -9.33301 -0.833008 -18.166 -2.5 -26.499s-5 -16.833 -10 -25.5s-12.5 -18.167 -22.5 -28.5s-23.333 -22.5 -40 -36.5
c-5.33301 -4 -13.166 -10.333 -23.499 -19s-20.833 -19.334 -31.5 -32.001s-19.834 -27.5 -27.501 -44.5s-11.5 -36.167 -11.5 -57.5c0 -40 8.33301 -72 25 -96s37.167 -42.5 61.5 -55.5s50.5 -21.5 78.5 -25.5s53.333 -6 76 -6s43.667 1.33301 63 4s36 5.5 50 8.5
s25 5.83301 33 8.5zM345.003 390.001v135h-140v-135h140z" />
    <glyph glyph-name="Agrave" unicode="&#xc0;" horiz-adv-x="704" 
d="M704 0l-250 700h-193l-261 -700h156l53 160h283l54 -160h158zM459 260h-217l101 321h18zM439 772l-99 131h-164l168 -131h95z" />
    <glyph glyph-name="Aacute" unicode="&#xc1;" horiz-adv-x="704" 
d="M704 0l-250 700h-193l-261 -700h156l53 160h283l54 -160h158zM459 260h-217l101 321h18zM543 903h-163l-100 -131h96z" />
    <glyph glyph-name="Acircumflex" unicode="&#xc2;" horiz-adv-x="704" 
d="M704 0l-250 700h-193l-261 -700h156l53 160h283l54 -160h158zM459 260h-217l101 321h18zM544 764l-130 168h-122l-135 -168h97l97 107l96 -107h97z" />
    <glyph glyph-name="Atilde" unicode="&#xc3;" horiz-adv-x="704" 
d="M704 0l-250 700h-193l-261 -700h156l53 160h283l54 -160h158zM459 260h-217l101 321h18zM519 899h-50.0029c0 -13.333 -2.83301 -25 -8.5 -35s-15.167 -15 -28.5 -15c-8 0 -17.333 2.33301 -28 7l-35 15.5c-12.667 5.66699 -26 10.834 -40 15.501s-28.333 7 -43 7
c-32 0 -55.333 -11.333 -70 -34s-22 -52 -22 -88h50c0 4.66699 0.5 10 1.5 16s2.83301 11.5 5.5 16.5s6.33398 9.16699 11.001 12.5s11 5 19 5s17.167 -2.33301 27.5 -7l34.5 -15.5c12.667 -5.66699 26.334 -10.834 41.001 -15.501s30.334 -7 47.001 -7
c29.333 0 51.333 11.5 66 34.5s22 52.167 22 87.5z" />
    <glyph glyph-name="Adieresis" unicode="&#xc4;" horiz-adv-x="704" 
d="M704 0l-250 700h-193l-261 -700h156l53 160h283l54 -160h158zM459 260h-217l101 321h18zM309 777v105h-108v-105h108zM502 777v105h-107v-105h107z" />
    <glyph glyph-name="Aring" unicode="&#xc5;" horiz-adv-x="704" 
d="M704 -1l-256.996 685.998c15.333 9.33301 27.333 20.833 36 34.5s13 28.834 13 45.501c0 14 -3.5 27.333 -10.5 40s-16.833 23.667 -29.5 33s-27.834 16.666 -45.501 21.999s-36.834 8 -57.501 8s-39.834 -2.66699 -57.501 -8s-32.834 -12.666 -45.501 -21.999
s-22.667 -20.333 -30 -33s-11 -26.334 -11 -41.001c0 -17.333 5 -33.166 15 -47.499s23.667 -26.166 41 -35.499l-265 -682h153l53 158h288l54 -158h156zM462.004 255.998h-222l108 318h7zM417.004 763.998c0 -14.667 -6.33008 -27.167 -18.9971 -37.5
s-28.667 -15.5 -48 -15.5s-34.333 5 -45 15s-16 22.667 -16 38s5.66699 28.166 17 38.499s26.666 15.5 45.999 15.5s35.166 -5.16699 47.499 -15.5s18.166 -23.166 17.499 -38.499z" />
    <glyph glyph-name="AE" unicode="&#xc6;" horiz-adv-x="859" 
d="M829 0v106h-280v202h180v100h-180v186h273v106h-527l-295 -700h150l60 159h200v-159h419zM410 260h-161l128 334h33v-334z" />
    <glyph glyph-name="Ccedilla" unicode="&#xc7;" horiz-adv-x="628" 
d="M611 11l-0.00292969 106.996c-15.333 -3.33301 -28.333 -6 -39 -8s-21.334 -3.66699 -32.001 -5s-22.167 -2.33301 -34.5 -3s-27.166 -1 -44.499 -1c-38.667 0 -73.667 6 -105 18s-58 28.833 -80 50.5s-38.833 47.834 -50.5 78.501s-17.5 65 -17.5 103
c0 36.667 5.33301 70.334 16 101.001s26.334 57 47.001 79s46.334 39.167 77.001 51.5s65.667 18.5 105 18.5c23.333 0 41.833 -0.5 55.5 -1.5s25.667 -2.16699 36 -3.5s20.166 -3.16602 29.499 -5.49902s21.666 -4.5 36.999 -6.5v108c-30.667 6.66699 -60 11.667 -88 15
s-59 5 -93 5c-56 0 -107 -8.33301 -153 -25s-85.5 -40.667 -118.5 -72s-58.5 -69.166 -76.5 -113.499s-27 -94.5 -27 -150.5c0 -52 7.83301 -99.167 23.5 -141.5s37.5 -79 65.5 -110s61.5 -55.667 100.5 -74s82.167 -29.833 129.5 -34.5l-39 -65l15 -26
c5.33301 2 11.833 4 19.5 6s15.5 3 23.5 3c11.333 0 22.333 -2.33301 33 -7s16 -13.667 16 -27s-6.5 -22.833 -19.5 -28.5s-26.167 -8.5 -39.5 -8.5c-14 0 -27 1.66699 -39 5s-22.667 6.66602 -32 9.99902l-20 -54c13.333 -6 29 -11 47 -15s41.667 -6 71 -6
c14.667 0 29.834 1.5 45.501 4.5s29.667 8.16699 42 15.5s22.5 17.333 30.5 30s12 28.667 12 48c0 12 -2.66699 22.5 -8 31.5s-12 16.5 -20 22.5s-17.167 10.667 -27.5 14s-20.5 5 -30.5 5c-7.33301 0 -14.666 -0.666992 -21.999 -2s-14 -2.66602 -20 -3.99902l-4 4l42 42
c56.667 2 110.334 9.33301 161.001 22z" />
    <glyph glyph-name="Egrave" unicode="&#xc8;" horiz-adv-x="584" 
d="M554 0v108h-324v197h222v106h-222v181h317v108h-463v-700h470zM400 771l-100 131h-163l167 -131h96z" />
    <glyph glyph-name="Eacute" unicode="&#xc9;" horiz-adv-x="584" 
d="M554 0v108h-324v197h222v106h-222v181h317v108h-463v-700h470zM455 903h-163l-100 -131h95z" />
    <glyph glyph-name="Ecircumflex" unicode="&#xca;" horiz-adv-x="584" 
d="M554 0v108h-324v197h222v106h-222v181h317v108h-463v-700h470zM501 764l-129 168h-123l-135 -168h97l98 107l95 -107h97z" />
    <glyph glyph-name="Edieresis" unicode="&#xcb;" horiz-adv-x="584" 
d="M554 0v108h-324v197h222v106h-222v181h317v108h-463v-700h470zM272 772v105h-108v-105h108zM465 772v105h-107v-105h107z" />
    <glyph glyph-name="Igrave" unicode="&#xcc;" horiz-adv-x="313" 
d="M228 0v700h-145v-700h145zM237 772l-95 146h-156l160 -146h91z" />
    <glyph glyph-name="Iacute" unicode="&#xcd;" horiz-adv-x="313" 
d="M238 0v700h-145v-700h145zM337 919h-156l-95 -146h91z" />
    <glyph glyph-name="Icircumflex" unicode="&#xce;" horiz-adv-x="313" 
d="M234 0v700h-145v-700h145zM349 764l-129 168h-123l-135 -168h97l98 107l95 -107h97z" />
    <glyph glyph-name="Idieresis" unicode="&#xcf;" horiz-adv-x="313" 
d="M228 0v700h-145v-700h145zM327 773v117h-121v-117h121zM111 773v117h-119v-117h119z" />
    <glyph glyph-name="Eth" unicode="&#xd0;" horiz-adv-x="752" 
d="M24 407v-105.002h96v-302h219c20.667 0 44.834 0.166992 72.501 0.5s56.167 3.33301 85.5 9s58 15.334 86 29.001s53 33.334 75 59.001s39.833 59 53.5 100s20.5 91.833 20.5 152.5s-6.83301 111.5 -20.5 152.5s-31.5 74.5 -53.5 100.5s-47 45.667 -75 59
s-56.667 22.833 -86 28.5s-57.833 8.66699 -85.5 9s-51.834 0.5 -72.501 0.5h-219v-293h-96zM264 406.998v188h92h43c16 0 32.167 -2 48.5 -6s32.5 -10.667 48.5 -20s30.167 -23 42.5 -41s22.166 -41.5 29.499 -70.5s11 -64.833 11 -107.5
c0 -43.333 -3.66699 -79.333 -11 -108s-17.166 -52 -29.499 -70s-26.5 -31.667 -42.5 -41s-32.167 -15.833 -48.5 -19.5s-32.5 -5.5 -48.5 -5.5h-43h-92v196h153v105h-153z" />
    <glyph glyph-name="Ntilde" unicode="&#xd1;" horiz-adv-x="779" 
d="M499 0h195v700h-121v-536h-13l-279 536h-197v-700h122v541h13zM554 907l-52 0.000976562c0 -14.667 -3 -27.167 -9 -37.5s-16.333 -15.5 -31 -15.5c-8.66699 0 -18.5 2.5 -29.5 7.5l-36.5 16c-13.333 5.66699 -27.333 11 -42 16s-30 7.5 -46 7.5
c-32.667 0 -56.834 -12 -72.501 -36s-23.5 -55 -23.5 -93h52c0 4.66699 0.5 10.167 1.5 16.5s3 12.166 6 17.499s7.16699 9.83301 12.5 13.5s12 5.5 20 5.5s17.5 -2.5 28.5 -7.5l36 -16.5c13 -6 27.167 -11.5 42.5 -16.5s32 -7.5 50 -7.5c30.667 0 53.834 12.333 69.501 37
s23.5 55.667 23.5 93z" />
    <glyph glyph-name="Ograve" unicode="&#xd2;" horiz-adv-x="810" 
d="M755 350c0 59.333 -8.33301 111.666 -25 156.999s-40.334 83.5 -71.001 114.5s-67.5 54.333 -110.5 70s-90.833 23.5 -143.5 23.5s-100.5 -7.83301 -143.5 -23.5s-79.833 -39 -110.5 -70s-54.334 -69.167 -71.001 -114.5s-25 -97.666 -25 -156.999
s8.33301 -111.666 25 -156.999s40.334 -83.5 71.001 -114.5s67.5 -54.333 110.5 -70s90.833 -23.5 143.5 -23.5s100.5 7.83301 143.5 23.5s79.833 39 110.5 70s54.334 69.167 71.001 114.5s25 97.666 25 156.999zM599 351c0 -34 -2.5 -66.502 -7.5 -97.502
s-14.667 -58.333 -29 -82s-34.166 -42.5 -59.499 -56.5s-58.333 -21 -99 -21s-73.5 6.83301 -98.5 20.5s-44.5 32.334 -58.5 56.001s-23.5 50.834 -28.5 81.501s-7.5 63 -7.5 97s2.5 66.5 7.5 97.5s14.5 58.5 28.5 82.5s33.5 43 58.5 57s57.833 21 98.5 21s73.667 -7 99 -21
s45.166 -32.667 59.499 -56s24 -50.5 29 -81.5s7.5 -63.5 7.5 -97.5zM473 771.998l-95 146h-156l160 -146h91z" />
    <glyph glyph-name="Oacute" unicode="&#xd3;" horiz-adv-x="810" 
d="M755 350c0 59.333 -8.33301 111.666 -25 156.999s-40.334 83.5 -71.001 114.5s-67.5 54.333 -110.5 70s-90.833 23.5 -143.5 23.5s-100.5 -7.83301 -143.5 -23.5s-79.833 -39 -110.5 -70s-54.334 -69.167 -71.001 -114.5s-25 -97.666 -25 -156.999
s8.33301 -111.666 25 -156.999s40.334 -83.5 71.001 -114.5s67.5 -54.333 110.5 -70s90.833 -23.5 143.5 -23.5s100.5 7.83301 143.5 23.5s79.833 39 110.5 70s54.334 69.167 71.001 114.5s25 97.666 25 156.999zM599 351c0 -34 -2.5 -66.502 -7.5 -97.502
s-14.667 -58.333 -29 -82s-34.166 -42.5 -59.499 -56.5s-58.333 -21 -99 -21s-73.5 6.83301 -98.5 20.5s-44.5 32.334 -58.5 56.001s-23.5 50.834 -28.5 81.501s-7.5 63 -7.5 97s2.5 66.5 7.5 97.5s14.5 58.5 28.5 82.5s33.5 43 58.5 57s57.833 21 98.5 21s73.667 -7 99 -21
s45.166 -32.667 59.499 -56s24 -50.5 29 -81.5s7.5 -63.5 7.5 -97.5zM555 916.998h-156l-95 -146h90z" />
    <glyph glyph-name="Ocircumflex" unicode="&#xd4;" horiz-adv-x="810" 
d="M755 350c0 59.333 -8.33301 111.666 -25 156.999s-40.334 83.5 -71.001 114.5s-67.5 54.333 -110.5 70s-90.833 23.5 -143.5 23.5s-100.5 -7.83301 -143.5 -23.5s-79.833 -39 -110.5 -70s-54.334 -69.167 -71.001 -114.5s-25 -97.666 -25 -156.999
s8.33301 -111.666 25 -156.999s40.334 -83.5 71.001 -114.5s67.5 -54.333 110.5 -70s90.833 -23.5 143.5 -23.5s100.5 7.83301 143.5 23.5s79.833 39 110.5 70s54.334 69.167 71.001 114.5s25 97.666 25 156.999zM599 351c0 -34 -2.5 -66.502 -7.5 -97.502
s-14.667 -58.333 -29 -82s-34.166 -42.5 -59.499 -56.5s-58.333 -21 -99 -21s-73.5 6.83301 -98.5 20.5s-44.5 32.334 -58.5 56.001s-23.5 50.834 -28.5 81.501s-7.5 63 -7.5 97s2.5 66.5 7.5 97.5s14.5 58.5 28.5 82.5s33.5 43 58.5 57s57.833 21 98.5 21s73.667 -7 99 -21
s45.166 -32.667 59.499 -56s24 -50.5 29 -81.5s7.5 -63.5 7.5 -97.5zM595 763.998l-129 168h-123l-135 -168h97l98 107l95 -107h97z" />
    <glyph glyph-name="Otilde" unicode="&#xd5;" horiz-adv-x="810" 
d="M755 350c0 59.333 -8.33301 111.666 -25 156.999s-40.334 83.5 -71.001 114.5s-67.5 54.333 -110.5 70s-90.833 23.5 -143.5 23.5s-100.5 -7.83301 -143.5 -23.5s-79.833 -39 -110.5 -70s-54.334 -69.167 -71.001 -114.5s-25 -97.666 -25 -156.999
s8.33301 -111.666 25 -156.999s40.334 -83.5 71.001 -114.5s67.5 -54.333 110.5 -70s90.833 -23.5 143.5 -23.5s100.5 7.83301 143.5 23.5s79.833 39 110.5 70s54.334 69.167 71.001 114.5s25 97.666 25 156.999zM599 351c0 -34 -2.5 -66.502 -7.5 -97.502
s-14.667 -58.333 -29 -82s-34.166 -42.5 -59.499 -56.5s-58.333 -21 -99 -21s-73.5 6.83301 -98.5 20.5s-44.5 32.334 -58.5 56.001s-23.5 50.834 -28.5 81.501s-7.5 63 -7.5 97s2.5 66.5 7.5 97.5s14.5 58.5 28.5 82.5s33.5 43 58.5 57s57.833 21 98.5 21s73.667 -7 99 -21
s45.166 -32.667 59.499 -56s24 -50.5 29 -81.5s7.5 -63.5 7.5 -97.5zM573 900.998l-52 0.000976562c0 -14.667 -3 -27.167 -9 -37.5s-16 -15.5 -30 -15.5c-8.66699 0 -18.667 2.5 -30 7.5l-37 16c-13.333 5.66699 -27.333 11 -42 16s-29.667 7.5 -45 7.5
c-33.333 0 -57.833 -12 -73.5 -36s-23.5 -55 -23.5 -93h52c0 4.66699 0.5 10.167 1.5 16.5s3 12.166 6 17.499s7.16699 9.83301 12.5 13.5s12.333 5.5 21 5.5c8 0 17.333 -2.5 28 -7.5l35.5 -16.5c13 -6 27.333 -11.5 43 -16.5s32.5 -7.5 50.5 -7.5
c30 0 52.833 12.333 68.5 37s23.5 55.667 23.5 93z" />
    <glyph glyph-name="Odieresis" unicode="&#xd6;" horiz-adv-x="810" 
d="M755 350c0 59.333 -8.33301 111.666 -25 156.999s-40.334 83.5 -71.001 114.5s-67.5 54.333 -110.5 70s-90.833 23.5 -143.5 23.5s-100.5 -7.83301 -143.5 -23.5s-79.833 -39 -110.5 -70s-54.334 -69.167 -71.001 -114.5s-25 -97.666 -25 -156.999
s8.33301 -111.666 25 -156.999s40.334 -83.5 71.001 -114.5s67.5 -54.333 110.5 -70s90.833 -23.5 143.5 -23.5s100.5 7.83301 143.5 23.5s79.833 39 110.5 70s54.334 69.167 71.001 114.5s25 97.666 25 156.999zM599 351c0 -34 -2.5 -66.502 -7.5 -97.502
s-14.667 -58.333 -29 -82s-34.166 -42.5 -59.499 -56.5s-58.333 -21 -99 -21s-73.5 6.83301 -98.5 20.5s-44.5 32.334 -58.5 56.001s-23.5 50.834 -28.5 81.501s-7.5 63 -7.5 97s2.5 66.5 7.5 97.5s14.5 58.5 28.5 82.5s33.5 43 58.5 57s57.833 21 98.5 21s73.667 -7 99 -21
s45.166 -32.667 59.499 -56s24 -50.5 29 -81.5s7.5 -63.5 7.5 -97.5zM571 776.998v117h-121v-117h121zM355 776.998v117h-119v-117h119z" />
    <glyph glyph-name="multiply" unicode="&#xd7;" horiz-adv-x="620" 
d="M584 531l-80 80l-186 -186l-201 201l-81 -82l201 -200l-200 -200l80 -80l199 200l186 -186l82 81l-186 186z" />
    <glyph glyph-name="Oslash" unicode="&#xd8;" horiz-adv-x="810" 
d="M755 350c0 59.333 -8.33301 111.666 -25 156.999s-40.334 83.5 -71.001 114.5s-67.5 54.333 -110.5 70s-90.833 23.5 -143.5 23.5s-100.5 -7.83301 -143.5 -23.5s-79.833 -39 -110.5 -70s-54.334 -69.167 -71.001 -114.5s-25 -97.666 -25 -156.999
s8.33301 -111.666 25 -156.999s40.334 -83.5 71.001 -114.5s67.5 -54.333 110.5 -70s90.833 -23.5 143.5 -23.5s100.5 7.83301 143.5 23.5s79.833 39 110.5 70s54.334 69.167 71.001 114.5s25 97.666 25 156.999zM576 504c8.66699 -22 14.668 -46 18.001 -72s5 -53 5 -81
c0 -34 -2.5 -66.5 -7.5 -97.5s-14.667 -58.333 -29 -82s-34.166 -42.5 -59.499 -56.5s-58.333 -21 -99 -21c-30.667 0 -56.834 4 -78.501 12s-39.834 19 -54.501 33zM225.001 222c-5.33301 19.333 -8.99902 39.667 -10.999 61s-3 43.333 -3 66c0 34 2.5 66.5 7.5 97.5
s14.5 58.5 28.5 82.5s33.5 43 58.5 57s57.833 21 98.5 21c25.333 0 47.666 -2.83301 66.999 -8.5s36.333 -13.5 51 -23.5z" />
    <glyph glyph-name="Ugrave" unicode="&#xd9;" horiz-adv-x="725" 
d="M645 700l-134.999 -0.000976562l1 -438c0 -32 -2.66699 -58.667 -8 -80s-13.666 -38.333 -24.999 -51s-26 -21.5 -44 -26.5s-39.333 -7.5 -64 -7.5c-25.333 0 -46.833 2.5 -64.5 7.5s-32.334 13.833 -44.001 26.5s-20.167 29.667 -25.5 51s-8 48 -8 80v438h-148v-468
c0 -32 4.5 -62.5 13.5 -91.5s24.167 -54.833 45.5 -77.5s50.166 -40.667 86.499 -54s81.5 -20 135.5 -20c48.667 0 91 5.83301 127 17.5s65.5 28.167 88.5 49.5s40.167 46.833 51.5 76.5s17 62.834 17 99.501v468zM463.001 771.999l-95 146h-156l160 -146h91z" />
    <glyph glyph-name="Uacute" unicode="&#xda;" horiz-adv-x="725" 
d="M645 700l-134.999 -0.000976562l1 -438c0 -32 -2.66699 -58.667 -8 -80s-13.666 -38.333 -24.999 -51s-26 -21.5 -44 -26.5s-39.333 -7.5 -64 -7.5c-25.333 0 -46.833 2.5 -64.5 7.5s-32.334 13.833 -44.001 26.5s-20.167 29.667 -25.5 51s-8 48 -8 80v438h-148v-468
c0 -32 4.5 -62.5 13.5 -91.5s24.167 -54.833 45.5 -77.5s50.166 -40.667 86.499 -54s81.5 -20 135.5 -20c48.667 0 91 5.83301 127 17.5s65.5 28.167 88.5 49.5s40.167 46.833 51.5 76.5s17 62.834 17 99.501v468zM524.001 917.999h-156l-95 -146h91z" />
    <glyph glyph-name="Ucircumflex" unicode="&#xdb;" horiz-adv-x="725" 
d="M645 700l-134.999 -0.000976562l1 -438c0 -32 -2.66699 -58.667 -8 -80s-13.666 -38.333 -24.999 -51s-26 -21.5 -44 -26.5s-39.333 -7.5 -64 -7.5c-25.333 0 -46.833 2.5 -64.5 7.5s-32.334 13.833 -44.001 26.5s-20.167 29.667 -25.5 51s-8 48 -8 80v438h-148v-468
c0 -32 4.5 -62.5 13.5 -91.5s24.167 -54.833 45.5 -77.5s50.166 -40.667 86.499 -54s81.5 -20 135.5 -20c48.667 0 91 5.83301 127 17.5s65.5 28.167 88.5 49.5s40.167 46.833 51.5 76.5s17 62.834 17 99.501v468zM559.001 763.999l-129 168h-123l-135 -168h97l98 107
l95 -107h97z" />
    <glyph glyph-name="Udieresis" unicode="&#xdc;" horiz-adv-x="725" 
d="M645 700l-134.999 -0.000976562l1 -438c0 -32 -2.66699 -58.667 -8 -80s-13.666 -38.333 -24.999 -51s-26 -21.5 -44 -26.5s-39.333 -7.5 -64 -7.5c-25.333 0 -46.833 2.5 -64.5 7.5s-32.334 13.833 -44.001 26.5s-20.167 29.667 -25.5 51s-8 48 -8 80v438h-148v-468
c0 -32 4.5 -62.5 13.5 -91.5s24.167 -54.833 45.5 -77.5s50.166 -40.667 86.499 -54s81.5 -20 135.5 -20c48.667 0 91 5.83301 127 17.5s65.5 28.167 88.5 49.5s40.167 46.833 51.5 76.5s17 62.834 17 99.501v468zM321.001 776.999v117h-120v-117h120zM536.001 776.999v117
h-120v-117h120z" />
    <glyph glyph-name="Yacute" unicode="&#xdd;" horiz-adv-x="665" 
d="M665 700h-153l-165 -302h-12l-163 302h-172l258 -427v-273h148v273zM499 907h-156l-95 -146h91z" />
    <glyph glyph-name="Thorn" unicode="&#xde;" horiz-adv-x="631" 
d="M220 0v165.999h126c27.333 0 55.333 3 84 9s54.834 16.667 78.501 32s43 36.5 58 63.5s22.5 61.5 22.5 103.5s-7.5 76.5 -22.5 103.5s-34.333 48.333 -58 64s-49.834 26.334 -78.501 32.001s-56.667 8.5 -84 8.5h-126v129h-142v-711h142zM443 373.999
c0 -26 -5.33301 -46.332 -16 -60.999s-23 -25.334 -37 -32.001s-28 -10.667 -42 -12s-24.333 -2 -31 -2h-97v215h97c6.66699 0 17 -0.666992 31 -2s28 -5.5 42 -12.5s26.333 -17.833 37 -32.5s16 -35 16 -61z" />
    <glyph glyph-name="germandbls" unicode="&#xdf;" horiz-adv-x="649" 
d="M84 511l0.00195312 -510.997h132v515c0 6.66699 0.333008 15.834 1 27.501s3.5 23.167 8.5 34.5s13.333 21.166 25 29.499s28.5 12.5 50.5 12.5c28 0 50 -5.83301 66 -17.5s24 -28.167 24 -49.5c0 -20 -4.5 -37.5 -13.5 -52.5s-18.833 -29.333 -29.5 -43
s-20.5 -27 -29.5 -40s-13.5 -26.833 -13.5 -41.5c0 -18 8 -35.333 24 -52s33.667 -33.334 53 -50.001s37 -33.834 53 -51.501s24 -36.834 24 -57.501c0 -12.667 -3 -23.5 -9 -32.5s-14 -16.5 -24 -22.5s-21.333 -10.333 -34 -13s-25.334 -4 -38.001 -4l-78 3v-94l38 -1
c25.333 -0.666992 57 -1 95 -1c13.333 0 30.833 1.83301 52.5 5.5s42.667 11 63 22s37.833 26.5 52.5 46.5s22 46 22 78c0 21.333 -3.66699 41.166 -11 59.499s-16.5 35.166 -27.5 50.499s-23 29.333 -36 42l-36 34.5c-11 10.333 -20.167 19.833 -27.5 28.5
s-11 16.667 -11 24c0 10.667 4 20.834 12 30.501l26 33c9.33301 12.333 18 26.833 26 43.5s12 37.667 12 63c0 30.667 -7.16699 55.834 -21.5 75.501s-32.666 35.167 -54.999 46.5s-46.833 19.166 -73.5 23.499s-52.334 6.5 -77.001 6.5
c-38.667 0 -70.834 -3.83301 -96.501 -11.5s-46.5 -17.667 -62.5 -30s-27.833 -26.166 -35.5 -41.499s-13 -30.5 -16 -45.5s-4.5 -29.167 -4.5 -42.5v-30z" />
    <glyph glyph-name="agrave" unicode="&#xe0;" horiz-adv-x="595" 
d="M519 2l0.00585938 359.003c0 40.667 -7.83301 72.667 -23.5 96s-36 40.833 -61 52.5s-53.167 19 -84.5 22s-62.666 4.5 -93.999 4.5c-14 0 -29.5 -0.5 -46.5 -1.5s-33.833 -2.33301 -50.5 -4s-32.834 -3.66699 -48.501 -6s-28.834 -4.83301 -39.501 -7.5v-99
c18 4 43.167 8.16699 75.5 12.5s66.166 6.5 101.499 6.5c32 0 56.833 -2.33301 74.5 -7s30.667 -11.834 39 -21.501s13.166 -22 14.499 -37s2 -32.833 2 -53.5c-37.333 0 -76 -0.5 -116 -1.5s-76.833 -6.33301 -110.5 -16s-61.334 -25.334 -83.001 -47.001
s-32.5 -53.167 -32.5 -94.5c0 -36.667 6.66699 -66 20 -88s31.166 -39 53.499 -51s48 -20 77 -24s59.5 -6.33301 91.5 -7c39.333 -1.33301 78.166 -0.833008 116.499 1.5s79.833 6.16602 124.5 11.499zM378.006 86.0029c-14 -2 -27.334 -3.5 -40.001 -4.5
s-26.667 -1.5 -42 -1.5c-14.667 0 -28.667 0.5 -42 1.5s-25.166 4 -35.499 9s-18.5 12.5 -24.5 22.5s-9 23.667 -9 41s3 31 9 41s14.167 17.5 24.5 22.5s22.166 8 35.499 9s27.333 1.5 42 1.5h17h23c8 0 15.833 -0.166992 23.5 -0.5s13.834 -0.5 18.501 -0.5v-141z
M384.005 633.003l-95 146h-156l160 -146h91z" />
    <glyph glyph-name="aacute" unicode="&#xe1;" horiz-adv-x="595" 
d="M519 2l0.00585938 359.003c0 40.667 -7.83301 72.667 -23.5 96s-36 40.833 -61 52.5s-53.167 19 -84.5 22s-62.666 4.5 -93.999 4.5c-14 0 -29.5 -0.5 -46.5 -1.5s-33.833 -2.33301 -50.5 -4s-32.834 -3.66699 -48.501 -6s-28.834 -4.83301 -39.501 -7.5v-99
c18 4 43.167 8.16699 75.5 12.5s66.166 6.5 101.499 6.5c32 0 56.833 -2.33301 74.5 -7s30.667 -11.834 39 -21.501s13.166 -22 14.499 -37s2 -32.833 2 -53.5c-37.333 0 -76 -0.5 -116 -1.5s-76.833 -6.33301 -110.5 -16s-61.334 -25.334 -83.001 -47.001
s-32.5 -53.167 -32.5 -94.5c0 -36.667 6.66699 -66 20 -88s31.166 -39 53.499 -51s48 -20 77 -24s59.5 -6.33301 91.5 -7c39.333 -1.33301 78.166 -0.833008 116.499 1.5s79.833 6.16602 124.5 11.499zM378.006 86.0029c-14 -2 -27.334 -3.5 -40.001 -4.5
s-26.667 -1.5 -42 -1.5c-14.667 0 -28.667 0.5 -42 1.5s-25.166 4 -35.499 9s-18.5 12.5 -24.5 22.5s-9 23.667 -9 41s3 31 9 41s14.167 17.5 24.5 22.5s22.166 8 35.499 9s27.333 1.5 42 1.5h17h23c8 0 15.833 -0.166992 23.5 -0.5s13.834 -0.5 18.501 -0.5v-141z
M442.005 779.003h-156l-94 -146h90z" />
    <glyph glyph-name="acircumflex" unicode="&#xe2;" horiz-adv-x="595" 
d="M520 2l0.00585938 359.003c0 40.667 -7.83301 72.667 -23.5 96s-36.167 40.833 -61.5 52.5s-53.666 19 -84.999 22s-62.666 4.5 -93.999 4.5c-14 0 -29.5 -0.5 -46.5 -1.5s-33.833 -2.33301 -50.5 -4s-32.834 -3.66699 -48.501 -6s-28.834 -4.83301 -39.501 -7.5v-99
c18 4 43.167 8.16699 75.5 12.5s66.166 6.5 101.499 6.5c32 0 56.833 -2.33301 74.5 -7s30.667 -11.834 39 -21.501s13.166 -22 14.499 -37s2 -32.833 2 -53.5c-37.333 0 -76 -0.5 -116 -1.5s-76.833 -6.33301 -110.5 -16s-61.334 -25.334 -83.001 -47.001
s-32.5 -53.167 -32.5 -94.5c0 -36.667 6.66699 -66 20 -88s31.166 -39 53.499 -51s48 -20 77 -24s59.5 -6.33301 91.5 -7c39.333 -1.33301 78.166 -0.833008 116.499 1.5s80.166 6.16602 125.499 11.499zM478.006 626.003l-130 168h-122l-135 -168h97l97 107l96 -107h97z
M378.006 86.0029c-14 -2 -27.334 -3.5 -40.001 -4.5s-26.667 -1.5 -42 -1.5c-14.667 0 -28.667 0.5 -42 1.5s-25.166 4 -35.499 9s-18.5 12.5 -24.5 22.5s-9 23.667 -9 41s3 31 9 41s14.167 17.5 24.5 22.5s22.166 8 35.499 9s27.333 1.5 42 1.5h17h23
c8 0 15.833 -0.166992 23.5 -0.5s13.834 -0.5 18.501 -0.5v-141z" />
    <glyph glyph-name="atilde" unicode="&#xe3;" horiz-adv-x="595" 
d="M519 2l0.00585938 359.003c0 40.667 -7.83301 72.667 -23.5 96s-36 40.833 -61 52.5s-53.167 19 -84.5 22s-62.666 4.5 -93.999 4.5c-14 0 -29.5 -0.5 -46.5 -1.5s-33.833 -2.33301 -50.5 -4s-32.834 -3.66699 -48.501 -6s-28.834 -4.83301 -39.501 -7.5v-99
c18 4 43.167 8.16699 75.5 12.5s66.166 6.5 101.499 6.5c32 0 56.833 -2.33301 74.5 -7s30.667 -11.834 39 -21.501s13.166 -22 14.499 -37s2 -32.833 2 -53.5c-37.333 0 -76 -0.5 -116 -1.5s-76.833 -6.33301 -110.5 -16s-61.334 -25.334 -83.001 -47.001
s-32.5 -53.167 -32.5 -94.5c0 -36.667 6.66699 -66 20 -88s31.166 -39 53.499 -51s48 -20 77 -24s59.5 -6.33301 91.5 -7c39.333 -1.33301 78.166 -0.833008 116.499 1.5s79.833 6.16602 124.5 11.499zM460.006 769.003l-52 0.000976562c0 -14.667 -3 -27.167 -9 -37.5
s-16.333 -15.5 -31 -15.5c-8.66699 0 -18.667 2.5 -30 7.5l-36.5 16c-13 5.66699 -27 11 -42 16s-30.167 7.5 -45.5 7.5c-32.667 0 -57 -12 -73 -36s-24 -55 -24 -93h52c0 4.66699 0.5 10.167 1.5 16.5s3 12.166 6 17.499s7.16699 9.83301 12.5 13.5s12.333 5.5 21 5.5
c8 0 17.5 -2.5 28.5 -7.5l36 -16.5c13 -6 27.167 -11.5 42.5 -16.5s32 -7.5 50 -7.5c30 0 53 12.333 69 37s24 55.667 24 93zM378.006 86.0039c-14 -2 -27.334 -3.5 -40.001 -4.5s-26.667 -1.5 -42 -1.5c-14.667 0 -28.667 0.5 -42 1.5s-25.166 4 -35.499 9
s-18.5 12.5 -24.5 22.5s-9 23.667 -9 41s3 31 9 41s14.167 17.5 24.5 22.5s22.166 8 35.499 9s27.333 1.5 42 1.5h17h23c8 0 15.833 -0.166992 23.5 -0.5s13.834 -0.5 18.501 -0.5v-141z" />
    <glyph glyph-name="adieresis" unicode="&#xe4;" horiz-adv-x="595" 
d="M520 2l0.00585938 359.003c0 40.667 -7.83301 72.667 -23.5 96s-36.167 40.833 -61.5 52.5s-53.666 19 -84.999 22s-62.666 4.5 -93.999 4.5c-14 0 -29.5 -0.5 -46.5 -1.5s-33.833 -2.33301 -50.5 -4s-32.834 -3.66699 -48.501 -6s-28.834 -4.83301 -39.501 -7.5v-99
c18 4 43.167 8.16699 75.5 12.5s66.166 6.5 101.499 6.5c32 0 56.833 -2.33301 74.5 -7s30.667 -11.834 39 -21.501s13.166 -22 14.499 -37s2 -32.833 2 -53.5c-37.333 0 -76 -0.5 -116 -1.5s-76.833 -6.33301 -110.5 -16s-61.334 -25.334 -83.001 -47.001
s-32.5 -53.167 -32.5 -94.5c0 -36.667 6.66699 -66 20 -88s31.166 -39 53.499 -51s48 -20 77 -24s59.5 -6.33301 91.5 -7c39.333 -1.33301 78.166 -0.833008 116.499 1.5s80.166 6.16602 125.499 11.499zM378.006 86.0029c-14 -2 -27.334 -3.5 -40.001 -4.5
s-26.667 -1.5 -42 -1.5c-14.667 0 -28.667 0.5 -42 1.5s-25.166 4 -35.499 9s-18.5 12.5 -24.5 22.5s-9 23.667 -9 41s3 31 9 41s14.167 17.5 24.5 22.5s22.166 8 35.499 9s27.333 1.5 42 1.5h17h23c8 0 15.833 -0.166992 23.5 -0.5s13.834 -0.5 18.501 -0.5v-141z
M461.005 649.003v117h-121v-117h121zM245.005 649.003v117h-119v-117h119z" />
    <glyph glyph-name="aring" unicode="&#xe5;" horiz-adv-x="595" 
d="M519 2l0.00585938 359.003c0 40.667 -7.83301 72.667 -23.5 96s-36 40.833 -61 52.5s-53.167 19 -84.5 22s-62.666 4.5 -93.999 4.5c-14 0 -29.5 -0.5 -46.5 -1.5s-33.833 -2.33301 -50.5 -4s-32.834 -3.66699 -48.501 -6s-28.834 -4.83301 -39.501 -7.5v-99
c18 4 43.167 8.16699 75.5 12.5s66.166 6.5 101.499 6.5c32 0 56.833 -2.33301 74.5 -7s30.667 -11.834 39 -21.501s13.166 -22 14.499 -37s2 -32.833 2 -53.5c-37.333 0 -76 -0.5 -116 -1.5s-76.833 -6.33301 -110.5 -16s-61.334 -25.334 -83.001 -47.001
s-32.5 -53.167 -32.5 -94.5c0 -36.667 6.66699 -66 20 -88s31.166 -39 53.499 -51s48 -20 77 -24s59.5 -6.33301 91.5 -7c39.333 -1.33301 78.166 -0.833008 116.499 1.5s79.833 6.16602 124.5 11.499zM423.006 685.003c0 14 -3.49902 27.334 -10.499 40.001
s-16.833 23.667 -29.5 33s-27.834 16.666 -45.501 21.999s-36.834 8 -57.501 8s-39.667 -2.66699 -57 -8s-32.333 -12.666 -45 -21.999s-22.667 -20.333 -30 -33s-11 -26.334 -11 -41.001c0 -30 13.333 -54.667 40 -74s60.667 -29 102 -29c20.667 0 39.834 2.66699 57.501 8
s33 12.666 46 21.999s23 20.333 30 33s10.5 26.334 10.5 41.001zM378.007 86.0039c-14 -2 -27.334 -3.5 -40.001 -4.5s-26.667 -1.5 -42 -1.5c-14.667 0 -28.667 0.5 -42 1.5s-25.166 4 -35.499 9s-18.5 12.5 -24.5 22.5s-9 23.667 -9 41s3 31 9 41s14.167 17.5 24.5 22.5
s22.166 8 35.499 9s27.333 1.5 42 1.5h17h23c8 0 15.833 -0.166992 23.5 -0.5s13.834 -0.5 18.501 -0.5v-141zM345.006 684.004c-0.666992 -14.667 -7.33105 -27.167 -19.998 -37.5s-28.667 -15.5 -48 -15.5s-34.333 5 -45 15s-16 22.667 -16 38s5.66699 28.166 17 38.499
s26.666 15.5 45.999 15.5s35.166 -5.16699 47.499 -15.5s18.5 -23.166 18.5 -38.499z" />
    <glyph glyph-name="ae" unicode="&#xe6;" horiz-adv-x="883" 
d="M845 222c0.666992 52.667 -3.15918 98.502 -11.4922 137.502s-22.5 71.5 -42.5 97.5s-46.833 45.5 -80.5 58.5s-74.834 19.5 -123.501 19.5c-35.333 0 -66.166 -3.83301 -92.499 -11.5s-50.166 -19.167 -71.499 -34.5c-13.333 9.33301 -27.833 17 -43.5 23
s-32.334 10.667 -50.001 14s-35.834 5.66602 -54.501 6.99902s-37.334 2 -56.001 2c-9.33301 0 -20.333 -0.5 -33 -1.5s-25.834 -2.33301 -39.501 -4l-41 -5c-13.667 -1.66699 -25.834 -3.5 -36.501 -5.5v-100c16.667 4 41 8 73 12s64.667 6 98 6
c30 0 53.167 -2.33301 69.5 -7s28.333 -11.834 36 -21.501s12.167 -22 13.5 -37s2 -32.5 2 -52.5v-1h-72c-24.667 0 -49.167 -1.33301 -73.5 -4s-47.333 -7 -69 -13s-40.667 -15 -57 -27s-29.333 -27.333 -39 -46s-14.5 -41.667 -14.5 -69
c0 -36.667 6.16699 -66.167 18.5 -88.5s28.833 -39.5 49.5 -51.5s44.667 -20 72 -24s55.666 -6 84.999 -6c43.333 0 81.166 3 113.499 9s65.166 15.667 98.499 29c27.333 -17.333 54.833 -28.333 82.5 -33s58.5 -7 92.5 -7c27.333 0 55 1.83301 83 5.5
s53.667 9.16699 77 16.5v90c-21.333 -4.66699 -43.833 -8.66699 -67.5 -12s-49.834 -5 -78.501 -5c-17.333 0 -35.833 2 -55.5 6s-38 11.167 -55 21.5s-31.333 24.5 -43 42.5s-18.5 41.333 -20.5 70h357zM393.007 114.002c-20.667 -11.333 -40.5 -19.1689 -59.5 -23.502
s-39.167 -6.5 -60.5 -6.5c-12 0 -24.167 0.5 -36.5 1.5s-23.5 4 -33.5 9s-18.167 12.167 -24.5 21.5s-9.5 22.666 -9.5 39.999c0 16.667 2.83301 29.834 8.5 39.501s13.5 16.834 23.5 21.501s21.5 7.66699 34.5 9s26.5 2 40.5 2h16c7.33301 0 15.333 -0.166992 24 -0.5
l25 -1c8 -0.333008 14.333 -0.5 19 -0.5c4.66699 -41.333 15.667 -78.666 33 -111.999zM710.007 311.999l-222 0.00195312c0 18 2 35 6 51s10.333 30.167 19 42.5s20 22.166 34 29.499s31.333 11 52 11c23.333 0 42.333 -3.83301 57 -11.5s26 -17.834 34 -30.501
s13.333 -27 16 -43s4 -32.333 4 -49z" />
    <glyph glyph-name="ccedilla" unicode="&#xe7;" horiz-adv-x="513" 
d="M499 6l0.00292969 101c-21.333 -4.66699 -41.5 -8.16699 -60.5 -10.5s-37.833 -3.5 -56.5 -3.5c-58.667 -1.33301 -104.167 13.334 -136.5 44.001s-48.5 75 -48.5 133c0 28 4.5 52.333 13.5 73s21.667 37.834 38 51.501s35.666 23.667 57.999 30s47.166 9.5 74.499 9.5
c21.333 -0.666992 40.833 -2.33398 58.5 -5.00098s36.167 -5.66699 55.5 -9v101c-24.667 5.33301 -49.834 9.16602 -75.501 11.499s-51.167 3.5 -76.5 3.5c-40 0 -77.667 -5.66699 -113 -17s-66.333 -28.166 -93 -50.499s-47.834 -50 -63.501 -83
s-23.5 -70.833 -23.5 -113.5s6.16699 -80.5 18.5 -113.5s29.5 -61.167 51.5 -84.5s48.333 -41.833 79 -55.5s64.334 -22.5 101.001 -26.5l-41 -66l15 -26c6 2 12.833 4 20.5 6s15.167 3 22.5 3c12 0 23.167 -2.33301 33.5 -7s15.5 -13.667 15.5 -27
s-6.33301 -22.833 -19 -28.5s-25.667 -8.5 -39 -8.5c-14 0 -27 1.66699 -39 5s-22.667 6.66602 -32 9.99902l-21 -54c13.333 -6 29 -11 47 -15s42 -6 72 -6c14.667 0 29.667 1.5 45 4.5s29.333 8.16699 42 15.5s22.834 17.333 30.501 30s11.5 28.667 11.5 48
c0 12 -2.66699 22.5 -8 31.5s-12 16.5 -20 22.5s-17.167 10.667 -27.5 14s-20.5 5 -30.5 5c-7.33301 0 -14.5 -0.666992 -21.5 -2s-13.5 -2.66602 -19.5 -3.99902l-4 4l42 43c20.667 0.666992 41.167 2.16699 61.5 4.5s41.166 6.16602 62.499 11.499z" />
    <glyph glyph-name="egrave" unicode="&#xe8;" horiz-adv-x="615" 
d="M349 -12c24.667 0 48.168 1.16895 70.501 3.50195s42 4.66602 59 6.99902s30.667 4.66602 41 6.99902l15.5 3.5v90c-22.667 -4.66699 -45.834 -8.83398 -69.501 -12.501s-50.834 -5.5 -81.501 -5.5c-22 0 -43.5 1.83301 -64.5 5.5s-40 10.667 -57 21
s-31.167 24.833 -42.5 43.5s-18 42.667 -20 72h376c0.666992 52.667 -3.16602 98.5 -11.499 137.5s-22.5 71.5 -42.5 97.5s-46.833 45.5 -80.5 58.5s-74.834 19.5 -123.501 19.5c-45.333 0 -84.666 -6.5 -117.999 -19.5s-61.166 -31.667 -83.499 -56
s-39 -53.666 -50 -87.999s-16.5 -72.833 -16.5 -115.5c0 -50 7.83301 -92.167 23.5 -126.5s37 -62 64 -83s58.667 -36.167 95 -45.5s75.166 -14 116.499 -14zM422.001 311.002l-222 0.00195312c0 18 2 35 6 51s10.333 30.167 19 42.5s20.167 22.166 34.5 29.499
s31.5 11 51.5 11c23.333 0 42.333 -3.83301 57 -11.5s26 -17.834 34 -30.501s13.333 -27 16 -43s4 -32.333 4 -49zM389.001 634.004l-95 146h-156l161 -146h90z" />
    <glyph glyph-name="eacute" unicode="&#xe9;" horiz-adv-x="615" 
d="M349 -12c24.667 0 48.168 1.16895 70.501 3.50195s42 4.66602 59 6.99902s30.667 4.66602 41 6.99902l15.5 3.5v90c-22.667 -4.66699 -45.834 -8.83398 -69.501 -12.501s-50.834 -5.5 -81.501 -5.5c-22 0 -43.5 1.83301 -64.5 5.5s-40 10.667 -57 21
s-31.167 24.833 -42.5 43.5s-18 42.667 -20 72h376c0.666992 52.667 -3.16602 98.5 -11.499 137.5s-22.5 71.5 -42.5 97.5s-46.833 45.5 -80.5 58.5s-74.834 19.5 -123.501 19.5c-45.333 0 -84.666 -6.5 -117.999 -19.5s-61.166 -31.667 -83.499 -56
s-39 -53.666 -50 -87.999s-16.5 -72.833 -16.5 -115.5c0 -50 7.83301 -92.167 23.5 -126.5s37 -62 64 -83s58.667 -36.167 95 -45.5s75.166 -14 116.499 -14zM422.001 311.002l-222 0.00195312c0 18 2 35 6 51s10.333 30.167 19 42.5s20.167 22.166 34.5 29.499
s31.5 11 51.5 11c23.333 0 42.333 -3.83301 57 -11.5s26 -17.834 34 -30.501s13.333 -27 16 -43s4 -32.333 4 -49zM457.001 780.004h-156l-95 -146h91z" />
    <glyph glyph-name="ecircumflex" unicode="&#xea;" horiz-adv-x="615" 
d="M349 -12c24.667 0 48.168 1.16895 70.501 3.50195s42 4.66602 59 6.99902s30.667 4.66602 41 6.99902l15.5 3.5v90c-22.667 -4.66699 -45.834 -8.83398 -69.501 -12.501s-50.834 -5.5 -81.501 -5.5c-22 0 -43.5 1.83301 -64.5 5.5s-40 10.667 -57 21
s-31.167 24.833 -42.5 43.5s-18 42.667 -20 72h376c0.666992 52.667 -3.16602 98.5 -11.499 137.5s-22.5 71.5 -42.5 97.5s-46.833 45.5 -80.5 58.5s-74.834 19.5 -123.501 19.5c-45.333 0 -84.666 -6.5 -117.999 -19.5s-61.166 -31.667 -83.499 -56
s-39 -53.666 -50 -87.999s-16.5 -72.833 -16.5 -115.5c0 -50 7.83301 -92.167 23.5 -126.5s37 -62 64 -83s58.667 -36.167 95 -45.5s75.166 -14 116.499 -14zM505.001 626.002l-130 168h-122l-135 -168h97l97 107l96 -107h97zM422.001 311.002l-222 0.00195312
c0 18 2 35 6 51s10.333 30.167 19 42.5s20.167 22.166 34.5 29.499s31.5 11 51.5 11c23.333 0 42.333 -3.83301 57 -11.5s26 -17.834 34 -30.501s13.333 -27 16 -43s4 -32.333 4 -49z" />
    <glyph glyph-name="edieresis" unicode="&#xeb;" horiz-adv-x="615" 
d="M349 -12c24.667 0 48.168 1.16895 70.501 3.50195s42 4.66602 59 6.99902s30.667 4.66602 41 6.99902l15.5 3.5v90c-22.667 -4.66699 -45.834 -8.83398 -69.501 -12.501s-50.834 -5.5 -81.501 -5.5c-22 0 -43.5 1.83301 -64.5 5.5s-40 10.667 -57 21
s-31.167 24.833 -42.5 43.5s-18 42.667 -20 72h376c0.666992 52.667 -3.16602 98.5 -11.499 137.5s-22.5 71.5 -42.5 97.5s-46.833 45.5 -80.5 58.5s-74.834 19.5 -123.501 19.5c-45.333 0 -84.666 -6.5 -117.999 -19.5s-61.166 -31.667 -83.499 -56
s-39 -53.666 -50 -87.999s-16.5 -72.833 -16.5 -115.5c0 -50 7.83301 -92.167 23.5 -126.5s37 -62 64 -83s58.667 -36.167 95 -45.5s75.166 -14 116.499 -14zM422.001 311.002l-222 0.00195312c0 18 2 35 6 51s10.333 30.167 19 42.5s20.167 22.166 34.5 29.499
s31.5 11 51.5 11c23.333 0 42.333 -3.83301 57 -11.5s26 -17.834 34 -30.501s13.333 -27 16 -43s4 -32.333 4 -49zM477.001 646.004v117h-121v-117h121zM261.001 646.004v117h-119v-117h119z" />
    <glyph glyph-name="igrave" unicode="&#xec;" horiz-adv-x="298" 
d="M220 0v525h-139v-525h139zM226 632l-95 146h-156l161 -146h90z" />
    <glyph glyph-name="iacute" unicode="&#xed;" horiz-adv-x="298" 
d="M217 0v525h-138v-525h138zM329 780h-156l-95 -146h91z" />
    <glyph glyph-name="icircumflex" unicode="&#xee;" horiz-adv-x="298" 
d="M221 0v525h-138v-525h138zM339 626l-130 168h-122l-135 -168h97l97 107l96 -107h97z" />
    <glyph glyph-name="idieresis" unicode="&#xef;" horiz-adv-x="298" 
d="M215 0v525h-139v-525h139zM310 646v117h-120v-117h120zM95 646v117h-120v-117h120z" />
    <glyph glyph-name="eth" unicode="&#xf0;" horiz-adv-x="624" 
d="M136 492l180 58.0049l29 -26c10 -9.33301 19.333 -19 28 -29s16.334 -20.167 23.001 -30.5s12 -19.833 16 -28.5l-4 -3c-15.333 9.33301 -34.5 18.666 -57.5 27.999s-46.833 14 -71.5 14c-36.667 0 -70.167 -5.33301 -100.5 -16s-56.5 -26.167 -78.5 -46.5
s-39 -45.5 -51 -75.5s-18 -64 -18 -102c0 -40 6.83301 -75.833 20.5 -107.5s32.5 -58.334 56.5 -80.001s52.5 -38.334 85.5 -50.001s69.167 -17.5 108.5 -17.5c52 0 95.167 9.66699 129.5 29s61.666 43.5 81.999 72.5s34.833 60.833 43.5 95.5s13 67.334 13 98.001
c0 61.333 -12 118 -36 170s-56 99 -96 141l115 34l-27 79l-160 -51c-23.333 17.333 -47.833 33.666 -73.5 48.999s-52.5 28.666 -80.5 39.999c-8 -16.667 -16.5 -32.334 -25.5 -47.001s-17.167 -29.667 -24.5 -45l32.5 -17l37.5 -21l-123 -36zM178 233.005
c0 20 2.33398 38.666 7.00098 55.999s12 32.5 22 45.5s22.833 23.167 38.5 30.5s34.5 11 56.5 11c21.333 0 39.666 -4.16699 54.999 -12.5s28 -19.166 38 -32.499s17.333 -28.5 22 -45.5s7 -34.5 7 -52.5c0 -18.667 -2.5 -37 -7.5 -55s-12.5 -34 -22.5 -48
s-22.667 -25.167 -38 -33.5s-33.333 -12.5 -54 -12.5c-22 0 -40.833 3.83301 -56.5 11.5s-28.5 18.167 -38.5 31.5s-17.333 29 -22 47s-7 37.667 -7 59z" />
    <glyph glyph-name="ntilde" unicode="&#xf1;" horiz-adv-x="643" 
d="M568 0l0.00195312 369.002c0 30 -4.83301 55.5 -14.5 76.5s-22.334 38 -38.001 51s-33 22.333 -52 28s-37.833 8.5 -56.5 8.5c-34.667 0 -69.334 -5.83301 -104.001 -17.5s-67 -24.167 -97 -37.5v47h-128v-525h142v389c4 2 10.667 4.66699 20 8
s20.166 6.66602 32.499 9.99902s25.333 6.16602 39 8.49902s26.834 3.5 39.501 3.5c18 0 32 -2.66699 42 -8s17.5 -12 22.5 -20s8 -16.5 9 -25.5s1.5 -16.833 1.5 -23.5v-342h142zM485.002 764.002l-52 0.000976562c0 -14.667 -3 -27.167 -9 -37.5s-16.333 -15.5 -31 -15.5
c-8.66699 0 -18.5 2.5 -29.5 7.5l-36.5 16c-13.333 5.66699 -27.333 11 -42 16s-30 7.5 -46 7.5c-32.667 0 -57 -12 -73 -36s-24 -55 -24 -93h52c0 4.66699 0.666992 10.167 2 16.5s3.5 12.166 6.5 17.499s7.16699 9.83301 12.5 13.5s12 5.5 20 5.5s17.5 -2.5 28.5 -7.5
l36 -16.5c13 -6 27.167 -11.5 42.5 -16.5s32 -7.5 50 -7.5c30 0 53 12.333 69 37s24 55.667 24 93z" />
    <glyph glyph-name="ograve" unicode="&#xf2;" horiz-adv-x="658" 
d="M608 263c0 42 -6.33203 79.833 -18.999 113.5s-31 62.334 -55 86.001s-53.167 42 -87.5 55s-73.5 19.5 -117.5 19.5s-83.333 -6.5 -118 -19.5s-63.834 -31.333 -87.501 -55s-41.834 -52.334 -54.501 -86.001s-19 -71.5 -19 -113.5
c0 -40.667 6.16699 -77.834 18.5 -111.501s30.5 -62.5 54.5 -86.5s53.333 -42.667 88 -56s74 -20 118 -20c40.667 0 78.167 6.66699 112.5 20s63.833 32 88.5 56s43.834 52.833 57.501 86.5s20.5 70.834 20.5 111.501zM460.001 261c0 -57.333 -9.5 -101.001 -28.5 -131.001
s-53.167 -45 -102.5 -45c-50 0 -84.5 14.833 -103.5 44.5s-28.5 73.5 -28.5 131.5c0 58.667 9.5 102.834 28.5 132.501s53.5 44.5 103.5 44.5c49.333 0 83.5 -15 102.5 -45s28.5 -74 28.5 -132zM411.001 633.999l-95 146h-156l160 -146h91z" />
    <glyph glyph-name="oacute" unicode="&#xf3;" horiz-adv-x="658" 
d="M608 263c0 42 -6.33203 79.833 -18.999 113.5s-31 62.334 -55 86.001s-53.167 42 -87.5 55s-73.5 19.5 -117.5 19.5s-83.333 -6.5 -118 -19.5s-63.834 -31.333 -87.501 -55s-41.834 -52.334 -54.501 -86.001s-19 -71.5 -19 -113.5
c0 -40.667 6.16699 -77.834 18.5 -111.501s30.5 -62.5 54.5 -86.5s53.333 -42.667 88 -56s74 -20 118 -20c40.667 0 78.167 6.66699 112.5 20s63.833 32 88.5 56s43.834 52.833 57.501 86.5s20.5 70.834 20.5 111.501zM460.001 261c0 -57.333 -9.5 -101.001 -28.5 -131.001
s-53.167 -45 -102.5 -45c-50 0 -84.5 14.833 -103.5 44.5s-28.5 73.5 -28.5 131.5c0 58.667 9.5 102.834 28.5 132.501s53.5 44.5 103.5 44.5c49.333 0 83.5 -15 102.5 -45s28.5 -74 28.5 -132zM475.001 781.999h-156l-95 -146h91z" />
    <glyph glyph-name="ocircumflex" unicode="&#xf4;" horiz-adv-x="658" 
d="M608 263c0 42 -6.33203 79.833 -18.999 113.5s-31 62.334 -55 86.001s-53.167 42 -87.5 55s-73.5 19.5 -117.5 19.5s-83.333 -6.5 -118 -19.5s-63.834 -31.333 -87.501 -55s-41.834 -52.334 -54.501 -86.001s-19 -71.5 -19 -113.5
c0 -40.667 6.16699 -77.834 18.5 -111.501s30.5 -62.5 54.5 -86.5s53.333 -42.667 88 -56s74 -20 118 -20c40.667 0 78.167 6.66699 112.5 20s63.833 32 88.5 56s43.834 52.833 57.501 86.5s20.5 70.834 20.5 111.501zM460.001 261c0 -57.333 -9.5 -101.001 -28.5 -131.001
s-53.167 -45 -102.5 -45c-50 0 -84.5 14.833 -103.5 44.5s-28.5 73.5 -28.5 131.5c0 58.667 9.5 102.834 28.5 132.501s53.5 44.5 103.5 44.5c49.333 0 83.5 -15 102.5 -45s28.5 -74 28.5 -132zM514.001 625.999l-130 168h-122l-135 -168h97l97 107l96 -107h97z" />
    <glyph glyph-name="otilde" unicode="&#xf5;" horiz-adv-x="658" 
d="M608 263c0 42 -6.33203 79.833 -18.999 113.5s-31 62.334 -55 86.001s-53.167 42 -87.5 55s-73.5 19.5 -117.5 19.5s-83.333 -6.5 -118 -19.5s-63.834 -31.333 -87.501 -55s-41.834 -52.334 -54.501 -86.001s-19 -71.5 -19 -113.5
c0 -40.667 6.16699 -77.834 18.5 -111.501s30.5 -62.5 54.5 -86.5s53.333 -42.667 88 -56s74 -20 118 -20c40.667 0 78.167 6.66699 112.5 20s63.833 32 88.5 56s43.834 52.833 57.501 86.5s20.5 70.834 20.5 111.501zM460.001 261c0 -57.333 -9.5 -101.001 -28.5 -131.001
s-53.167 -45 -102.5 -45c-50 0 -84.5 14.833 -103.5 44.5s-28.5 73.5 -28.5 131.5c0 58.667 9.5 102.834 28.5 132.501s53.5 44.5 103.5 44.5c49.333 0 83.5 -15 102.5 -45s28.5 -74 28.5 -132zM494.001 789.999l-52 0.000976562c0 -14.667 -3 -27.167 -9 -37.5
s-16.333 -15.5 -31 -15.5c-8.66699 0 -18.5 2.5 -29.5 7.5l-36.5 16c-13.333 5.66699 -27.333 11 -42 16s-30 7.5 -46 7.5c-32.667 0 -57 -12 -73 -36s-24 -55 -24 -93h52c0 4.66699 0.666992 10.167 2 16.5s3.5 12.166 6.5 17.499s7.16699 9.83301 12.5 13.5s12 5.5 20 5.5
s17.5 -2.5 28.5 -7.5l36 -16.5c13 -6 27.167 -11.5 42.5 -16.5s32 -7.5 50 -7.5c30 0 53 12.333 69 37s24 55.667 24 93z" />
    <glyph glyph-name="odieresis" unicode="&#xf6;" horiz-adv-x="658" 
d="M608 263c0 42 -6.33203 79.833 -18.999 113.5s-31 62.334 -55 86.001s-53.167 42 -87.5 55s-73.5 19.5 -117.5 19.5s-83.333 -6.5 -118 -19.5s-63.834 -31.333 -87.501 -55s-41.834 -52.334 -54.501 -86.001s-19 -71.5 -19 -113.5
c0 -40.667 6.16699 -77.834 18.5 -111.501s30.5 -62.5 54.5 -86.5s53.333 -42.667 88 -56s74 -20 118 -20c40.667 0 78.167 6.66699 112.5 20s63.833 32 88.5 56s43.834 52.833 57.501 86.5s20.5 70.834 20.5 111.501zM460.001 261c0 -57.333 -9.5 -101.001 -28.5 -131.001
s-53.167 -45 -102.5 -45c-50 0 -84.5 14.833 -103.5 44.5s-28.5 73.5 -28.5 131.5c0 58.667 9.5 102.834 28.5 132.501s53.5 44.5 103.5 44.5c49.333 0 83.5 -15 102.5 -45s28.5 -74 28.5 -132zM496.001 647.999v117h-120v-117h120zM281.001 647.999v117h-120v-117h120z" />
    <glyph glyph-name="divide" unicode="&#xf7;" horiz-adv-x="620" 
d="M594 289v114h-582v-114h582zM389 149c0 11.333 -2.16699 22 -6.5 32s-10.333 18.833 -18 26.5s-16.5 13.667 -26.5 18s-21 6.5 -33 6.5s-23.167 -2.16699 -33.5 -6.5s-19.333 -10.333 -27 -18s-13.667 -16.5 -18 -26.5s-6.5 -20.667 -6.5 -32
s2.16699 -22.166 6.5 -32.499s10.333 -19.166 18 -26.499s16.667 -13.166 27 -17.499s21.5 -6.5 33.5 -6.5s23 2.16699 33 6.5s18.833 10.166 26.5 17.499s13.667 16.166 18 26.499s6.5 21.166 6.5 32.499zM389 544c0 11.333 -2.16699 22 -6.5 32s-10.333 18.833 -18 26.5
s-16.5 13.667 -26.5 18s-21 6.5 -33 6.5s-23.167 -2.16699 -33.5 -6.5s-19.333 -10.333 -27 -18s-13.667 -16.5 -18 -26.5s-6.5 -20.667 -6.5 -32s2.16699 -22 6.5 -32s10.333 -18.667 18 -26s16.667 -13.166 27 -17.499s21.5 -6.5 33.5 -6.5s23 2.16699 33 6.5
s18.833 10.166 26.5 17.499s13.667 16 18 26s6.5 20.667 6.5 32z" />
    <glyph glyph-name="oslash" unicode="&#xf8;" horiz-adv-x="658" 
d="M608 263c0 42 -6.33594 79.833 -19.0029 113.5s-31 62.334 -55 86.001s-53.167 42 -87.5 55s-73.166 19.5 -116.499 19.5c-44 0 -83.333 -6.5 -118 -19.5s-64 -31.333 -88 -55s-42.333 -52.334 -55 -86.001s-19 -71.5 -19 -113.5
c0 -40.667 6.16699 -77.834 18.5 -111.501s30.5 -62.5 54.5 -86.5s53.333 -42.667 88 -56s74.334 -20 119.001 -20c40.667 0 78 6.66699 112 20s63.333 32 88 56s43.834 52.833 57.501 86.5s20.5 70.834 20.5 111.501zM459.997 261c0 -57.333 -9.50098 -101 -28.501 -131
s-53.167 -45 -102.5 -45c-35.333 0 -62.666 7.66699 -81.999 23l204 242c6 -24 9 -53.667 9 -89zM407.996 417l-202 -242c-6 24 -9 52.667 -9 86c0 58.667 9.5 102.834 28.5 132.501s53.5 44.5 103.5 44.5c17.333 0 32.5 -1.83301 45.5 -5.5s24.167 -8.83398 33.5 -15.501z
" />
    <glyph glyph-name="ugrave" unicode="&#xf9;" horiz-adv-x="638" 
d="M560 0v525.001h-142v-387l-49 -20c-20 -8 -46.667 -12 -80 -12c-16.667 0 -29.667 3.16699 -39 9.5s-16.5 14.166 -21.5 23.499s-8.16699 19.333 -9.5 30s-2 20.334 -2 29.001v327h-142v-365c0 -33.333 5 -60.833 15 -82.5s23 -38.834 39 -51.501
s33.833 -21.5 53.5 -26.5s39.167 -7.5 58.5 -7.5c38 0 71.5 5.33301 100.5 16s58.833 23.667 89.5 39v-47h129zM411 634.001l-95 146h-156l160 -146h91z" />
    <glyph glyph-name="uacute" unicode="&#xfa;" horiz-adv-x="638" 
d="M560 0v525.001h-142v-387l-49 -20c-20 -8 -46.667 -12 -80 -12c-16.667 0 -29.667 3.16699 -39 9.5s-16.5 14.166 -21.5 23.499s-8.16699 19.333 -9.5 30s-2 20.334 -2 29.001v327h-142v-365c0 -33.333 5 -60.833 15 -82.5s23 -38.834 39 -51.501
s33.833 -21.5 53.5 -26.5s39.167 -7.5 58.5 -7.5c38 0 71.5 5.33301 100.5 16s58.833 23.667 89.5 39v-47h129zM477 780.001h-156l-95 -146h91z" />
    <glyph glyph-name="ucircumflex" unicode="&#xfb;" horiz-adv-x="638" 
d="M560 0v525.001h-142v-387l-49 -20c-20 -8 -46.667 -12 -80 -12c-16.667 0 -29.667 3.16699 -39 9.5s-16.5 14.166 -21.5 23.499s-8.16699 19.333 -9.5 30s-2 20.334 -2 29.001v327h-142v-365c0 -33.333 5 -60.833 15 -82.5s23 -38.834 39 -51.501
s33.833 -21.5 53.5 -26.5s39.167 -7.5 58.5 -7.5c38 0 71.5 5.33301 100.5 16s58.833 23.667 89.5 39v-47h129zM500 626.001l-130 168h-122l-135 -168h97l97 107l96 -107h97z" />
    <glyph glyph-name="udieresis" unicode="&#xfc;" horiz-adv-x="638" 
d="M560 0v525.001h-142v-387l-49 -20c-20 -8 -46.667 -12 -80 -12c-16.667 0 -29.667 3.16699 -39 9.5s-16.5 14.166 -21.5 23.499s-8.16699 19.333 -9.5 30s-2 20.334 -2 29.001v327h-142v-365c0 -33.333 5 -60.833 15 -82.5s23 -38.834 39 -51.501
s33.833 -21.5 53.5 -26.5s39.167 -7.5 58.5 -7.5c38 0 71.5 5.33301 100.5 16s58.833 23.667 89.5 39v-47h129zM270 646.001v117h-120v-117h120zM485 646.001v117h-120v-117h120z" />
    <glyph glyph-name="yacute" unicode="&#xfd;" horiz-adv-x="565" 
d="M557 525h-142l-122 -411h-9l-121 411h-155l193 -525h51l-100 -220h130l137.5 372.5zM441 780h-156l-95 -146h91z" />
    <glyph glyph-name="thorn" unicode="&#xfe;" horiz-adv-x="657" 
d="M359 535c-3.33301 0 -9.83203 -0.166992 -19.499 -0.5s-21.167 -1.83301 -34.5 -4.5s-27.5 -6.5 -42.5 -11.5s-29.167 -12.5 -42.5 -22.5v254h-142v-911h142v150c19.333 -0.666992 35.333 -1 48 -1h33c42.667 0 83.167 5.83301 121.5 17.5s71.666 29 99.999 52
s50.833 51.5 67.5 85.5s25 73.333 25 118c0 87.333 -21.167 154.833 -63.5 202.5s-106.5 71.5 -192.5 71.5zM299.001 92c-9.33301 0 -20.501 0.166992 -33.501 0.5s-23.667 0.666016 -32 0.999023s-13.166 0.5 -14.499 0.5v296c6.66699 6.66699 14.5 12.834 23.5 18.501
s18.333 10.5 28 14.5s19 7 28 9s17.167 3 24.5 3c52 0 89.333 -13 112 -39s34 -68.667 34 -128c0 -54.667 -14.833 -97.667 -44.5 -129s-71.5 -47 -125.5 -47z" />
    <glyph glyph-name="ydieresis" unicode="&#xff;" horiz-adv-x="565" 
d="M557 525h-142l-122 -411h-9l-121 411h-155l193 -525h51l-100 -220h130l137.5 372.5zM450 649v117h-121v-117h121zM234 649v117h-119v-117h119z" />
    <glyph glyph-name="OE" unicode="&#x152;" horiz-adv-x="879" 
d="M842 592l0.000976562 108.001h-499c-42 0 -81 -6.66699 -117 -20s-67 -34.333 -93 -63s-46.333 -65.334 -61 -110.001s-22 -98 -22 -160c0 -60 6.66699 -111.833 20 -155.5s32.666 -79.667 57.999 -108s56 -49.333 92 -63s77 -20.5 123 -20.5h506v108h-267v197h165v106
h-165v181h260zM436.001 104.001l-58 -0.00292969c-39.333 0 -71.166 6.66699 -95.499 20s-43.166 31.166 -56.499 53.499s-22.333 48.333 -27 78s-7 60.834 -7 93.501s2.33301 63.834 7 93.501s13.667 55.834 27 78.501s32.166 40.834 56.499 54.501
s56.166 20.5 95.499 20.5h58v-492z" />
    <glyph glyph-name="oe" unicode="&#x153;" horiz-adv-x="1001" 
d="M705 536c-40 0 -75.499 -6.16309 -106.499 -18.4961s-57.5 -28.166 -79.5 -47.499c-23.333 19.333 -50.833 35.333 -82.5 48s-67.167 19 -106.5 19c-44 0 -83.333 -6.5 -118 -19.5s-64 -31.333 -88 -55s-42.333 -52.334 -55 -86.001s-19 -71.5 -19 -113.5
c0 -40.667 6.16699 -77.834 18.5 -111.501s30.5 -62.5 54.5 -86.5s53.333 -42.667 88 -56s74.334 -20 119.001 -20c38 0 72.667 6.33301 104 19s59.333 29.667 84 51c27.333 -23.333 59.5 -41 96.5 -53s77.167 -18 120.5 -18c24.667 0 48.167 1.16699 70.5 3.5
s42 4.66602 59 6.99902s30.667 4.66602 41 6.99902l15.5 3.5v90c-22.667 -4.66699 -45.834 -8.83398 -69.501 -12.501s-50.834 -5.5 -81.501 -5.5c-22 0 -43.5 1.83301 -64.5 5.5s-40 10.667 -57 21s-31 24.833 -42 43.5s-17.833 42.667 -20.5 72h377
c0.666992 52.667 -3.16602 98.5 -11.499 137.5s-22.5 71.5 -42.5 97.5s-46.833 45.5 -80.5 58.5s-74.834 19.5 -123.501 19.5zM460.001 261.004c0 -58 -9.5 -101.833 -28.5 -131.5s-53.167 -44.5 -102.5 -44.5c-50 0 -84.5 14.667 -103.5 44s-28.5 73.333 -28.5 132
s9.5 102.667 28.5 132s53.5 44 103.5 44c49.333 0 83.5 -14.833 102.5 -44.5s28.5 -73.5 28.5 -131.5zM809.001 311.004l-222.999 0.00195312c0 18 2 35 6 51s10.5 30.167 19.5 42.5s20.5 22.166 34.5 29.499s31.333 11 52 11c23.333 0 42.166 -3.83301 56.499 -11.5
s25.5 -17.834 33.5 -30.501s13.5 -27 16.5 -43s4.5 -32.333 4.5 -49z" />
    <glyph glyph-name="Scaron" unicode="&#x160;" horiz-adv-x="624" 
d="M282 -12c34 0 68.834 3.66699 104.501 11s68 19.5 97 36.5s52.833 39.5 71.5 67.5s28 62.667 28 104c0 44 -9.33301 78.667 -28 104s-41.834 45 -69.501 59s-57.667 24.667 -90 32s-62.333 15 -90 23s-50.834 18.333 -69.501 31s-28 32 -28 58
c0 18.667 5.5 33.667 16.5 45s24.5 20.333 40.5 27s33 11.167 51 13.5s33.667 3.5 47 3.5c21.333 0 42 -1 62 -3s37.667 -4.16699 53 -6.5s27.666 -4.5 36.999 -6.5l14 -3v108l-14.5 3c-9.66699 2 -22.667 4.33301 -39 7s-35.5 5 -57.5 7s-45 3 -69 3
c-38.667 0 -75.5 -3.5 -110.5 -10.5s-66 -18.833 -93 -35.5s-48.5 -38.834 -64.5 -66.501s-24 -61.834 -24 -102.501c0 -41.333 9.16699 -74.166 27.5 -98.499s41.333 -44 69 -59s57.5 -26.5 89.5 -34.5s61.833 -16.5 89.5 -25.5s50.667 -19.667 69 -32
s27.5 -30.166 27.5 -53.499c0 -19.333 -5.5 -35.333 -16.5 -48s-24.5 -22.667 -40.5 -30s-33.333 -12.5 -52 -15.5s-35.667 -4.5 -51 -4.5c-22.667 0 -46.167 1.5 -70.5 4.5s-46.666 6.33301 -66.999 10s-37 7 -50 10l-19.5 4.5v-112l17 -4
c11.333 -2.66699 26.833 -5.5 46.5 -8.5s42.834 -5.83301 69.501 -8.5s55.667 -4 87 -4zM125.001 932l130 -168h123l135 168h-98l-97 -108l-95 108h-98z" />
    <glyph glyph-name="scaron" unicode="&#x161;" horiz-adv-x="536" 
d="M494 168c0 28 -6.16504 50.999 -18.498 68.999s-27.666 32.667 -45.999 44s-37.833 19.833 -58.5 25.5s-39.334 10.167 -56.001 13.5c-12.667 2.66699 -26.5 5.33398 -41.5 8.00098s-28.833 6.33398 -41.5 11.001s-23.334 10.667 -32.001 18s-13 17 -13 29
s3.83301 21.833 11.5 29.5s17.334 13.5 29.001 17.5s24.167 6.66699 37.5 8s25.666 2 36.999 2c16.667 0 33.5 -0.666992 50.5 -2s32.667 -3 47 -5s26.666 -4 36.999 -6s17.5 -3.33301 21.5 -4v94c-12 1.33301 -33 4.16602 -63 8.49902s-70.333 6.5 -121 6.5
c-24 0 -49.667 -2.33301 -77 -7s-52.5 -13 -75.5 -25s-42 -28.5 -57 -49.5s-22.5 -47.833 -22.5 -80.5c0 -30.667 7.16699 -55.667 21.5 -75s30.833 -34.5 49.5 -45.5s37 -18.833 55 -23.5l38 -10c20.667 -4.66699 39.5 -8.66699 56.5 -12s31.5 -7.33301 43.5 -12
s21.333 -10.5 28 -17.5s10 -16.833 10 -29.5s-4.16699 -23.167 -12.5 -31.5s-18.666 -14.833 -30.999 -19.5s-26 -7.83398 -41 -9.50098s-29.167 -2.5 -42.5 -2.5c-31.333 0 -61 2.66699 -89 8s-55.333 11 -82 17v-99c26 -5.33301 55.5 -10.166 88.5 -14.499
s67.833 -6.5 104.5 -6.5c38.667 0 73.667 4 105 12s58.166 19.667 80.499 35s39.5 34 51.5 56s18 47 18 75zM70.002 800.999l129 -168h123l135 168h-97l-98 -107l-95 107h-97z" />
    <glyph glyph-name="Ydieresis" unicode="&#x178;" horiz-adv-x="665" 
d="M665 700h-153l-165 -302h-12l-163 302h-172l258 -427v-273h148v273zM497 766v117h-121v-117h121zM282 766v117h-120v-117h120z" />
    <glyph glyph-name="florin" unicode="&#x192;" horiz-adv-x="528" 
d="M478 700l-98 -0.00195312c-21.333 0 -42 -1.33301 -62 -4s-39.667 -10.667 -59 -24c-27.333 -18.667 -45.666 -39 -54.999 -61s-16 -46.333 -20 -73l-9 -63h-72l-14 -100h72l-81 -567h138l80 567h133l13 100h-131l7 52c2.66699 19.333 6.33398 34.333 11.001 45
s11.167 18.334 19.5 23.001s19.166 7.33398 32.499 8.00098s29.666 1 48.999 1h32z" />
    <glyph glyph-name="circumflex" unicode="&#x2c6;" horiz-adv-x="283" 
d="M335 626l-130 168h-122l-135 -168h97l97 107l96 -107h97z" />
    <glyph glyph-name="tilde" unicode="&#x2dc;" horiz-adv-x="243" 
d="M293 734l-51.999 0.000976562c0 -14.667 -3 -27.167 -9 -37.5s-16.333 -15.5 -31 -15.5c-8.66699 0 -18.667 2.5 -30 7.5l-37 16c-13.333 5.66699 -27.333 11 -42 16s-29.667 7.5 -45 7.5c-32.667 0 -57 -12 -73 -36s-24 -55 -24 -93h52c0 4.66699 0.5 10.167 1.5 16.5
s3 12.166 6 17.499s7.16699 9.83301 12.5 13.5s12.333 5.5 21 5.5c8 0 17.333 -2.5 28 -7.5l36 -16.5c13.333 -6 27.666 -11.5 42.999 -16.5s32 -7.5 50 -7.5c30 0 53 12.333 69 37s24 55.667 24 93z" />
    <glyph glyph-name="endash" unicode="&#x2013;" horiz-adv-x="596" 
d="M526 244v113h-456v-113h456z" />
    <glyph glyph-name="emdash" unicode="&#x2014;" horiz-adv-x="772" 
d="M692 243v122h-612v-122h612z" />
    <glyph glyph-name="quoteleft" unicode="&#x2018;" horiz-adv-x="294" 
d="M226 711h-88l-33 -128l-37 -139h149z" />
    <glyph glyph-name="quoteright" unicode="&#x2019;" horiz-adv-x="294" 
d="M226 711h-149l-9 -267h88l33.5 128z" />
    <glyph glyph-name="quotesinglbase" unicode="&#x201a;" horiz-adv-x="294" 
d="M211 146h-149l-9 -267h87l34 128z" />
    <glyph glyph-name="quotedblleft" unicode="&#x201c;" horiz-adv-x="484" 
d="M227 711h-89l-33 -128l-37 -139h139zM416 711h-89l-33.5 -128l-36.5 -139h138z" />
    <glyph glyph-name="quotedblright" unicode="&#x201d;" horiz-adv-x="484" 
d="M227 711h-139l-20 -267h89l33.5 128zM416 711h-139l-20 -267h88l34 128z" />
    <glyph glyph-name="quotedblbase" unicode="&#x201e;" horiz-adv-x="484" 
d="M402 145h-139l-20 -267h89l33.5 128zM213 145h-138l-21 -267h89l33.5 128z" />
    <glyph glyph-name="dagger" unicode="&#x2020;" horiz-adv-x="685" 
d="M415 -220v639h189v106h-189v255h-145v-255h-190v-106h190v-639h145z" />
    <glyph glyph-name="daggerdbl" unicode="&#x2021;" horiz-adv-x="685" 
d="M120 35h150v-255h145v255h149v106h-149v278h189v106h-189v255h-145v-255h-190v-106h190v-278h-150v-106z" />
    <glyph glyph-name="bullet" unicode="&#x2022;" horiz-adv-x="501" 
d="M438 347c0 25.333 -4.83301 49.166 -14.5 71.499s-23 41.833 -40 58.5s-36.833 29.834 -59.5 39.501s-47 14.5 -73 14.5s-50.5 -4.83301 -73.5 -14.5s-43 -22.834 -60 -39.501s-30.333 -36.167 -40 -58.5s-14.5 -46.166 -14.5 -71.499s4.83301 -49.166 14.5 -71.499
s23 -41.833 40 -58.5s37 -29.834 60 -39.501s47.5 -14.5 73.5 -14.5s50.333 4.83301 73 14.5s42.5 22.834 59.5 39.501s30.333 36.167 40 58.5s14.5 46.166 14.5 71.499z" />
    <glyph glyph-name="ellipsis" unicode="&#x2026;" horiz-adv-x="879" 
d="M829 0v145h-148v-145h148zM198 0v145h-148v-145h148zM514 0v145h-148v-145h148z" />
    <glyph glyph-name="perthousand" unicode="&#x2030;" horiz-adv-x="1266" 
d="M393 526c0 32.667 -4.33398 60.834 -13.001 84.501s-20.667 43.167 -36 58.5s-33.166 26.666 -53.499 33.999s-41.833 11 -64.5 11c-22 0 -43 -3.5 -63 -10.5s-37.667 -18 -53 -33s-27.5 -34.5 -36.5 -58.5s-13.5 -52.667 -13.5 -86s4.33301 -62 13 -86
s20.5 -43.5 35.5 -58.5s32.5 -26 52.5 -33s41.667 -10.5 65 -10.5c24 0 46.167 3.66699 66.5 11s38 18.666 53 33.999s26.667 34.833 35 58.5s12.5 51.834 12.5 84.501zM822.999 178c0 32.667 -4.33398 60.834 -13.001 84.501s-20.5 43.167 -35.5 58.5
s-32.667 26.666 -53 33.999s-41.833 11 -64.5 11c-22 0 -43.167 -3.5 -63.5 -10.5s-38.166 -18 -53.499 -33s-27.5 -34.5 -36.5 -58.5s-13.5 -52.667 -13.5 -86s4.33301 -62 13 -86s20.667 -43.5 36 -58.5s33 -26 53 -33s41.667 -10.5 65 -10.5c24 0 46 3.66699 66 11
s37.5 18.666 52.5 33.999s26.667 34.833 35 58.5s12.5 51.834 12.5 84.501zM1206 178c0 32.667 -4.33398 60.834 -13.001 84.501s-20.5 43.167 -35.5 58.5s-32.667 26.666 -53 33.999s-41.833 11 -64.5 11c-22 0 -43.167 -3.5 -63.5 -10.5s-38.166 -18 -53.499 -33
s-27.5 -34.5 -36.5 -58.5s-13.5 -52.667 -13.5 -86s4.33301 -62 13 -86s20.667 -43.5 36 -58.5s33 -26 53 -33s41.667 -10.5 65 -10.5c24 0 46 3.66699 66 11s37.5 18.666 52.5 33.999s26.667 34.833 35 58.5s12.5 51.834 12.5 84.501zM732.997 701l-60 39l-525 -737l59 -39
zM728.997 178c0 -17.333 -1.33301 -33.333 -4 -48s-6.83398 -27.667 -12.501 -39s-13 -20.166 -22 -26.499s-20.167 -9.5 -33.5 -9.5s-24.666 3.16699 -33.999 9.5s-17 15.166 -23 26.499s-10.333 24.333 -13 39s-4 30.667 -4 48c0 16.667 1.33301 32.5 4 47.5
s7 28.167 13 39.5s13.667 20.166 23 26.499s20.666 9.5 33.999 9.5s24.5 -3.16699 33.5 -9.5s16.333 -15.166 22 -26.499s9.83398 -24.5 12.501 -39.5s4 -30.833 4 -47.5zM1112 178c0 -17.333 -1.33301 -33.333 -4 -48s-6.83398 -27.667 -12.501 -39
s-13 -20.166 -22 -26.499s-20.167 -9.5 -33.5 -9.5s-24.666 3.16699 -33.999 9.5s-17 15.166 -23 26.499s-10.333 24.333 -13 39s-4 30.667 -4 48c0 16.667 1.33301 32.5 4 47.5s7 28.167 13 39.5s13.667 20.166 23 26.499s20.666 9.5 33.999 9.5s24.5 -3.16699 33.5 -9.5
s16.333 -15.166 22 -26.499s9.83398 -24.5 12.501 -39.5s4 -30.833 4 -47.5zM298.997 526c0 -17.333 -1.33301 -33.333 -4 -48s-6.83398 -27.667 -12.501 -39s-13.167 -20.166 -22.5 -26.499s-20.666 -9.5 -33.999 -9.5s-24.666 3.16699 -33.999 9.5
s-16.833 15.166 -22.5 26.499s-9.83398 24.333 -12.501 39s-4 30.667 -4 48c0 16.667 1.33301 32.5 4 47.5s6.83398 28.167 12.501 39.5s13.167 20.166 22.5 26.499s20.666 9.5 33.999 9.5s24.666 -3.16699 33.999 -9.5s16.833 -15.166 22.5 -26.499
s9.83398 -24.5 12.501 -39.5s4 -30.833 4 -47.5z" />
    <glyph glyph-name="guilsinglleft" unicode="&#x2039;" horiz-adv-x="397" 
d="M317 569h-126l-111 -232l111 -233h126l-104 233z" />
    <glyph glyph-name="guilsinglright" unicode="&#x203a;" horiz-adv-x="397" 
d="M80 569l104 -232l-104 -233h125l112 233l-112 232h-125z" />
    <glyph glyph-name="trademark" unicode="&#x2122;" horiz-adv-x="953" 
d="M593 259h121l94 364h7l23 -364h97l-39 440h-155l-78 -332h-7l-77 332h-154l-43 -440h88l23 364h6zM374 699h-344v-74h122v-366h99v366h123v74z" />
    <glyph glyph-name=".null" horiz-adv-x="0" 
 />
    <glyph glyph-name="nonmarkingreturn" horiz-adv-x="500" 
 />
    <glyph glyph-name="minus" horiz-adv-x="620" 
d="M585 280v113h-565v-113h565z" />
    <glyph glyph-name="nonbreakingspace" horiz-adv-x="319" 
 />
    <glyph glyph-name="Euro" horiz-adv-x="746" 
d="M722 678c-33.333 12 -69 20.499 -107 25.499s-79.667 7.5 -125 7.5c-40.667 0 -79.667 -5.5 -117 -16.5s-71.166 -26.667 -101.499 -47s-56.666 -45.5 -78.999 -75.5s-39.166 -64 -50.499 -102h-97l-35 -82h116c-0.666992 -5.33301 -1 -10.333 -1 -15v-15v-18
c0 -5.33301 0.333008 -10.666 1 -15.999h-81l-35 -82h132c11.333 -39.333 28.166 -74.666 50.499 -105.999s48.833 -57.833 79.5 -79.5s64.5 -38.334 101.5 -50.001s75.833 -17.5 116.5 -17.5c34 0 67.5 1.83301 100.5 5.5s64.833 9.16699 95.5 16.5v111
c-13.333 -5.33301 -26 -9.66602 -38 -12.999s-24.5 -6 -37.5 -8s-27 -3.5 -42 -4.5s-32.5 -1.5 -52.5 -1.5c-59.333 0 -108.833 13.667 -148.5 41s-68.5 62.666 -86.5 105.999h255l35 82h-310c-0.666992 5.33301 -1.16699 11 -1.5 17s-0.5 11.667 -0.5 17v15
c0 4.66699 0.333008 9.66699 1 15h340l34 82h-356c17.333 43.333 45.166 77 83.499 101s87.833 36 148.5 36c19.333 0 36.166 -0.5 50.499 -1.5s28 -2.5 41 -4.5s25.833 -4.66699 38.5 -8s27 -7.33301 43 -12z" />
    <glyph glyph-name="eurocurrency" horiz-adv-x="759" 
d="M557 26l66.9971 66l-56 55c24 37.333 36 78.333 36 123c0 23.333 -3.16699 45.5 -9.5 66.5s-15.166 40.167 -26.499 57.5l56 56l-67 66l-57 -57c-17.333 11.333 -36.166 20 -56.499 26s-41.5 9 -63.5 9c-22.667 0 -44.167 -3 -64.5 -9s-39.166 -14.667 -56.499 -26
l-57 57l-67 -66l57 -56c-24.667 -36 -37 -77.333 -37 -124c0 -45.333 12.333 -86.333 37 -123l-57 -55l67 -66l57 56c36 -22.667 76.333 -34 121 -34s84.667 11.333 120 34zM379.997 399c18 0 34.832 -3.33301 50.499 -10s29.334 -15.834 41.001 -27.501
s20.834 -25.334 27.501 -41.001s10 -32.167 10 -49.5c0 -18 -3.33301 -34.667 -10 -50s-16 -28.833 -28 -40.5s-25.833 -20.834 -41.5 -27.501s-32.5 -10 -50.5 -10s-34.833 3.33301 -50.5 10s-29.334 15.834 -41.001 27.501s-20.834 25.167 -27.501 40.5s-10 32 -10 50
c0 17.333 3.5 33.833 10.5 49.5s16.333 29.334 28 41.001s25.334 20.834 41.001 27.501s32.5 10 50.5 10z" />
    </font>
</defs>
</svg>
